<?xml version="1.0" standalone="no"?>
<!DOCTYPE svg PUBLIC "-//W3C//DTD SVG 20010904//EN"
 "http://www.w3.org/TR/2001/REC-SVG-20010904/DTD/svg10.dtd">
<svg version="1.0" xmlns="http://www.w3.org/2000/svg"
 width="1281.000000pt" height="341.000000pt" viewBox="0 0 1281.000000 341.000000"
 preserveAspectRatio="xMidYMid meet">

<g transform="translate(0.000000,341.000000) scale(0.100000,-0.100000)"
fill="#000000" stroke="none">
<path d="M4267 3194 c-3 -3 -27 -8 -54 -11 -26 -2 -64 -14 -83 -25 -22 -13
-55 -21 -90 -22 -30 -1 -62 -6 -70 -11 -8 -6 -24 -10 -35 -10 -11 0 -19 -6
-18 -12 4 -16 -13 -17 -22 -3 -9 15 -75 9 -75 -7 0 -7 -7 -13 -15 -13 -8 0
-15 4 -15 9 0 17 -60 19 -70 2 -8 -14 -9 -13 -10 4 0 14 -3 16 -8 7 -13 -20
-65 -26 -77 -9 -12 17 -65 11 -65 -7 0 -6 -5 -4 -10 4 -5 8 -10 10 -10 5 0
-10 -60 -13 -85 -5 -5 2 -22 0 -38 -4 -16 -5 -32 -4 -40 3 -16 12 -74 9 -103
-7 -16 -8 -24 -8 -33 1 -8 8 -14 8 -19 1 -4 -5 -17 -10 -29 -11 -41 -1 -43 -3
-43 -22 0 -11 -6 -21 -12 -24 -14 -5 28 -57 45 -57 6 0 18 -6 26 -14 21 -18
81 -29 81 -15 0 7 9 9 23 5 12 -4 27 -8 33 -9 7 -2 18 -8 26 -15 8 -6 18 -8
22 -4 4 4 11 7 14 7 4 1 17 6 29 13 16 9 24 9 29 1 4 -7 20 -9 40 -6 19 3 36
1 40 -4 3 -5 9 -7 14 -4 5 3 28 1 50 -5 26 -7 52 -8 74 -2 18 6 39 7 45 3 11
-7 10 -49 -2 -81 -13 -38 -15 -65 -5 -83 8 -16 7 -23 -7 -33 -15 -11 -16 -16
-5 -29 10 -12 10 -18 0 -29 -6 -8 -13 -41 -16 -73 -2 -32 -6 -71 -9 -88 -2
-16 -7 -52 -10 -80 -3 -27 -9 -76 -13 -108 -5 -33 -5 -60 0 -63 5 -3 4 -12 -3
-20 -7 -8 -13 -43 -14 -77 -2 -34 -6 -70 -10 -80 -4 -10 -5 -34 -2 -54 4 -20
2 -43 -3 -52 -4 -9 -12 -75 -15 -146 -4 -72 -9 -150 -12 -175 -2 -25 -6 -81
-7 -125 -1 -44 -8 -90 -14 -102 -7 -12 -11 -26 -10 -30 3 -14 -12 -127 -23
-163 -5 -19 -11 -48 -13 -65 -1 -16 -21 -69 -44 -116 -23 -47 -42 -97 -42
-111 0 -16 -13 -36 -40 -58 -22 -18 -40 -39 -40 -46 0 -7 -3 -14 -7 -16 -5 -2
-28 -28 -53 -58 -25 -30 -49 -58 -54 -62 -5 -3 -9 -20 -9 -36 0 -22 -4 -29
-15 -25 -7 3 -24 -5 -37 -18 -33 -33 -53 -49 -61 -49 -4 0 -22 -11 -40 -25
-18 -14 -36 -25 -39 -25 -4 0 -16 -11 -27 -25 -15 -20 -25 -24 -45 -19 -18 5
-24 3 -19 -5 4 -6 1 -11 -7 -11 -20 0 -13 -78 8 -100 31 -30 166 -15 212 24
15 13 40 26 56 30 15 3 27 11 27 17 0 16 51 59 71 59 19 0 64 72 52 84 -4 3 3
6 14 6 20 0 73 51 73 70 0 5 19 28 43 52 23 24 55 64 71 88 17 25 39 55 49 67
11 12 16 26 12 32 -3 6 -2 11 2 11 9 0 33 57 32 73 0 4 7 19 16 33 26 41 81
254 71 279 -2 7 -2 16 2 20 3 3 7 20 9 38 1 18 5 55 8 82 15 129 24 242 30
355 1 36 6 108 9 160 4 52 8 127 10 167 2 39 7 77 12 84 4 7 8 22 9 33 1 12 5
59 9 106 4 47 9 92 11 100 2 8 7 48 10 89 3 41 8 78 11 83 13 21 21 229 11
301 -5 36 -5 37 26 38 18 1 41 0 51 -1 31 -3 176 23 176 31 0 5 7 6 15 2 18
-6 119 23 138 41 7 6 24 17 40 25 15 8 27 19 27 24 0 15 -54 97 -64 97 -5 0
-16 9 -26 20 -9 11 -20 17 -23 14z"/>
<path d="M1536 3154 c-7 -25 -8 -26 -26 -9 -19 17 -20 17 -30 -11 -6 -16 -15
-41 -21 -56 -6 -15 -8 -32 -3 -39 4 -8 3 -10 -4 -5 -7 4 -15 -9 -22 -36 -7
-23 -23 -56 -36 -73 -13 -18 -24 -38 -24 -46 0 -8 -4 -19 -9 -24 -17 -18 -61
-104 -61 -119 0 -15 -27 -67 -59 -116 -9 -14 -27 -47 -39 -75 -13 -27 -27 -57
-32 -65 -6 -8 -16 -29 -24 -46 -8 -17 -19 -35 -26 -39 -9 -6 -9 -10 1 -16 11
-7 10 -9 -3 -9 -9 0 -23 -11 -30 -24 -43 -79 -57 -110 -51 -119 3 -6 2 -7 -4
-4 -13 8 -41 -26 -70 -87 -31 -66 -45 -89 -60 -99 -7 -4 -13 -13 -13 -18 0 -6
-8 -21 -17 -34 -10 -12 -25 -33 -33 -45 -8 -13 -27 -37 -41 -54 -15 -17 -29
-40 -33 -51 -7 -23 -43 -48 -56 -40 -13 8 -13 35 0 35 7 0 7 7 -1 21 -6 12 -9
30 -6 40 3 11 -1 25 -8 32 -7 8 -11 25 -8 40 3 17 1 27 -7 27 -8 0 -9 10 -5
28 4 20 0 35 -14 51 -16 18 -18 26 -8 41 8 14 8 24 0 42 -12 24 -22 87 -26
169 -1 26 -8 54 -16 62 -7 9 -10 21 -7 26 8 13 -20 149 -34 166 -6 7 -11 28
-10 46 0 38 -3 64 -15 129 -5 25 -8 49 -7 53 1 4 -4 15 -13 23 -9 10 -15 34
-15 63 0 26 -3 51 -7 55 -4 3 -7 21 -7 39 -1 23 -6 33 -21 35 -11 3 -24 11
-29 19 -7 13 -10 13 -17 2 -7 -11 -9 -11 -9 2 0 9 -8 25 -18 36 -26 31 -94 16
-102 -22 -2 -5 -5 -16 -7 -23 -3 -6 2 -23 11 -37 9 -14 13 -25 9 -25 -5 0 -2
-4 6 -9 12 -8 12 -12 -2 -26 -21 -20 -21 -19 -2 -54 8 -16 16 -48 19 -72 6
-62 35 -230 42 -241 5 -8 27 -141 40 -243 2 -22 9 -51 13 -65 5 -14 10 -32 10
-40 4 -55 14 -110 20 -110 3 0 7 -12 8 -27 8 -97 12 -125 19 -150 4 -15 8 -31
9 -35 2 -5 4 -11 5 -15 1 -5 3 -12 4 -18 4 -30 19 -55 31 -55 9 0 12 -6 9 -15
-4 -8 -1 -15 6 -15 7 0 9 -8 5 -20 -7 -22 14 -50 38 -50 8 0 17 -6 20 -14 7
-19 -3 -98 -15 -113 -5 -7 -7 -17 -3 -22 3 -6 2 -19 -3 -28 -6 -10 -13 -52
-17 -93 -3 -41 -14 -98 -24 -126 -9 -28 -17 -64 -16 -80 0 -16 -3 -32 -8 -35
-5 -3 -11 -34 -13 -69 -3 -35 -9 -71 -14 -81 -5 -9 -15 -50 -21 -90 -6 -41
-22 -112 -36 -159 -32 -110 -32 -113 -40 -190 -3 -36 -9 -69 -13 -75 -11 -15
-28 -112 -29 -170 -1 -54 25 -111 57 -122 9 -4 21 -13 25 -20 7 -11 14 -10 38
4 39 23 60 56 66 105 2 22 11 51 19 63 9 13 13 37 11 59 -2 20 1 44 8 53 7 9
10 23 8 31 -5 12 -1 31 27 127 5 17 11 41 14 55 3 14 14 52 24 85 11 37 16 68
11 80 -11 28 -11 47 0 41 13 -8 31 72 28 126 -1 25 2 46 7 45 5 -1 10 9 13 23
2 14 5 34 7 45 2 11 6 27 9 35 3 8 10 42 16 75 6 33 14 74 17 90 4 17 6 41 6
55 0 52 32 145 63 181 39 44 115 146 115 154 0 4 14 18 31 32 16 14 28 31 25
38 -2 7 4 19 15 28 10 9 19 23 19 30 0 8 15 34 32 58 18 24 39 55 48 69 53 89
86 142 121 195 21 33 51 86 67 117 15 32 33 58 40 58 6 0 12 10 12 23 0 12 7
35 15 51 8 15 15 34 15 42 0 7 6 17 14 21 13 8 56 76 75 120 5 11 15 24 20 28
6 3 11 17 11 29 0 13 11 39 24 59 13 19 27 46 31 58 5 13 15 35 24 49 20 30
41 89 41 116 0 11 4 24 9 30 21 23 20 60 -3 85 -13 14 -26 31 -30 39 -3 8 -4
5 -2 -7 7 -36 -9 -27 -30 17 -22 47 -29 49 -38 14z"/>
<path d="M12386 3121 c-11 -12 -27 -21 -37 -21 -10 0 -20 -4 -23 -9 -3 -4 -16
-6 -30 -4 -13 3 -27 0 -30 -6 -4 -6 -20 -11 -37 -11 -16 0 -29 -5 -29 -12 0
-9 -3 -9 -9 1 -7 11 -15 12 -38 3 -15 -5 -52 -10 -81 -11 -37 0 -60 -6 -78
-20 -31 -24 -113 -39 -124 -22 -5 9 -16 9 -46 -2 -22 -7 -59 -12 -82 -11 -23
1 -42 -2 -42 -7 0 -4 -7 -5 -17 -2 -11 4 -14 3 -9 -5 9 -15 -18 -16 -46 -1
-15 8 -22 8 -28 -1 -6 -9 -9 -9 -15 0 -6 9 -13 6 -26 -11 -16 -20 -20 -22 -28
-9 -6 8 -13 11 -17 7 -4 -4 -14 -2 -21 5 -11 9 -16 9 -22 0 -4 -7 -43 -13 -97
-16 -87 -3 -134 -18 -134 -41 0 -5 13 -24 29 -41 29 -32 75 -47 151 -50 46 -1
91 -14 85 -24 -3 -5 -1 -10 4 -12 5 -1 1 -21 -10 -42 -10 -22 -19 -48 -19 -58
0 -10 -6 -18 -12 -18 -13 0 -58 -93 -58 -118 0 -7 -4 -20 -9 -30 -31 -57 -67
-150 -65 -165 1 -9 -1 -17 -4 -17 -4 0 -13 -15 -20 -32 -7 -18 -20 -48 -28
-66 -8 -18 -14 -42 -14 -54 0 -12 -11 -50 -25 -85 -14 -35 -23 -67 -21 -72 3
-5 -1 -22 -9 -38 -8 -16 -17 -40 -19 -54 -2 -13 -5 -26 -6 -29 -2 -3 -2 -8 -1
-13 1 -4 -7 -40 -18 -80 -16 -63 -26 -114 -37 -192 -1 -11 -3 -42 -5 -70 -1
-27 -6 -56 -11 -62 -6 -7 -12 -30 -13 -50 -2 -21 -11 -63 -20 -93 -9 -30 -18
-84 -21 -119 -2 -36 -11 -75 -19 -88 -9 -13 -13 -28 -10 -34 4 -5 2 -15 -3
-22 -5 -7 -13 -25 -17 -42 -5 -16 -10 -37 -13 -45 -2 -8 -5 -34 -7 -56 -1 -23
-8 -57 -14 -75 -17 -52 -19 -194 -4 -215 10 -14 13 -14 14 -3 0 8 4 5 9 -7 14
-36 146 -56 190 -29 6 3 10 -2 10 -11 0 -16 1 -16 19 0 14 13 40 17 110 19 50
1 91 6 91 10 0 5 30 8 68 8 106 -1 253 6 295 14 29 6 42 3 57 -10 11 -10 20
-14 20 -9 0 5 32 10 71 11 40 1 78 8 87 15 14 11 15 10 8 -7 -6 -16 -5 -18 5
-7 15 14 55 16 64 2 15 -25 115 -1 115 27 0 8 5 11 12 7 7 -5 9 -2 5 9 -3 9 1
18 11 22 16 6 16 7 0 16 -10 6 -18 18 -18 29 0 18 -23 30 -65 35 -11 1 -24 3
-29 4 -4 0 -6 8 -2 16 6 17 -9 21 -19 5 -4 -6 -12 -10 -18 -8 -7 1 -28 -3 -48
-9 -46 -14 -86 -9 -110 13 -17 16 -20 16 -44 0 -21 -14 -33 -15 -56 -7 -22 7
-29 7 -29 -2 0 -18 -90 -13 -101 4 -7 11 -13 11 -37 -3 -29 -17 -30 -17 -37 5
l-8 22 -4 -21 c-4 -20 -7 -21 -34 -11 -22 9 -34 9 -49 -1 -11 -6 -43 -12 -71
-12 -31 0 -56 -6 -65 -15 -8 -8 -20 -12 -27 -10 -7 3 -33 6 -58 8 -25 2 -51 7
-57 11 -6 4 -22 0 -36 -9 -30 -20 -37 -10 -35 47 1 24 -1 54 -6 67 -4 14 -3
21 2 18 12 -8 45 106 37 126 -3 8 -1 18 5 22 6 3 11 16 11 29 0 12 4 26 9 32
6 5 12 32 15 59 3 28 12 77 21 110 9 33 17 83 18 110 1 28 5 55 9 61 10 16 24
112 27 182 1 21 10 41 25 56 22 20 34 22 118 21 65 -1 100 3 117 13 30 18 109
26 125 13 15 -13 164 -5 182 10 8 7 17 9 21 5 3 -3 1 -6 -5 -6 -7 0 -12 -4
-12 -8 0 -11 61 -10 78 1 6 5 16 6 21 2 19 -11 129 -15 155 -5 17 6 26 6 26 0
0 -6 5 -10 11 -10 5 0 8 4 5 9 -6 9 18 23 43 25 27 2 22 66 -5 66 -8 0 -14 5
-14 11 0 5 -5 7 -12 3 -7 -4 -8 -3 -4 4 9 14 -18 28 -74 36 -24 4 -48 12 -53
19 -7 9 -10 9 -14 0 -3 -8 -25 -13 -58 -13 -29 0 -55 -4 -57 -10 -2 -6 -14 -4
-30 5 -16 7 -28 10 -28 5 0 -11 -81 -5 -89 7 -8 11 -71 14 -71 4 0 -4 -22 -6
-50 -5 -27 2 -52 -1 -55 -6 -4 -6 -18 -4 -35 5 -38 20 -77 19 -88 -2 -6 -9
-16 -14 -25 -10 -9 3 -20 0 -24 -8 -7 -12 -14 -10 -37 9 -20 15 -27 27 -21 36
5 7 9 26 10 42 2 15 8 35 15 43 6 8 13 26 15 41 1 14 8 30 15 34 8 5 10 17 6
34 -3 14 -2 26 2 26 10 0 57 119 54 136 -1 6 5 17 13 24 8 7 15 22 15 34 0 12
4 26 8 32 12 12 36 96 33 112 -1 6 3 12 9 12 5 0 10 7 10 16 0 8 6 22 14 29
12 13 31 89 27 109 -1 4 3 14 9 21 7 9 6 16 -5 25 -8 7 -15 23 -15 35 0 13 -7
25 -15 29 -17 6 -21 36 -5 36 6 0 8 12 5 28 -5 24 -4 25 6 6 7 -14 20 -21 40
-21 16 0 29 4 29 8 0 4 24 8 53 7 76 -1 157 10 173 23 8 6 14 8 14 3 0 -4 6 0
13 9 16 22 88 27 104 7 10 -13 14 -12 31 3 13 12 22 15 27 8 7 -13 57 -3 67
13 4 6 39 11 80 12 40 0 82 3 93 7 11 3 23 6 28 6 4 1 7 8 7 17 0 10 8 15 23
14 43 -4 57 0 57 16 0 13 3 14 14 4 11 -8 20 -9 33 -1 10 5 16 11 15 13 -2 2
2 15 8 30 11 23 10 31 -4 53 -9 14 -21 23 -26 20 -6 -4 -10 -2 -10 4 0 11 -39
26 -58 22 -7 -1 -16 8 -20 19 l-8 21 -18 -20z"/>
<path d="M5457 3113 c-3 -5 -8 -26 -12 -48 -4 -22 -11 -44 -15 -50 -7 -9 -30
-132 -33 -180 -1 -11 -5 -23 -10 -26 -4 -3 -10 -25 -13 -50 -3 -24 -10 -48
-14 -54 -11 -16 -31 -105 -25 -115 3 -5 -1 -26 -9 -47 -16 -44 -34 -123 -41
-173 -2 -19 -11 -61 -20 -93 -8 -32 -15 -67 -15 -79 0 -11 -6 -41 -14 -67 -8
-25 -24 -93 -35 -151 -21 -104 -68 -321 -77 -350 -38 -132 -47 -171 -48 -202
-1 -20 -6 -42 -13 -49 -6 -6 -9 -18 -6 -25 3 -8 -2 -32 -11 -55 -9 -22 -16
-55 -14 -72 1 -18 -3 -41 -9 -52 -9 -17 -26 -112 -28 -155 0 -8 -4 -21 -9 -28
-4 -7 -5 -28 -2 -46 5 -24 2 -35 -7 -39 -13 -5 -23 -86 -19 -157 5 -111 11
-138 36 -177 20 -30 25 -47 20 -67 -16 -64 45 2 91 99 37 78 47 117 50 191 1
28 5 56 9 63 5 7 5 15 2 18 -3 3 -1 12 5 19 6 8 9 20 6 27 -5 14 14 102 26
113 4 4 7 24 7 45 0 21 5 50 11 66 6 15 12 50 14 78 2 27 11 70 19 94 9 24 19
64 22 90 7 66 9 72 26 111 14 32 34 125 30 143 -1 4 2 7 8 7 9 0 27 89 24 118
-1 6 2 12 6 12 10 0 30 81 30 124 0 19 5 38 11 41 6 4 8 13 5 21 -3 7 1 37 9
66 7 29 17 76 21 103 4 28 12 53 18 58 8 5 6 10 -4 17 -12 7 -12 12 -2 22 6 6
12 22 12 33 0 12 6 35 14 51 8 16 22 76 31 134 9 58 19 120 22 138 3 17 7 32
10 32 9 0 33 -29 31 -37 -3 -15 23 -93 32 -93 4 0 14 -17 21 -37 6 -21 14 -42
18 -48 3 -5 6 -14 6 -19 0 -5 9 -12 19 -16 14 -5 16 -9 7 -14 -15 -10 4 -36
25 -36 17 0 18 -12 2 -29 -11 -10 -10 -14 5 -22 9 -6 17 -15 17 -21 0 -6 7
-20 17 -30 11 -13 12 -18 3 -18 -9 0 -9 -4 -2 -13 6 -7 16 -35 23 -62 7 -27
18 -61 26 -75 7 -14 13 -34 13 -45 0 -12 5 -26 10 -31 6 -6 13 -34 17 -63 4
-36 14 -62 30 -79 17 -18 22 -33 18 -49 -3 -13 3 -37 15 -58 11 -20 18 -40 15
-45 -3 -5 -1 -11 5 -15 5 -3 10 -15 10 -26 0 -24 32 -99 43 -99 4 0 6 -4 3 -9
-3 -5 1 -25 9 -44 8 -19 12 -37 9 -40 -6 -6 -1 -23 41 -146 14 -41 25 -86 25
-101 0 -14 7 -50 16 -80 15 -53 32 -136 39 -190 2 -14 4 -25 5 -25 2 0 4 -9 5
-20 1 -11 10 -54 20 -95 9 -41 19 -85 20 -97 2 -12 8 -38 15 -58 7 -20 9 -51
6 -68 -3 -18 0 -54 7 -82 13 -48 15 -50 48 -51 19 0 47 -5 62 -12 34 -15 70
-16 62 -2 -3 5 3 10 13 10 28 0 34 23 33 112 -2 71 1 84 39 163 22 47 39 89
36 93 -3 5 1 20 8 34 7 14 16 46 20 72 4 25 11 46 15 46 9 0 37 118 33 134 -2
5 4 16 12 25 8 9 14 30 12 46 -1 17 2 36 7 43 5 7 11 23 12 36 5 45 17 91 27
103 5 7 7 21 3 32 -3 11 1 46 9 78 19 71 59 319 58 353 0 14 7 52 17 85 10 33
19 80 20 105 3 73 3 75 13 86 5 7 14 52 20 100 7 49 16 92 20 95 5 3 8 10 7
15 -1 5 3 23 10 39 13 32 38 181 47 280 2 32 8 62 13 65 5 3 13 31 18 63 9 49
8 59 -6 67 -13 8 -14 11 -2 19 11 7 11 15 1 45 -6 19 -16 38 -21 41 -5 4 -9
14 -9 23 0 27 -16 44 -43 47 -23 3 -30 -5 -63 -73 -34 -71 -51 -127 -58 -193
-1 -14 -6 -31 -10 -37 -4 -7 -2 -12 6 -12 9 0 9 -3 -2 -10 -8 -5 -11 -10 -7
-10 5 0 1 -7 -7 -16 -14 -14 -14 -18 0 -46 8 -16 13 -32 10 -36 -3 -3 -6 1 -6
8 0 11 -3 11 -16 -2 -10 -9 -16 -34 -16 -62 -1 -26 -5 -49 -10 -52 -4 -3 -8
-20 -8 -39 0 -19 -4 -37 -10 -40 -14 -9 -13 -68 2 -83 9 -9 8 -12 -5 -12 -11
0 -18 -12 -22 -37 -4 -21 -11 -48 -17 -60 -6 -11 -8 -26 -4 -31 3 -6 2 -13 -4
-17 -6 -4 -8 -10 -5 -15 3 -5 2 -18 -4 -28 -5 -10 -12 -36 -15 -58 -3 -21 -10
-57 -15 -79 -5 -22 -12 -65 -15 -95 -3 -30 -10 -77 -16 -105 -17 -76 -28 -142
-40 -230 -6 -44 -13 -88 -16 -98 -3 -10 1 -20 10 -23 14 -5 13 -8 -4 -23 -16
-13 -60 -157 -74 -241 -1 -8 -7 -33 -13 -55 -6 -22 -11 -48 -12 -57 -2 -38 -5
-48 -12 -48 -10 0 -20 33 -21 70 -1 17 -5 33 -10 36 -4 3 -8 22 -8 43 0 22 -6
44 -15 51 -9 7 -14 27 -13 49 0 20 -4 46 -10 57 -6 12 -8 24 -5 28 3 3 2 6 -3
6 -6 0 -11 17 -12 37 -2 21 -7 42 -12 47 -6 6 -10 20 -10 32 0 12 -7 27 -15
34 -8 7 -12 16 -9 21 9 15 -6 66 -27 90 -10 12 -19 31 -19 42 0 30 -32 127
-42 127 -5 0 -6 5 -3 10 3 6 1 10 -5 10 -7 0 -10 6 -7 13 6 16 -17 107 -38
149 -8 17 -15 40 -15 51 0 17 -27 87 -62 163 -5 11 -8 24 -7 30 4 16 -20 64
-36 70 -8 4 -15 18 -15 34 0 15 -9 35 -21 46 -11 10 -18 26 -16 36 3 10 2 18
-2 18 -12 0 -41 68 -41 95 0 14 -4 25 -9 25 -5 0 -13 15 -16 33 -4 17 -11 34
-14 37 -22 16 -52 82 -46 100 4 13 -3 36 -20 65 -14 25 -23 49 -20 54 3 5 1
12 -4 16 -5 3 -10 13 -9 23 0 40 -23 136 -37 152 -8 9 -15 26 -15 37 0 16 -5
20 -19 16 -15 -4 -20 1 -23 23 -3 24 -8 28 -38 32 -19 2 -38 9 -42 15 -8 13
-55 21 -61 10z m193 -235 c0 -5 -7 -3 -15 6 -8 8 -15 18 -15 22 0 3 7 1 15 -6
8 -7 15 -17 15 -22z m972 -785 c-6 -2 -9 -10 -6 -15 4 -7 2 -8 -5 -4 -13 9 -5
26 12 25 9 0 8 -2 -1 -6z m-1602 -1113 c0 -5 -2 -10 -4 -10 -3 0 -8 5 -11 10
-3 6 -1 10 4 10 6 0 11 -4 11 -10z"/>
<path d="M10791 2971 c-16 -16 -21 -17 -33 -5 -12 12 -17 11 -36 -6 -13 -13
-35 -20 -59 -20 -21 0 -47 -6 -58 -14 -22 -15 -83 -26 -158 -29 -26 -1 -51 -7
-55 -12 -4 -6 -32 -10 -62 -10 -30 0 -58 -4 -62 -10 -5 -7 -14 -6 -27 2 -11 7
-23 9 -26 4 -3 -5 -27 -7 -54 -5 -31 3 -54 -1 -63 -9 -7 -7 -37 -13 -65 -14
-29 -1 -62 -7 -73 -13 -14 -7 -20 -7 -20 0 0 16 -47 12 -54 -5 -3 -8 -10 -15
-16 -15 -6 0 -9 4 -6 8 2 4 -4 8 -15 8 -10 0 -19 -4 -19 -8 0 -4 -3 -7 -7 -6
-5 1 -33 -2 -63 -6 -30 -5 -60 -8 -66 -8 -5 1 -19 -6 -30 -16 -10 -10 -28 -21
-38 -25 -15 -6 -17 -10 -8 -19 9 -9 15 -9 24 0 17 17 28 15 28 -6 0 -22 27
-25 35 -4 5 13 8 12 19 -4 11 -15 25 -18 68 -16 l54 2 -1 -54 c0 -36 -4 -52
-12 -49 -7 3 -11 -11 -11 -42 1 -26 -3 -50 -9 -53 -6 -4 -13 -18 -17 -32 -11
-36 -46 -132 -57 -152 -5 -10 -9 -26 -9 -37 0 -25 -27 -132 -44 -174 -8 -18
-17 -54 -21 -82 -4 -27 -11 -55 -16 -61 -12 -15 -77 -274 -83 -335 -1 -14 -5
-30 -8 -35 -5 -8 -10 -39 -23 -134 -1 -8 -5 -22 -8 -30 -6 -19 -26 -140 -31
-200 -3 -25 -8 -56 -11 -70 -3 -14 -8 -56 -11 -95 -2 -38 -9 -97 -14 -130 -15
-95 -21 -165 -24 -280 -4 -141 3 -205 20 -205 8 0 14 -5 14 -11 0 -6 7 -8 16
-5 10 4 21 0 28 -9 17 -24 88 -31 105 -11 7 9 10 16 5 16 -5 0 2 7 14 16 13 9
21 22 18 30 -3 9 4 16 22 20 15 4 41 17 58 30 17 13 53 28 79 35 25 6 49 18
52 25 3 9 20 14 43 14 21 0 40 5 42 11 2 5 30 14 63 20 128 20 140 22 146 30
3 5 18 5 35 0 35 -10 92 -7 193 8 41 6 76 9 79 7 2 -3 11 1 18 9 10 9 23 11
42 6 37 -11 57 -4 41 15 -10 12 -6 13 20 8 28 -6 44 7 24 19 -5 2 -2 2 5 0 19
-4 52 15 51 30 0 9 -2 9 -6 0 -7 -18 -20 -16 -20 2 0 8 4 15 9 15 22 0 4 22
-33 39 -31 15 -46 18 -60 10 -16 -8 -19 -6 -19 11 0 24 -17 26 -46 5 -12 -8
-24 -12 -27 -8 -4 3 -13 0 -22 -7 -10 -8 -30 -11 -60 -7 -28 4 -53 2 -70 -7
-18 -9 -56 -13 -121 -11 -80 2 -98 0 -112 -14 -27 -28 -53 -33 -72 -16 -16 14
-21 14 -59 -1 -23 -9 -52 -13 -65 -10 -16 4 -30 0 -41 -10 -9 -9 -19 -14 -22
-10 -3 3 -12 -2 -18 -11 -11 -14 -16 -15 -28 -4 -13 10 -21 9 -47 -4 -17 -9
-35 -13 -40 -10 -5 3 -16 -5 -24 -17 -15 -21 -16 -21 -17 -3 -3 75 14 305 24
322 4 6 6 40 6 76 -1 35 3 73 9 83 5 11 7 25 5 32 -3 7 0 19 6 26 7 8 13 36
14 62 2 27 8 58 15 70 6 11 11 29 11 40 0 10 4 37 10 59 6 22 11 56 11 75 0
19 7 44 16 55 12 16 18 18 34 7 11 -7 20 -9 20 -4 0 4 17 8 38 9 20 1 46 4 57
6 11 2 23 -1 27 -7 4 -7 14 -4 26 8 19 17 20 17 27 -4 5 -15 10 -18 18 -11 14
11 118 31 129 25 3 -2 8 0 10 6 2 6 16 6 40 -2 20 -6 44 -7 55 -3 10 5 21 7
26 7 4 -1 7 3 7 8 0 6 -5 10 -12 10 -6 0 -8 3 -5 6 4 4 13 1 22 -6 11 -9 22
-9 45 -2 19 7 30 7 30 1 0 -6 14 -7 38 -3 20 4 48 9 62 10 14 1 25 2 25 4 0 1
22 3 50 6 30 2 61 -2 79 -11 23 -12 32 -12 43 -3 8 6 24 13 35 13 28 2 59 44
56 75 -3 29 -28 44 -89 54 -27 4 -50 15 -61 28 -13 18 -19 20 -30 10 -8 -6
-18 -9 -21 -5 -4 3 -12 1 -19 -4 -18 -14 -67 -22 -74 -12 -8 13 -42 11 -46 -3
-3 -7 -31 -13 -73 -14 -39 -1 -71 -7 -73 -13 -2 -7 -14 -5 -34 5 -17 9 -33 12
-37 7 -11 -17 -42 -23 -62 -13 -14 8 -19 7 -19 -2 0 -10 -2 -10 -9 0 -6 11
-13 8 -28 -12 -11 -14 -24 -21 -29 -17 -5 5 -29 12 -54 15 -25 3 -39 3 -32 0
25 -12 1 -22 -44 -18 -37 4 -48 1 -63 -17 -14 -18 -21 -20 -38 -11 -11 6 -23
8 -27 5 -3 -3 -6 5 -6 19 0 14 6 31 14 37 8 7 12 21 9 32 -3 11 -1 30 5 42 18
38 25 61 38 117 22 97 69 265 78 278 4 7 5 16 2 19 -3 4 0 16 8 27 7 12 12 32
11 46 -1 14 3 31 9 39 8 11 8 13 -1 7 -18 -10 -16 9 2 24 9 7 13 21 10 31 -4
10 0 28 9 40 10 15 13 34 8 68 -10 70 -7 120 6 133 14 14 91 12 108 -3 7 -6
41 -8 81 -4 37 3 89 6 116 6 26 0 47 5 47 10 0 11 51 9 67 -3 7 -5 26 -3 48 7
21 8 52 15 69 15 17 0 43 8 56 17 14 10 26 17 28 15 1 -1 18 -2 37 -2 28 0 38
5 45 23 5 12 9 16 9 10 1 -7 11 -13 24 -13 34 0 67 11 61 21 -6 10 24 18 81
21 22 2 40 8 39 13 0 16 20 33 34 28 8 -4 10 0 4 13 -19 45 -48 84 -63 84 -9
0 -20 7 -23 16 -3 8 -10 13 -15 9 -5 -3 -12 -1 -16 5 -9 15 -23 12 -44 -9z
m-974 -573 c-3 -8 -6 -5 -6 6 -1 11 2 17 5 13 3 -3 4 -12 1 -19z"/>
<path d="M4714 2972 c-12 -2 -27 -15 -35 -30 -8 -15 -16 -29 -19 -32 -3 -3
-12 -25 -19 -50 -7 -25 -17 -56 -22 -70 -11 -35 -23 -112 -20 -132 1 -9 -3
-36 -10 -60 -6 -24 -13 -61 -15 -83 -2 -22 -5 -61 -7 -86 -3 -26 -8 -52 -12
-58 -4 -7 -2 -18 4 -25 7 -9 6 -19 -5 -35 -11 -14 -14 -34 -11 -55 3 -18 -1
-42 -9 -56 -7 -14 -13 -36 -14 -50 0 -15 -4 -30 -9 -35 -5 -6 -12 -41 -14 -80
-3 -38 -12 -103 -21 -144 -9 -44 -12 -80 -7 -90 5 -9 4 -26 -2 -41 -5 -14 -11
-41 -12 -61 -1 -19 -6 -42 -10 -50 -5 -8 -8 -25 -7 -40 2 -14 -4 -47 -13 -74
-10 -27 -17 -65 -17 -84 0 -20 -4 -41 -10 -48 -5 -7 -12 -32 -14 -55 -5 -57
-15 -101 -24 -113 -5 -5 -10 -23 -13 -40 -3 -16 -10 -43 -16 -59 -7 -16 -13
-51 -14 -77 -1 -26 -3 -46 -6 -43 -20 20 -82 -291 -96 -488 -6 -79 -5 -88 15
-108 11 -11 25 -18 30 -15 5 3 7 0 4 -8 -2 -7 1 -14 8 -14 7 0 25 -3 39 -6 18
-5 32 0 53 18 18 15 24 25 15 26 -8 0 -3 5 10 10 19 8 22 14 18 39 -4 16 -2
32 2 35 12 7 19 75 9 81 -5 3 -4 12 2 20 7 7 10 19 7 26 -2 7 0 27 5 43 15 52
38 179 38 212 0 17 5 35 10 38 6 3 10 16 10 28 0 13 6 31 13 42 7 11 14 36 15
55 2 19 9 48 18 64 15 30 51 186 60 260 3 22 12 55 19 73 10 23 11 33 2 33 -8
0 -8 3 0 11 6 6 9 17 7 24 -3 7 2 38 11 69 9 32 14 64 11 73 -4 9 -2 30 3 47
16 49 23 88 22 123 -1 17 3 51 9 75 24 95 27 117 16 121 -7 2 -7 12 3 33 7 16
15 40 16 54 2 14 7 48 11 75 4 28 8 66 8 85 1 19 5 41 9 48 5 7 6 25 3 40 -5
20 -4 23 4 12 5 -8 10 -10 11 -5 0 6 3 21 5 35 2 14 6 52 9 85 3 33 12 94 21
135 15 71 30 158 40 227 2 17 0 34 -6 38 -6 4 -8 11 -4 16 8 14 -15 39 -35 39
-10 0 -26 8 -37 18 -10 9 -28 16 -40 14z"/>
<path d="M8820 2971 c0 -5 -12 -23 -26 -40 -14 -17 -23 -35 -19 -40 3 -6 -3
-15 -14 -20 -11 -6 -23 -21 -27 -33 -6 -23 -33 -84 -84 -193 -16 -34 -32 -73
-35 -88 -4 -15 -11 -30 -16 -33 -5 -3 -9 -15 -9 -28 0 -13 -13 -47 -30 -77
-16 -30 -30 -60 -30 -68 0 -8 -7 -23 -16 -33 -18 -20 -28 -98 -13 -98 6 0 7
-5 4 -10 -4 -6 -11 -8 -16 -5 -5 4 -9 -1 -9 -9 0 -9 -4 -16 -9 -16 -9 0 -34
-79 -37 -116 0 -12 -8 -32 -17 -45 -10 -13 -17 -33 -17 -46 0 -12 -4 -24 -9
-27 -9 -6 -25 -64 -22 -83 1 -7 -5 -23 -13 -35 -15 -23 -34 -94 -42 -153 -2
-16 -7 -39 -11 -50 -4 -11 -8 -27 -9 -35 -1 -8 -7 -30 -13 -49 -6 -19 -8 -38
-4 -44 3 -5 0 -13 -7 -17 -7 -4 -15 -34 -17 -66 -2 -33 -10 -96 -17 -142 -7
-45 -11 -84 -7 -86 11 -7 5 -64 -8 -80 -7 -8 -10 -20 -6 -26 4 -7 -2 -18 -14
-26 -12 -9 -19 -19 -17 -23 3 -4 -2 -36 -11 -72 -8 -35 -17 -75 -18 -89 -2
-14 -7 -43 -11 -65 -4 -22 -7 -77 -6 -122 0 -46 -4 -85 -8 -88 -11 -7 -3 -31
23 -68 15 -22 22 -26 28 -15 6 9 9 9 9 1 0 -7 21 -15 50 -19 28 -4 53 -11 56
-15 8 -14 34 -10 34 5 0 8 6 13 13 13 33 -3 109 17 114 30 4 10 14 12 30 8 16
-4 25 -1 29 10 3 8 10 12 15 9 5 -3 14 -2 21 2 6 4 45 9 87 12 42 2 78 7 81
11 3 4 21 6 40 5 19 0 47 2 61 6 15 4 32 4 39 0 7 -4 24 -2 38 6 18 9 30 10
38 3 8 -7 14 -7 18 0 4 5 26 13 51 17 51 7 71 25 57 50 -11 19 -136 66 -157
57 -8 -3 -15 -1 -15 4 0 5 -30 10 -67 11 -37 2 -72 7 -79 13 -8 7 -14 6 -19
-1 -4 -7 -21 -10 -39 -7 -17 2 -39 0 -50 -5 -13 -7 -21 -7 -26 1 -5 9 -10 8
-18 -1 -6 -8 -26 -15 -44 -16 -18 -2 -47 -11 -65 -22 -25 -15 -39 -17 -57 -10
-18 6 -28 5 -36 -6 -17 -19 -50 -18 -50 2 0 14 -3 14 -17 3 -15 -11 -16 -11
-5 1 6 8 12 24 12 36 0 13 5 26 11 30 7 4 9 21 6 40 -4 21 1 49 10 72 9 20 22
64 29 97 8 33 16 69 19 80 4 11 8 49 11 85 10 113 11 119 22 133 13 15 11 69
-2 79 -6 4 -6 12 1 20 16 20 32 78 35 123 1 22 5 47 9 55 20 43 36 109 55 215
3 17 11 44 19 60 42 96 87 226 82 238 -3 8 1 27 10 43 8 16 23 62 34 103 10
41 25 82 32 90 8 9 24 41 37 71 12 30 29 64 36 75 8 11 14 27 14 36 0 9 7 30
15 45 8 16 12 37 9 47 -3 10 1 19 10 23 9 3 16 12 16 20 0 8 5 14 10 14 6 0
10 6 10 14 0 17 50 129 62 137 12 8 16 71 6 99 -6 16 -6 26 1 28 35 12 -25 71
-78 78 -23 3 -41 1 -41 -5z"/>
<path d="M1936 2962 c-18 -2 -30 -11 -33 -23 -3 -10 -9 -19 -14 -19 -5 0 -14
-12 -20 -27 -5 -16 -19 -48 -31 -71 -11 -24 -23 -64 -26 -88 -2 -25 -9 -47
-13 -50 -5 -3 -9 -15 -9 -28 0 -12 -4 -26 -9 -31 -12 -14 -33 -104 -26 -116 4
-5 2 -9 -3 -9 -4 0 -16 -28 -27 -62 -10 -35 -21 -67 -26 -73 -10 -14 -30 -126
-23 -136 3 -5 -2 -12 -10 -15 -9 -3 -16 -17 -16 -30 0 -13 -8 -38 -19 -56 -10
-19 -17 -47 -15 -63 2 -16 -3 -40 -12 -52 -8 -12 -16 -50 -19 -83 -2 -32 -9
-69 -15 -80 -8 -16 -8 -25 0 -35 8 -10 8 -14 -1 -17 -6 -2 -12 -17 -13 -33 -1
-17 -5 -36 -10 -43 -4 -8 -10 -41 -12 -75 -3 -34 -6 -75 -9 -92 -2 -16 -9 -64
-15 -105 -5 -41 -13 -102 -16 -135 -9 -98 -11 -465 -3 -530 4 -33 13 -103 20
-155 6 -52 18 -107 25 -121 7 -15 10 -29 7 -33 -3 -3 3 -25 15 -48 12 -24 23
-51 26 -61 3 -10 10 -15 16 -12 5 3 10 1 10 -4 0 -20 35 -51 57 -51 13 0 23
-4 23 -8 0 -19 66 -39 115 -35 50 4 58 4 125 2 36 -2 140 45 140 62 0 5 4 8 9
7 14 -5 151 130 151 149 0 4 14 21 30 38 17 17 32 42 35 55 2 12 11 30 20 40
8 9 15 24 15 34 0 9 4 15 9 11 5 -3 15 12 21 32 7 21 16 43 20 48 10 14 50
141 50 160 0 8 13 48 29 88 16 39 37 108 46 152 10 44 21 85 25 90 5 6 11 32
15 58 4 26 13 54 21 61 7 8 16 37 20 65 4 28 11 54 15 57 5 3 9 16 9 30 0 13
4 32 10 42 16 28 40 124 34 134 -3 5 1 19 9 32 19 28 40 131 35 171 -2 17 3
35 10 41 8 5 15 26 17 45 4 36 11 81 20 127 3 15 8 45 11 66 3 22 9 47 14 56
5 9 11 47 14 85 3 38 10 71 16 75 5 3 9 36 8 72 -2 41 2 72 10 81 7 8 12 19
11 23 -1 5 0 16 3 24 4 8 13 58 20 110 11 68 12 97 4 103 -7 5 -5 12 8 22 11
8 17 15 13 15 -4 0 -3 9 3 20 6 11 8 36 4 55 -5 27 -15 38 -45 55 -43 22 -69
26 -69 10 0 -5 -8 -10 -19 -10 -17 0 -51 -52 -51 -78 0 -6 -5 -12 -12 -14 -7
-3 -9 -12 -5 -22 4 -10 12 -14 18 -10 19 12 -2 -19 -24 -35 -13 -9 -17 -20
-13 -37 4 -15 0 -34 -10 -49 -13 -20 -13 -25 -3 -25 10 0 11 -2 2 -8 -13 -8
-36 -159 -26 -174 3 -6 1 -8 -4 -5 -6 4 -10 -4 -10 -18 0 -13 -6 -52 -12 -87
-7 -35 -13 -74 -15 -88 -1 -14 -5 -32 -9 -40 -7 -20 -28 -133 -33 -190 -3 -25
-12 -64 -21 -87 -8 -23 -12 -50 -9 -59 4 -10 2 -20 -3 -23 -5 -3 -12 -26 -15
-51 -12 -97 -18 -125 -27 -135 -5 -5 -9 -19 -9 -31 0 -13 -4 -25 -9 -29 -6 -3
-10 -13 -10 -23 -1 -31 -7 -61 -14 -68 -4 -4 -7 -18 -7 -30 0 -13 -4 -26 -10
-29 -5 -3 -10 -15 -10 -26 0 -10 -5 -19 -11 -19 -5 0 -8 -4 -4 -9 3 -5 -1 -27
-8 -48 -8 -21 -24 -72 -37 -113 -13 -41 -25 -82 -28 -90 -3 -8 -4 -22 -3 -32
1 -9 -3 -19 -9 -23 -5 -3 -10 -21 -10 -39 0 -17 -5 -37 -11 -43 -6 -6 -12 -24
-13 -40 -2 -15 -8 -41 -15 -58 -7 -16 -19 -45 -27 -63 -8 -18 -14 -37 -14 -43
0 -12 -30 -81 -68 -157 -15 -29 -31 -61 -37 -72 -5 -11 -13 -20 -17 -20 -5 0
-8 -7 -8 -15 0 -8 -5 -15 -10 -15 -6 0 -16 -11 -22 -25 -6 -13 -19 -27 -28
-30 -9 -3 -22 -17 -28 -31 -7 -15 -30 -33 -58 -44 -25 -11 -53 -27 -61 -36
-20 -19 -82 -13 -99 11 -6 8 -19 45 -28 82 -10 38 -21 76 -26 85 -6 10 -7 24
-4 32 3 7 1 31 -5 53 -6 21 -14 70 -17 108 -9 88 -9 83 0 127 3 20 3 39 -2 42
-18 11 9 546 29 571 4 6 7 32 5 58 -1 26 1 50 6 53 4 3 8 10 8 15 0 6 -4 7
-10 4 -5 -3 -10 -1 -10 4 0 6 4 11 9 11 4 0 9 12 10 28 3 60 8 100 16 111 18
30 22 67 9 93 -9 17 -10 29 -4 33 6 3 10 3 10 -1 0 -3 6 -1 14 6 8 6 12 18 10
25 -3 7 -1 22 4 32 5 10 13 40 16 67 4 27 14 58 21 70 8 11 15 32 15 47 0 14
9 34 20 44 13 12 18 25 14 40 -3 14 1 34 11 49 10 14 14 26 10 26 -4 0 -2 6 4
13 6 8 9 16 6 19 -3 3 4 27 16 54 11 27 23 60 25 74 2 14 11 43 19 65 8 22 16
54 18 70 2 17 6 37 10 45 21 53 35 125 27 135 -6 7 -6 15 -2 19 4 4 7 20 8 34
0 15 4 34 7 42 9 20 -67 56 -107 52z m59 -71 c3 -5 1 -12 -5 -16 -5 -3 -10 1
-10 9 0 18 6 21 15 7z m-35 -25 c0 -3 -4 -8 -10 -11 -5 -3 -10 -1 -10 4 0 6 5
11 10 11 6 0 10 -2 10 -4z m-16 -52 c3 -8 2 -12 -4 -9 -6 3 -10 10 -10 16 0
14 7 11 14 -7z"/>
</g>
</svg>
