<?xml version="1.0" standalone="no"?>
<!DOCTYPE svg PUBLIC "-//W3C//DTD SVG 20010904//EN"
 "http://www.w3.org/TR/2001/REC-SVG-20010904/DTD/svg10.dtd">
<svg version="1.0" xmlns="http://www.w3.org/2000/svg"
 width="1281.000000pt" height="341.000000pt" viewBox="0 0 1281.000000 341.000000"
 preserveAspectRatio="xMidYMid meet">

<g transform="translate(0.000000,341.000000) scale(0.100000,-0.100000)"
fill="#000000" stroke="none">
<path d="M4219 3176 c-2 -2 -17 -6 -34 -8 -33 -4 -79 -31 -68 -41 7 -8 -9 -10
-49 -7 -16 1 -30 -5 -36 -16 -9 -16 -11 -16 -23 4 l-13 21 -23 -25 c-13 -14
-28 -22 -33 -19 -6 3 -10 1 -10 -6 0 -11 -15 -9 -54 7 -14 5 -17 4 -12 -4 4
-7 2 -20 -4 -29 -10 -16 -11 -16 -6 -1 6 21 -12 28 -42 17 -14 -6 -31 -5 -43
1 -11 6 -24 8 -30 4 -18 -11 -149 -14 -149 -3 0 5 -13 3 -29 -5 -15 -8 -32
-11 -37 -7 -13 12 -89 22 -98 13 -4 -4 -16 -8 -27 -8 -10 -1 -28 -2 -40 -3
-14 -1 -19 -6 -16 -15 4 -10 0 -12 -14 -9 -10 3 -19 11 -19 18 0 20 -24 24
-44 9 -11 -7 -22 -11 -27 -9 -4 3 -10 1 -13 -4 -8 -12 23 -43 34 -36 5 3 11 1
15 -5 9 -14 -15 -12 -47 4 -16 9 -30 11 -33 5 -8 -13 4 -31 18 -26 6 2 22 -8
35 -22 24 -25 24 -25 18 -3 -7 20 -4 22 28 22 48 0 51 -2 48 -24 -2 -14 3 -17
18 -13 11 3 23 1 26 -4 10 -16 39 -9 53 12 10 18 15 19 22 8 4 -8 19 -15 31
-16 13 -2 43 -5 68 -7 25 -2 45 -5 45 -6 0 -1 14 -3 31 -5 19 -3 36 1 43 9 13
16 51 10 51 -8 0 -6 7 -2 16 9 13 17 16 18 24 5 10 -16 3 -51 -13 -61 -5 -4
-7 -11 -4 -16 4 -6 0 -19 -8 -29 -8 -10 -15 -31 -15 -46 0 -24 4 -28 27 -28
21 0 24 -3 15 -12 -7 -7 -12 -20 -12 -31 0 -10 -4 -15 -10 -12 -5 3 -10 1 -10
-5 0 -6 -6 -8 -12 -5 -7 4 -4 -1 7 -10 20 -16 20 -16 1 -31 -17 -12 -18 -14
-3 -14 21 0 22 -13 3 -29 -8 -7 -15 -20 -15 -29 0 -9 -3 -30 -7 -45 -5 -21 -3
-27 7 -25 8 2 15 -8 18 -22 3 -23 4 -24 12 -5 8 19 8 19 15 -2 3 -13 10 -20
15 -17 18 11 29 -7 18 -28 -9 -16 -8 -19 2 -13 9 6 11 3 6 -8 -3 -10 -2 -17 3
-17 6 0 10 6 10 14 0 7 9 16 20 19 24 6 25 -1 4 -24 -16 -18 -13 -49 4 -49 10
0 31 136 23 148 -11 14 -59 13 -65 -3 -3 -8 -10 -15 -16 -15 -6 0 1 12 15 27
14 16 25 40 25 55 0 19 11 36 38 58 28 23 34 33 23 39 -11 7 -11 9 0 14 8 3 3
6 -11 7 -24 1 -24 1 -5 12 30 16 31 18 15 29 -12 7 -12 11 -3 17 10 6 10 12
-2 28 -20 26 -19 32 7 36 20 3 21 4 5 19 -9 9 -14 19 -11 21 2 3 -2 11 -11 18
-35 29 -8 82 38 73 15 -3 33 0 41 6 8 7 17 8 20 3 8 -14 84 -3 123 18 19 10
44 17 55 15 33 -7 60 13 52 37 -5 16 -3 19 7 12 8 -4 20 -16 28 -27 13 -18 14
-18 37 4 13 12 24 19 24 14 0 -4 8 -1 18 8 10 10 22 14 25 10 4 -3 7 6 7 21 0
21 -4 27 -15 22 -17 -6 -45 19 -45 42 0 10 -3 13 -8 7 -4 -6 -17 -12 -29 -12
-21 -2 -29 11 -24 40 1 8 -3 9 -10 3z m41 -146 c0 -5 -4 -10 -10 -10 -5 0 -10
5 -10 10 0 6 5 10 10 10 6 0 10 -4 10 -10z m-437 -144 c8 -21 -3 -27 -19 -11
-18 17 -18 25 0 25 8 0 16 -6 19 -14z m-38 -77 c11 -17 2 -18 -19 -3 -17 12
-17 14 -4 14 9 0 20 -5 23 -11z m72 -81 c-3 -7 -5 -2 -5 12 0 14 2 19 5 13 2
-7 2 -19 0 -25z m-57 -58 c0 -5 -8 -10 -17 -10 -15 0 -16 2 -3 10 19 12 20 12
20 0z m-10 -70 c0 -5 -2 -10 -4 -10 -3 0 -8 5 -11 10 -3 6 -1 10 4 10 6 0 11
-4 11 -10z m47 -112 c-3 -8 -6 -5 -6 6 -1 11 2 17 5 13 3 -3 4 -12 1 -19z"/>
<path d="M4250 3160 c0 -5 5 -10 11 -10 5 0 7 5 4 10 -3 6 -8 10 -11 10 -2 0
-4 -4 -4 -10z"/>
<path d="M1486 3115 c-3 -9 -6 -22 -5 -28 0 -7 5 -1 10 12 5 13 8 26 5 28 -2
2 -6 -3 -10 -12z"/>
<path d="M1504 3097 c-8 -21 2 -35 16 -21 5 5 6 15 0 24 -8 12 -10 12 -16 -3z"/>
<path d="M1554 3078 c7 -33 -14 -68 -41 -68 -18 0 -16 17 3 28 14 8 13 10 -5
15 -16 4 -21 1 -21 -14 0 -10 -4 -20 -10 -20 -5 -1 -14 -2 -19 -3 -18 -2 -24
-16 -12 -30 9 -11 9 -15 -1 -19 -10 -4 -8 -10 7 -23 13 -11 16 -18 8 -21 -7
-2 -17 -20 -23 -39 -11 -31 -30 -47 -30 -24 0 6 -6 10 -14 10 -9 0 -12 -7 -9
-19 3 -13 -2 -20 -19 -25 -26 -7 -64 -77 -54 -101 3 -9 5 -18 5 -21 0 -4 11
-14 26 -24 18 -12 23 -19 13 -22 -7 -3 -23 1 -35 9 -22 14 -41 3 -28 -17 3 -6
-1 -7 -9 -4 -12 4 -16 0 -16 -15 0 -12 -6 -24 -14 -27 -30 -12 -30 -84 1 -84
8 0 11 -5 7 -12 -5 -7 -1 -9 12 -6 10 3 25 7 33 9 9 3 17 -8 23 -29 8 -31 28
-36 28 -7 0 8 11 25 25 39 28 28 32 46 10 46 -8 0 -15 7 -15 15 0 9 6 12 15 9
20 -8 19 5 -2 28 -13 14 -14 21 -4 31 9 9 13 7 17 -11 4 -12 11 -22 16 -22 6
0 7 -7 4 -16 -3 -8 -2 -12 4 -9 6 3 7 17 4 30 -3 12 -1 26 5 29 6 4 11 0 11
-10 0 -14 3 -14 15 -4 13 11 13 15 3 21 -7 5 -9 9 -4 9 5 0 3 7 -4 15 -12 15
-5 55 11 55 5 0 8 5 6 12 -1 6 9 12 23 12 19 1 25 7 26 24 1 13 -5 22 -14 22
-11 0 -13 8 -9 36 7 40 17 56 24 37 7 -20 22 -15 35 12 6 13 19 27 28 30 10 3
20 15 23 25 6 24 -8 26 -21 4 -8 -15 -10 -15 -15 0 -4 9 -2 16 4 16 6 0 7 5 4
11 -11 16 3 56 19 56 8 0 12 -6 8 -15 -3 -10 -1 -13 6 -8 15 9 16 46 2 46 -5
0 -10 10 -10 21 0 16 -5 20 -20 16 -13 -3 -20 0 -20 9 0 8 -5 14 -11 14 -8 0
-9 -11 -5 -32z m-69 -98 c-3 -5 -1 -10 6 -10 7 0 10 -3 6 -6 -9 -9 -28 6 -22
17 4 5 8 9 11 9 3 0 2 -4 -1 -10z m50 -30 c3 -5 1 -10 -4 -10 -6 0 -11 5 -11
10 0 6 2 10 4 10 3 0 8 -4 11 -10z m-90 -150 c4 -6 16 -10 27 -8 12 2 23 -3
25 -12 4 -12 3 -12 -5 -1 -6 8 -12 10 -16 3 -8 -13 -66 4 -66 19 0 12 27 11
35 -1z m-5 -71 c0 -5 -4 -9 -10 -9 -5 0 -10 7 -10 16 0 8 5 12 10 9 6 -3 10
-10 10 -16z m-113 -131 c-3 -7 -5 -2 -5 12 0 14 2 19 5 13 2 -7 2 -19 0 -25z
m-6 -55 c-9 -16 -10 -14 -11 12 0 21 3 26 11 18 8 -8 8 -16 0 -30z m-60 4
c-13 -13 -26 -3 -16 12 3 6 11 8 17 5 6 -4 6 -10 -1 -17z m103 -8 c-8 -14 -24
-10 -24 6 0 9 6 12 15 9 8 -4 12 -10 9 -15z"/>
<path d="M12372 3094 c-12 -8 -22 -20 -22 -26 0 -7 7 -3 15 8 14 18 14 17 15
-16 0 -19 3 -45 6 -56 4 -17 0 -22 -19 -26 -20 -4 -23 -1 -19 14 2 11 10 17
18 14 10 -4 11 0 2 19 -6 14 -15 25 -19 25 -4 0 -14 3 -23 6 -12 4 -16 0 -16
-16 0 -15 -5 -20 -14 -17 -8 3 -20 0 -26 -8 -12 -15 -44 -9 -34 6 3 5 1 16 -4
26 -9 14 -10 14 -16 -5 -7 -20 -9 -20 -22 -7 -14 13 -19 13 -45 0 -32 -17 -35
-24 -16 -45 10 -12 9 -12 -3 -3 -22 15 -60 23 -60 12 0 -5 10 -9 22 -9 28 0
15 -13 -17 -17 -17 -3 -25 1 -25 12 0 8 -4 15 -10 15 -5 0 -10 -4 -10 -8 0 -5
-7 -9 -15 -9 -8 0 -15 4 -15 9 0 12 -47 10 -83 -5 -36 -15 -67 -12 -67 6 0 9
-2 9 -8 0 -4 -7 -32 -14 -62 -15 -52 -4 -54 -5 -63 -37 -11 -43 7 -67 23 -30
l10 24 -3 -25 c-3 -39 -31 -36 -53 6 -25 48 -70 64 -85 30 -12 -26 -56 -33
-84 -12 -24 17 -50 10 -63 -17 -6 -12 -11 -17 -11 -10 -1 6 -10 9 -23 5 -17
-4 -20 -2 -15 11 5 14 0 17 -22 17 -42 0 -59 -9 -55 -28 2 -9 0 -24 -6 -32 -8
-12 -13 -13 -30 -2 -11 7 -20 8 -20 3 0 -11 25 -32 36 -30 5 1 11 0 14 -1 32
-12 110 -18 110 -8 0 6 10 8 23 5 66 -15 87 -18 85 -10 -2 4 2 8 7 8 6 0 9 -6
8 -14 -1 -9 2 -10 9 -3 6 6 17 8 24 5 8 -3 14 1 14 11 0 9 5 16 11 16 6 0 8 9
3 23 l-6 22 24 -22 c13 -13 32 -23 41 -23 9 0 17 -4 17 -10 0 -5 5 -10 10 -10
6 0 10 7 10 15 0 20 16 19 24 -1 3 -8 10 -12 16 -9 6 3 7 -1 4 -9 -4 -11 0
-16 10 -16 9 0 19 7 22 15 4 9 14 13 28 10 16 -5 24 1 35 25 8 19 19 29 26 26
8 -3 16 0 19 7 3 7 3 2 0 -10 -4 -17 -1 -23 10 -23 18 0 56 35 56 51 0 6 10 0
22 -14 20 -22 23 -23 49 -10 16 8 31 19 35 24 4 6 14 2 25 -10 22 -23 35 -26
44 -11 3 6 15 10 25 10 10 0 20 5 22 12 3 8 9 8 19 2 23 -15 159 -12 159 4 0
7 -4 10 -10 7 -16 -10 -12 5 6 22 13 13 20 14 34 5 15 -9 19 -7 25 11 4 13 8
17 12 10 2 -7 9 -13 14 -13 6 0 7 5 4 10 -3 6 0 10 7 10 7 0 14 11 14 25 2 23
1 24 -19 10 -30 -21 -37 -19 -37 9 0 19 7 26 30 31 38 8 28 29 -11 21 -19 -4
-31 -1 -37 9 -7 13 -11 13 -30 -1z m-117 -114 c3 -5 1 -10 -4 -10 -6 0 -11 5
-11 10 0 6 2 10 4 10 3 0 8 -4 11 -10z m-430 -30 c3 -5 1 -10 -4 -10 -6 0 -11
5 -11 10 0 6 2 10 4 10 3 0 8 -4 11 -10z m246 1 c-8 -5 -20 -7 -28 -4 -21 8
-15 13 15 13 20 0 23 -3 13 -9z m69 -6 c20 -24 6 -28 -15 -5 -10 11 -13 20 -8
20 6 0 16 -7 23 -15z m200 7 c0 -15 -11 -21 -27 -15 -12 5 -12 7 -1 14 17 11
28 11 28 1z m-690 -23 c-7 -11 -14 -18 -17 -15 -8 8 5 36 17 36 7 0 7 -6 0
-21z m150 -41 c0 -4 -4 -8 -10 -8 -5 0 -10 5 -10 11 0 5 -4 7 -10 4 -11 -7
-14 18 -3 29 7 7 33 -21 33 -36z m-302 -18 c11 -18 10 -20 -8 -20 -13 0 -20 7
-20 20 0 11 3 20 8 20 4 0 13 -9 20 -20z m189 14 c-3 -3 -12 -4 -19 -1 -8 3
-5 6 6 6 11 1 17 -2 13 -5z m-247 -13 c0 -6 -4 -13 -10 -16 -5 -3 -10 1 -10 9
0 9 5 16 10 16 6 0 10 -4 10 -9z"/>
<path d="M5458 3077 c-3 -25 19 -57 41 -57 8 0 11 -3 7 -7 -4 -5 -13 -8 -19
-8 -7 0 -13 -8 -15 -19 -3 -11 0 -16 7 -12 7 4 11 -1 11 -13 0 -14 -5 -19 -15
-15 -8 3 -17 0 -19 -7 -16 -53 -17 -54 -27 -39 -8 11 -9 9 -4 -8 4 -13 1 -29
-5 -37 -7 -8 -9 -15 -5 -15 4 0 0 -11 -9 -25 -28 -43 -21 -64 24 -71 44 -7 52
-19 20 -29 -12 -4 -17 -11 -13 -18 10 -16 4 -80 -9 -88 -6 -4 -19 2 -29 12
-21 21 -25 39 -9 39 6 0 10 -4 10 -10 0 -5 4 -10 9 -10 10 0 9 50 -2 67 -4 7
-13 10 -21 7 -13 -5 -16 -16 -18 -76 0 -21 -4 -35 -8 -33 -4 3 -11 -2 -14 -11
-10 -26 -7 -34 12 -27 14 6 15 4 4 -9 -7 -9 -12 -20 -11 -24 5 -28 -3 -52 -19
-57 -25 -6 -33 -41 -16 -64 12 -16 15 -16 24 -3 8 13 10 13 10 -1 0 -23 27
-31 35 -11 5 14 7 14 15 2 24 -38 -7 -51 -46 -20 -16 13 -17 13 -11 -2 3 -10
2 -18 -3 -18 -6 0 -10 6 -10 14 0 17 -18 31 -27 22 -3 -3 0 -12 6 -20 10 -12
9 -22 -3 -48 -8 -18 -15 -49 -14 -69 0 -30 3 -36 18 -32 14 4 20 -3 25 -27 4
-17 5 -34 2 -36 -2 -3 -7 9 -11 26 -6 32 -26 33 -26 2 0 -14 -2 -14 -9 -3 -10
16 -34 4 -27 -14 2 -7 -4 -25 -13 -41 -19 -31 -35 -154 -20 -154 5 0 9 -4 9
-10 0 -5 -7 -10 -15 -10 -8 0 -15 -6 -16 -12 -1 -28 -10 -62 -18 -72 -5 -6
-11 -24 -13 -39 -5 -23 -2 -28 11 -24 9 2 23 -2 30 -10 11 -12 11 -14 0 -12
-8 1 -25 -3 -39 -9 -18 -8 -20 -11 -7 -11 19 -1 23 -17 5 -23 -7 -3 -13 -18
-14 -35 -1 -25 2 -30 17 -26 13 4 19 0 19 -12 0 -17 1 -17 18 -2 23 21 39 21
76 2 23 -12 27 -12 23 -1 -3 8 4 24 15 36 14 14 21 35 20 56 -1 22 4 37 16 43
14 8 15 13 5 30 -7 12 -13 24 -13 28 0 5 4 2 9 -6 11 -18 20 21 23 109 1 36 8
76 15 90 8 16 9 28 3 34 -13 13 -13 29 -1 21 5 -3 13 0 17 6 4 6 -1 16 -10 21
-22 12 -20 45 3 60 15 9 17 15 9 25 -7 9 -7 13 2 13 8 0 10 9 5 28 -4 20 -1
33 10 42 8 7 15 18 15 25 0 8 5 15 12 17 15 5 39 122 26 127 -5 1 -2 8 7 15
20 15 10 45 -15 43 -15 -1 -17 -7 -13 -37 5 -34 5 -34 -10 -14 -12 15 -14 29
-8 50 5 16 12 28 17 27 5 -1 16 -3 24 -5 8 -1 15 4 15 12 0 8 4 21 8 28 5 8 2
12 -8 12 -11 0 -6 9 17 30 18 17 35 30 38 30 16 -1 25 -20 25 -57 1 -30 7 -47
20 -56 10 -8 15 -19 11 -25 -9 -16 7 -15 22 0 7 7 12 8 12 4 0 -5 -8 -15 -17
-22 -11 -8 -13 -13 -5 -14 6 0 12 -5 12 -11 0 -5 -5 -7 -11 -3 -7 4 -10 1 -7
-7 3 -8 13 -13 24 -12 23 3 51 -13 41 -24 -5 -4 -11 -2 -15 4 -5 8 -13 9 -22
3 -13 -8 -13 -10 1 -10 9 0 20 -7 23 -16 3 -8 10 -13 15 -10 5 3 14 -1 21 -9
7 -8 16 -12 21 -9 5 3 5 -5 0 -18 -4 -13 -6 -29 -4 -36 3 -7 0 -18 -5 -25 -13
-15 1 -42 17 -33 19 12 33 -4 19 -22 -10 -12 -10 -16 0 -19 6 -3 12 -13 12
-23 0 -10 8 -26 17 -36 10 -9 16 -31 16 -50 -1 -20 3 -31 9 -28 5 4 4 -4 -2
-17 -7 -13 -9 -21 -5 -17 5 4 14 3 22 -3 7 -6 22 -9 33 -6 23 6 27 -8 7 -20
-8 -4 -17 -29 -20 -55 -5 -39 -4 -48 8 -48 9 0 15 -10 15 -25 0 -13 8 -28 18
-34 13 -7 14 -13 5 -22 -7 -7 -9 -19 -3 -34 6 -14 4 -27 -3 -34 -9 -9 -6 -13
11 -17 12 -4 22 -13 22 -21 0 -8 -4 -11 -10 -8 -5 3 -10 1 -10 -4 0 -6 6 -11
14 -11 21 0 29 -17 31 -70 1 -46 20 -80 44 -80 6 0 11 -4 11 -10 0 -5 7 -10
15 -10 8 0 15 -5 15 -11 0 -5 11 2 25 17 30 33 33 17 4 -20 -17 -21 -27 -26
-45 -22 -20 5 -24 3 -24 -17 0 -13 5 -28 12 -35 9 -9 9 -12 -2 -12 -12 0 -12
-2 -2 -9 8 -4 13 -12 12 -17 -1 -5 9 -11 21 -14 12 -3 25 -12 27 -19 3 -8 0
-11 -6 -7 -12 7 -42 -3 -42 -14 0 -5 8 -16 17 -26 10 -9 19 -34 20 -55 4 -54
33 -118 51 -111 12 4 11 -2 -4 -27 -17 -29 -18 -34 -3 -44 11 -9 15 -25 13
-59 -1 -26 2 -50 7 -53 5 -4 9 -15 9 -26 0 -11 4 -18 8 -15 4 2 9 -12 10 -32
5 -112 14 -157 37 -179 12 -12 26 -19 29 -16 3 4 6 2 6 -4 0 -5 -11 -15 -24
-22 -22 -12 -22 -15 -10 -50 7 -20 11 -61 10 -90 -3 -43 0 -56 17 -72 12 -10
28 -19 37 -19 9 0 25 -7 36 -15 27 -21 67 -18 98 6 22 18 26 27 20 48 -4 14
-6 34 -6 44 0 9 -4 17 -9 17 -6 0 -6 8 1 20 6 11 8 20 5 20 -3 0 -1 8 4 18 7
13 7 22 0 29 -6 6 -5 14 6 23 8 7 15 27 15 45 0 27 5 34 25 39 25 6 34 29 15
41 -15 9 -12 35 5 35 9 0 12 6 9 15 -4 9 0 15 10 15 9 0 16 5 16 10 0 6 -7 10
-16 10 -11 0 -14 6 -8 23 4 12 7 30 6 40 0 10 6 17 17 17 10 0 21 8 25 18 23
64 23 68 5 91 -17 21 -24 17 -21 -10 1 -4 -17 0 -40 8 -23 8 -47 12 -55 9 -18
-7 -16 1 6 25 13 14 24 18 33 13 25 -16 70 -13 75 6 3 12 12 16 29 12 13 -2
24 0 24 6 0 12 -25 33 -32 26 -3 -2 -5 7 -5 20 0 14 3 23 8 20 16 -10 9 26 -9
44 -20 20 -18 52 4 52 8 0 14 5 14 10 0 6 8 10 18 10 28 0 46 16 38 35 -5 14
-9 15 -22 4 -13 -10 -17 -10 -24 1 -12 20 -4 29 20 23 20 -5 21 -2 18 56 -3
46 0 60 9 57 16 -6 17 8 3 34 -8 16 -6 22 15 36 14 9 23 20 20 24 -3 5 0 12 6
15 5 4 8 13 5 21 -3 7 2 30 10 50 14 33 14 36 -1 31 -18 -8 -34 21 -17 32 15
9 2 27 -25 35 -17 6 -23 3 -23 -8 0 -9 -9 -16 -21 -16 -11 0 -18 4 -15 8 3 5
-1 9 -9 9 -8 0 -13 -5 -12 -10 1 -5 -4 -12 -11 -14 -13 -5 -12 22 1 45 5 8 2
12 -9 12 -11 0 -15 -6 -11 -20 3 -10 1 -20 -3 -22 -4 -2 -11 -13 -14 -25 -6
-17 -3 -23 8 -23 9 0 16 -7 16 -15 0 -8 -4 -15 -10 -15 -5 0 -10 5 -10 10 0 6
-5 10 -11 10 -6 0 -8 -9 -4 -20 3 -11 3 -20 -2 -20 -8 0 -33 -111 -33 -149 0
-11 6 -22 13 -24 10 -4 10 -6 0 -6 -7 -1 -13 -6 -13 -12 0 -6 9 -9 20 -6 13 3
18 1 13 -6 -4 -7 0 -8 12 -3 13 4 9 -2 -9 -19 -19 -17 -26 -33 -23 -45 3 -11
1 -23 -4 -26 -16 -10 -9 -24 12 -24 15 0 19 5 14 19 -3 10 1 23 9 30 12 10 15
9 14 -6 0 -10 2 -25 6 -34 4 -9 1 -22 -6 -30 -8 -8 -17 -23 -22 -34 -6 -16 -9
-17 -16 -5 -6 9 -5 17 3 22 15 9 -10 19 -37 14 -32 -5 -49 -66 -18 -66 13 -1
11 -5 -10 -21 -30 -22 -37 -49 -13 -49 17 0 20 -17 4 -22 -12 -4 -17 -31 -21
-104 -2 -36 -4 -40 -15 -25 -10 13 -12 14 -13 1 0 -8 -3 -31 -6 -51 -3 -21 -1
-40 5 -44 17 -10 13 -25 -6 -18 -11 4 -14 3 -9 -5 4 -7 2 -12 -3 -12 -6 0 -11
4 -11 10 0 5 -7 7 -15 4 -16 -6 -21 11 -6 20 4 3 3 21 -3 41 -8 26 -16 35 -33
35 -14 0 -23 6 -23 15 0 8 8 15 18 15 29 0 33 11 12 30 -24 21 -43 68 -33 83
15 24 12 38 -8 32 -16 -5 -19 -1 -19 22 0 19 3 24 9 15 6 -11 9 -10 13 5 6 22
-1 45 -12 38 -4 -3 -14 3 -21 12 -10 11 -10 14 -2 9 9 -5 11 -2 6 9 -4 13 -8
14 -14 4 -11 -18 -23 -4 -15 17 3 9 12 14 19 11 8 -3 13 3 13 14 0 11 -5 19
-11 19 -22 0 -34 22 -23 40 14 22 3 50 -22 57 -24 6 -25 16 -4 49 20 30 10 46
-11 18 -14 -18 -14 -18 -15 4 0 13 -6 22 -15 22 -8 0 -15 5 -15 11 0 5 4 8 9
5 18 -12 18 32 0 48 -12 10 -19 29 -19 51 0 25 -4 35 -16 35 -16 0 -15 19 3
66 4 12 3 15 -5 10 -8 -5 -10 -2 -6 9 8 19 -13 73 -39 103 -11 12 -16 22 -10
22 11 0 8 35 -9 93 -6 20 -17 37 -24 37 -8 0 -11 6 -8 15 4 9 0 15 -10 15 -10
0 -13 6 -10 15 4 8 1 22 -6 30 -7 8 -10 26 -6 40 4 14 2 25 -4 25 -5 0 -10 7
-10 15 0 18 -12 19 -29 3 -10 -11 -11 -8 -6 15 6 21 4 27 -9 27 -9 0 -16 8
-16 20 0 25 -21 70 -32 70 -5 0 -18 9 -30 20 -12 10 -25 17 -29 14 -5 -3 -6 2
-3 10 3 8 15 18 26 22 14 4 17 9 9 14 -7 4 -14 20 -16 36 -1 15 -7 30 -13 32
-6 2 -8 10 -5 19 4 9 -1 21 -12 29 -9 7 -15 20 -12 28 3 8 -5 31 -19 51 -26
40 -30 65 -12 83 9 9 7 12 -11 12 -12 0 -19 -4 -16 -10 3 -5 2 -10 -3 -10 -6
0 -13 7 -16 16 -9 22 -8 24 10 24 13 0 14 2 0 21 -8 12 -12 28 -9 37 4 9 2 13
-4 9 -6 -4 -16 0 -23 8 -7 9 -8 15 -2 15 5 0 12 7 15 14 4 10 1 13 -9 9 -7 -3
-14 0 -14 7 0 7 -7 10 -15 6 -10 -3 -15 1 -15 14 0 10 -7 26 -16 35 -18 18
-13 28 16 30 11 1 20 -4 20 -12 0 -7 5 -13 10 -13 16 0 26 33 12 38 -7 2 -12
11 -12 19 0 12 -4 11 -17 -5 -13 -15 -23 -18 -38 -12 -11 5 -14 9 -7 9 7 1 20
7 27 15 12 12 12 15 -1 20 -8 3 -13 10 -10 15 3 4 -4 19 -15 32 -24 27 -66 28
-87 1 -12 -15 -13 -14 -7 9 5 19 2 28 -9 32 -10 4 -16 -1 -18 -16z m29 -169
c-3 -8 -6 -5 -6 6 -1 11 2 17 5 13 3 -3 4 -12 1 -19z m138 -105 c16 -13 17
-15 3 -10 -10 4 -18 2 -18 -3 0 -6 -4 -10 -10 -10 -5 0 -10 9 -10 20 0 24 8
25 35 3z m16 -60 c-8 -15 -10 -15 -11 -2 0 17 10 32 18 25 2 -3 -1 -13 -7 -23z
m-33 -19 c0 -17 -6 -24 -19 -24 -21 0 -22 4 -13 37 8 28 32 19 32 -13z m53
-37 c-7 -7 -14 -8 -21 -1 -6 6 -2 10 12 11 16 2 18 -1 9 -10z m-191 -89 c0
-19 -2 -20 -10 -8 -13 19 -13 30 0 30 6 0 10 -10 10 -22z m-76 -139 c-13 -15
-19 -17 -26 -7 -12 20 -10 23 18 24 24 2 25 1 8 -17z m383 -31 c-3 -8 -6 -5
-6 6 -1 11 2 17 5 13 3 -3 4 -12 1 -19z m-400 -130 c10 -11 11 -18 4 -22 -6
-4 -11 -2 -11 3 0 6 -7 11 -15 11 -13 0 -19 -16 -17 -40 0 -3 -8 -7 -19 -7
-16 -2 -18 1 -9 12 6 7 7 15 3 17 -4 3 -2 3 5 2 15 -4 15 1 2 26 -9 16 -7 18
16 16 14 -2 32 -10 41 -18z m13 -114 c0 -20 -7 -17 -20 6 -9 16 -8 18 5 14 8
-4 15 -12 15 -20z m-44 -109 c-11 -8 -23 -15 -28 -15 -4 0 -4 -7 -1 -17 4 -11
3 -14 -5 -9 -13 8 -17 50 -4 43 4 -3 16 -1 27 4 30 11 32 10 11 -6z m-56 -24
c0 -6 -4 -12 -8 -15 -5 -3 -9 1 -9 9 0 8 4 15 9 15 4 0 8 -4 8 -9z m4 -47 c9
-24 7 -28 -9 -14 -17 14 -20 30 -6 30 5 0 12 -7 15 -16z m61 -44 c3 -5 1 -10
-4 -10 -6 0 -11 5 -11 10 0 6 2 10 4 10 3 0 8 -4 11 -10z m-35 -10 c0 -5 -5
-10 -11 -10 -5 0 -7 5 -4 10 3 6 8 10 11 10 2 0 4 -4 4 -10z m-80 -40 c0 -5
-5 -10 -11 -10 -5 0 -7 5 -4 10 3 6 8 10 11 10 2 0 4 -4 4 -10z m800 -53 c0
-20 -1 -20 -16 -5 -9 9 -13 21 -9 27 10 16 25 3 25 -22z m-720 -88 c0 -5 -7
-9 -15 -9 -9 0 -15 9 -15 21 0 18 2 19 15 9 8 -7 15 -16 15 -21z m727 -41 c-3
-7 -5 -2 -5 12 0 14 2 19 5 13 2 -7 2 -19 0 -25z m-67 -14 c0 -8 -4 -12 -10
-9 -5 3 -10 10 -10 16 0 5 5 9 10 9 6 0 10 -7 10 -16z m624 -38 c-6 -16 -24
-23 -24 -8 0 10 22 33 27 28 2 -2 1 -11 -3 -20z m-524 -196 c0 -5 -5 -10 -11
-10 -5 0 -7 5 -4 10 3 6 8 10 11 10 2 0 4 -4 4 -10z m37 -12 c-3 -8 -6 -5 -6
6 -1 11 2 17 5 13 3 -3 4 -12 1 -19z m450 7 c0 -8 -4 -15 -8 -15 -4 0 -9 7
-13 15 -3 9 0 15 8 15 7 0 13 -7 13 -15z m-432 -49 c8 -7 11 -16 8 -19 -5 -6
-33 17 -33 27 0 10 11 7 25 -8z m45 -141 c0 -8 -4 -15 -10 -15 -5 0 -10 7 -10
15 0 8 5 15 10 15 6 0 10 -7 10 -15z m341 -48 c-7 -18 -7 -27 1 -29 13 -5 1
-48 -14 -48 -6 0 -6 6 2 15 10 12 10 15 -4 15 -19 0 -21 11 -4 28 9 9 9 15 1
23 -6 6 -8 20 -5 31 4 17 7 18 19 6 10 -11 11 -21 4 -41z m-311 12 c0 -6 -4
-7 -10 -4 -5 3 -10 11 -10 16 0 6 5 7 10 4 6 -3 10 -11 10 -16z m-100 -24 c0
-5 -5 -3 -10 5 -5 8 -10 20 -10 25 0 6 5 3 10 -5 5 -8 10 -19 10 -25z m40 31
c0 -3 -4 -8 -10 -11 -5 -3 -10 -1 -10 4 0 6 5 11 10 11 6 0 10 -2 10 -4z m310
-30 c0 -3 -4 -8 -10 -11 -5 -3 -10 -1 -10 4 0 6 5 11 10 11 6 0 10 -2 10 -4z
m-300 -76 c0 -5 -4 -10 -10 -10 -5 0 -10 5 -10 10 0 6 5 10 10 10 6 0 10 -4
10 -10z m32 -52 c-6 -6 -16 -7 -23 -3 -9 6 -7 12 7 22 21 15 34 -1 16 -19z
m41 -82 c-6 -10 -13 -12 -23 -6 -12 7 -11 12 5 30 17 18 21 19 23 6 2 -8 0
-22 -5 -30z m182 34 c3 -5 1 -10 -4 -10 -6 0 -11 5 -11 10 0 6 2 10 4 10 3 0
8 -4 11 -10z m72 -12 c-3 -8 -6 -5 -6 6 -1 11 2 17 5 13 3 -3 4 -12 1 -19z
m-82 -29 c-6 -18 -4 -20 14 -14 12 4 21 2 21 -4 0 -11 -5 -13 -32 -15 -7 -1
-16 -5 -20 -11 -13 -17 -9 24 4 45 16 26 21 25 13 -1z m-251 -14 c3 -8 1 -15
-4 -15 -6 0 -10 7 -10 15 0 8 2 15 4 15 2 0 6 -7 10 -15z m59 -46 c4 -16 2
-17 -14 -8 -10 5 -19 16 -19 24 0 20 27 8 33 -16z m-18 -39 c3 -5 1 -10 -4
-10 -6 0 -11 5 -11 10 0 6 2 10 4 10 3 0 8 -4 11 -10z m255 -41 c0 -6 -8 -18
-17 -27 -16 -16 -16 -16 -10 1 4 10 7 23 7 28 0 5 5 9 10 9 6 0 10 -5 10 -11z
m-231 -35 c4 3 8 -12 9 -32 4 -47 -15 -32 -23 18 -3 19 -3 29 1 22 3 -6 9 -10
13 -8z"/>
<path d="M350 3063 c8 -3 22 -11 30 -17 13 -10 13 -9 1 7 -7 9 -21 17 -30 16
-13 0 -14 -1 -1 -6z"/>
<path d="M394 3026 c-7 -8 -5 -17 8 -30 19 -21 25 -41 8 -31 -5 3 -10 -1 -10
-10 0 -9 -6 -15 -12 -12 -7 2 -12 16 -10 31 2 18 -2 26 -13 26 -23 0 -18 -39
8 -61 18 -15 19 -18 5 -19 -9 0 -19 6 -21 13 -4 10 -6 10 -6 0 -1 -7 -8 -13
-16 -13 -19 0 -19 -14 0 -30 8 -7 15 -23 15 -37 0 -15 4 -22 11 -17 6 3 15 0
20 -7 6 -10 9 -8 9 9 0 12 5 22 10 22 6 0 8 -11 4 -27 -9 -37 -11 -38 -29 -23
-12 10 -15 10 -15 -4 0 -9 5 -16 10 -16 7 0 7 -6 1 -19 -6 -10 -8 -21 -4 -24
3 -4 1 -13 -6 -20 -9 -11 -7 -19 7 -37 16 -20 19 -21 31 -6 16 19 35 22 25 4
-4 -7 2 -5 13 5 18 16 22 16 33 2 10 -12 9 -15 -6 -16 -11 0 -14 -3 -7 -5 7
-3 9 -12 6 -20 -4 -11 -9 -12 -19 -3 -16 13 -34 4 -34 -17 0 -8 -3 -13 -7 -11
-5 3 -13 0 -19 -7 -8 -9 -7 -15 2 -24 8 -7 17 -12 21 -11 13 1 21 -35 12 -53
-5 -9 -5 -26 0 -40 10 -23 10 -23 10 -1 1 12 5 24 10 27 5 3 7 16 4 29 -4 21
-4 21 11 3 12 -15 13 -23 4 -33 -6 -8 -13 -29 -15 -46 -4 -43 -11 -59 -22 -53
-5 4 -8 -1 -7 -11 2 -9 11 -20 22 -24 10 -4 15 -8 10 -8 -6 -1 -1 -8 10 -17
18 -15 18 -15 -9 -9 -26 5 -27 4 -21 -22 4 -16 15 -39 25 -52 12 -14 16 -29
11 -38 -11 -18 -3 -73 10 -73 6 0 7 -7 4 -16 -3 -9 -3 -21 1 -27 4 -7 6 -24 4
-39 -3 -28 17 -48 29 -29 5 9 10 9 18 -2 12 -14 5 -57 -9 -57 -18 0 -9 -28 14
-43 l22 -15 -27 -7 c-26 -7 -40 -25 -19 -25 5 0 11 -9 14 -19 3 -12 12 -19 23
-17 11 2 24 -4 30 -13 18 -23 91 3 97 35 2 13 1 22 -2 19 -4 -2 -12 5 -19 15
-10 16 -8 20 8 25 29 9 25 35 -5 35 -25 0 -29 7 -25 48 1 12 -4 22 -10 22 -7
0 -8 6 0 19 15 29 13 34 -15 29 -28 -6 -32 6 -10 28 17 18 20 34 5 34 -5 0
-10 -8 -11 -17 0 -12 -4 -8 -11 10 -5 15 -14 27 -20 27 -14 0 -38 27 -30 34 3
4 0 11 -8 16 -12 8 -12 10 4 10 13 0 16 3 8 13 -7 8 -6 16 4 25 12 11 14 10
15 -5 1 -10 1 -22 0 -26 -4 -24 18 8 24 33 4 17 10 30 13 30 4 0 12 12 19 26
11 23 9 29 -13 49 -14 13 -21 26 -15 29 5 3 7 15 4 26 -3 11 -9 17 -14 15 -4
-3 -12 3 -18 12 -8 14 -13 15 -19 5 -7 -11 -11 -11 -20 0 -7 10 -6 18 4 32 11
15 14 16 14 5 0 -11 10 -16 30 -16 17 0 26 3 20 7 -7 4 -11 10 -11 14 1 3 1
16 1 29 0 18 -2 19 -10 7 -7 -11 -10 -11 -10 -2 0 7 -4 10 -10 7 -13 -8 -13 1
0 26 8 15 7 19 -5 19 -20 0 -20 26 1 34 8 3 12 11 8 17 -4 7 -7 25 -6 41 0 15
-3 26 -7 24 -4 -3 -5 8 -3 24 3 21 -1 31 -18 40 -19 10 -21 10 -16 -7 4 -14 0
-18 -19 -19 -28 -2 -32 11 -12 41 19 30 20 70 2 105 -15 29 -15 33 0 50 15 16
15 19 -1 34 -9 10 -23 15 -30 12 -8 -3 -14 -1 -14 3 0 5 5 11 10 13 6 2 2 8
-8 14 -13 8 -20 8 -28 0z m56 -137 c0 -5 -7 -9 -15 -9 -15 0 -20 12 -9 23 8 8
24 -1 24 -14z m-17 -69 c-5 -20 -23 -38 -23 -23 1 22 13 52 20 48 5 -3 6 -14
3 -25z m65 -109 c3 -8 -1 -12 -9 -9 -7 2 -15 10 -17 17 -3 8 1 12 9 9 7 -2 15
-10 17 -17z m-98 -10 c0 -6 -4 -13 -10 -16 -5 -3 -10 1 -10 9 0 9 5 16 10 16
6 0 10 -4 10 -9z m104 -65 c-3 -8 -12 -12 -20 -9 -21 8 -17 23 6 23 13 0 18
-5 14 -14z m-39 -35 c3 -5 1 -12 -5 -16 -5 -3 -10 1 -10 9 0 18 6 21 15 7z
m45 -207 c0 -22 -3 -24 -22 -18 -30 9 -32 10 -25 29 4 8 16 15 27 15 15 0 20
-7 20 -26z m37 -10 c-3 -3 -12 -4 -19 -1 -8 3 -5 6 6 6 11 1 17 -2 13 -5z
m-77 -85 c0 -4 -7 -6 -15 -3 -8 4 -15 10 -15 15 0 4 7 6 15 3 8 -4 15 -10 15
-15z m20 -89 c0 -5 -4 -10 -10 -10 -5 0 -10 5 -10 10 0 6 5 10 10 10 6 0 10
-4 10 -10z m37 -106 c-3 -3 -12 -4 -19 -1 -8 3 -5 6 6 6 11 1 17 -2 13 -5z
m66 -172 c-2 -10 -13 -18 -24 -18 -19 0 -19 1 -3 13 14 10 15 16 6 25 -20 20
-13 32 7 14 10 -9 17 -25 14 -34z"/>
<path d="M12030 3029 c0 -6 -4 -7 -10 -4 -5 3 -10 2 -10 -3 0 -5 11 -9 25 -9
28 0 33 12 10 21 -8 3 -15 1 -15 -5z"/>
<path d="M12497 3024 c-8 -8 1 -24 14 -24 5 0 9 7 9 15 0 15 -12 20 -23 9z"/>
<path d="M320 3010 c0 -5 5 -10 10 -10 6 0 10 5 10 10 0 6 -4 10 -10 10 -5 0
-10 -4 -10 -10z"/>
<path d="M1590 3001 c0 -6 4 -13 10 -16 6 -3 7 1 4 9 -7 18 -14 21 -14 7z"/>
<path d="M3220 2964 c0 -8 5 -12 10 -9 6 4 8 11 5 16 -9 14 -15 11 -15 -7z"/>
<path d="M5430 2970 c0 -5 5 -10 11 -10 5 0 7 5 4 10 -3 6 -8 10 -11 10 -2 0
-4 -4 -4 -10z"/>
<path d="M10792 2963 c-5 -10 -7 -24 -5 -30 3 -7 0 -13 -6 -13 -6 0 -11 7 -11
15 0 9 -9 15 -24 15 -13 0 -24 -6 -23 -12 0 -7 -1 -38 -2 -68 -1 -43 -4 -51
-12 -37 -6 9 -7 27 -4 38 5 13 3 19 -3 15 -5 -3 -13 2 -16 11 -6 14 -9 15 -15
4 -7 -11 -13 -11 -32 2 -21 15 -24 15 -41 0 -10 -9 -18 -23 -19 -32 0 -12 -3
-11 -9 4 l-9 20 -1 -20 c-1 -18 -2 -18 -14 4 l-13 24 -21 -21 c-18 -18 -26
-20 -47 -12 -34 13 -35 13 -29 -4 3 -8 1 -17 -5 -21 -6 -3 -11 1 -11 10 0 9
-6 15 -12 12 -7 -2 -12 -9 -11 -14 3 -13 -60 -13 -68 0 -4 5 -15 7 -25 3 -16
-6 -16 -9 -4 -17 11 -8 10 -9 -7 -4 -13 4 -23 2 -23 -4 0 -5 7 -11 15 -13 9
-2 11 -8 6 -16 -5 -9 -14 -10 -32 -3 -13 5 -19 10 -14 10 6 1 11 9 11 20 0 21
-26 22 -63 3 -26 -14 -44 -16 -23 -2 18 11 13 16 -30 25 -34 7 -34 6 -15 -10
11 -9 15 -14 9 -11 -7 3 -17 -1 -24 -9 -8 -9 -22 -13 -39 -10 -58 12 -91 13
-91 2 0 -8 -3 -8 -8 -2 -4 6 -16 9 -27 9 -11 -1 -28 -2 -37 -3 -10 -1 -18 -8
-18 -16 0 -8 -4 -15 -10 -15 -5 0 -10 4 -10 9 0 5 -11 8 -25 7 -14 0 -25 -7
-25 -15 0 -12 -3 -12 -12 -3 -28 28 -57 6 -62 -48 -2 -22 33 -24 56 -3 21 17
21 17 15 0 -6 -15 -3 -17 12 -12 14 4 21 0 26 -15 3 -11 13 -20 21 -20 19 0
29 -27 16 -43 -7 -8 -7 -18 -2 -27 9 -15 9 -16 25 35 6 19 25 20 25 1 0 -8 4
-17 9 -20 5 -4 7 3 4 14 -3 11 -9 23 -14 26 -12 7 -12 34 0 34 5 0 12 -12 15
-26 8 -31 30 -27 31 7 3 36 15 69 26 69 6 0 8 -8 4 -19 -7 -22 28 -35 56 -21
12 7 19 5 23 -5 6 -17 82 -21 106 -5 10 6 11 10 3 10 -19 0 -16 14 7 41 l21
24 -5 -35 c-3 -19 -3 -28 1 -20 7 16 46 50 51 45 5 -5 -16 -41 -34 -60 -18
-17 -21 -17 71 4 35 8 87 7 102 -2 6 -4 16 7 23 23 11 28 14 29 25 13 11 -15
15 -16 31 -3 16 13 17 13 12 -2 -6 -14 -2 -15 20 -9 15 5 33 6 41 3 10 -3 11
2 6 18 -6 18 -4 22 8 17 9 -3 18 -1 20 6 3 9 8 9 18 0 18 -18 60 -16 73 3 9
12 17 13 39 5 22 -9 28 -7 37 9 14 26 13 57 -2 64 -10 5 -10 7 0 12 6 3 12 12
12 20 0 7 9 19 19 26 11 6 17 18 13 26 -4 11 -1 13 8 7 8 -5 11 -3 8 5 -7 22
-26 23 -36 3z m-102 -113 c0 -5 -4 -10 -10 -10 -5 0 -10 5 -10 10 0 6 5 10 10
10 6 0 10 -4 10 -10z m-335 -30 c3 -6 -1 -13 -10 -16 -19 -8 -30 0 -20 15 8
14 22 14 30 1z m-555 -56 c0 -9 -5 -14 -12 -12 -18 6 -21 28 -4 28 9 0 16 -7
16 -16z m497 -36 c-3 -8 -6 -5 -6 6 -1 11 2 17 5 13 3 -3 4 -12 1 -19z m-377
-38 c0 -5 -4 -10 -10 -10 -5 0 -10 5 -10 10 0 6 5 10 10 10 6 0 10 -4 10 -10z"/>
<path d="M4691 2951 c-6 -10 -12 -40 -14 -67 -2 -36 -7 -49 -22 -54 -18 -6
-18 -7 1 -14 19 -7 19 -8 0 -22 -11 -8 -16 -14 -12 -14 5 0 1 -12 -9 -26 -9
-14 -15 -37 -12 -50 2 -13 0 -21 -5 -18 -5 3 -8 0 -7 -7 2 -8 -1 -36 -6 -64
-4 -27 -7 -56 -6 -62 1 -7 -2 -13 -8 -13 -13 0 -10 -92 4 -112 6 -10 15 -15
18 -11 4 3 7 0 7 -7 0 -10 3 -10 13 2 11 14 15 14 42 -3 l30 -19 -63 3 c-64 2
-70 -1 -50 -21 10 -10 10 -15 -1 -21 -8 -5 -11 -16 -7 -29 4 -13 1 -22 -9 -26
-17 -6 -21 -36 -4 -36 6 0 18 -8 27 -17 16 -16 16 -16 0 -10 -10 3 -18 2 -18
-3 0 -6 -7 -10 -15 -10 -9 0 -15 -9 -15 -25 0 -14 -4 -25 -8 -25 -4 0 -7 -23
-6 -52 1 -31 -5 -62 -15 -79 -15 -27 -15 -29 4 -43 11 -9 28 -16 38 -16 16 0
19 -4 21 -32 1 -13 -42 -19 -50 -6 -3 4 -10 8 -15 8 -6 0 -7 -5 -3 -12 5 -8 2
-9 -9 -5 -14 5 -16 -1 -15 -38 0 -25 -5 -52 -12 -60 -10 -12 -10 -18 0 -30 19
-23 50 -19 51 8 0 12 3 16 6 10 6 -17 30 -17 36 0 4 9 7 9 18 0 10 -10 9 -16
-4 -31 -10 -11 -17 -35 -17 -57 0 -42 -16 -38 -22 4 -1 14 -9 26 -16 29 -9 3
-11 -3 -6 -22 5 -21 3 -26 -12 -26 -18 0 -44 -40 -44 -66 0 -7 -8 -14 -17 -16
-12 -3 -5 -8 19 -15 43 -13 62 -29 72 -61 4 -12 12 -22 18 -22 5 0 7 7 4 16
-4 11 -1 14 12 10 23 -7 46 8 39 27 -3 9 0 21 8 27 13 11 14 34 2 46 -4 4 -8
2 -8 -4 -3 -28 -4 -31 -14 -41 -7 -7 -16 -7 -25 -1 -12 8 -12 10 -1 10 11 0
10 5 -4 20 -14 16 -16 23 -7 32 9 9 12 9 12 0 0 -19 15 -14 44 13 32 30 33 41
4 49 -19 5 -20 8 -8 15 8 5 18 7 24 4 5 -4 7 0 3 9 -3 9 0 21 6 28 10 10 6 11
-15 8 -24 -5 -28 -2 -28 18 0 13 5 24 11 24 5 0 7 -4 4 -10 -3 -6 1 -7 10 -4
20 8 15 23 -13 42 -20 13 -22 13 -22 -7 0 -31 -20 -25 -21 7 0 26 -1 26 -13
-7 -7 -21 -15 -30 -19 -24 -4 7 -3 14 3 18 5 3 10 15 10 26 0 11 -4 18 -9 14
-5 -3 -12 -1 -16 5 -3 5 0 11 7 12 7 0 18 2 23 3 6 2 16 3 23 4 6 0 12 7 12
14 0 7 9 18 20 25 12 7 20 8 20 2 0 -5 7 -10 15 -10 9 0 12 -6 8 -17 -4 -10
-2 -14 5 -9 18 11 9 46 -14 52 -13 3 -24 16 -27 30 -2 13 -1 22 3 19 3 -2 12
13 20 33 7 20 17 39 21 42 5 3 10 17 11 30 2 20 -2 26 -24 28 -30 4 -38 17
-27 52 4 14 7 20 8 13 1 -12 66 -11 78 1 3 3 -2 14 -11 25 -16 18 -16 20 0 29
13 7 14 13 6 28 -6 10 -12 15 -12 10 0 -6 -7 -1 -15 10 -14 18 -14 17 -9 -13
5 -26 3 -33 -10 -33 -9 0 -16 7 -16 15 0 11 -5 12 -24 5 -19 -7 -26 -5 -30 7
-7 18 10 43 30 43 16 0 19 -16 4 -23 -6 -3 -5 -4 2 -3 7 2 13 11 13 21 0 10 6
20 13 23 6 2 12 -1 12 -7 0 -6 12 -11 26 -11 14 0 23 -4 19 -9 -3 -5 -1 -12 5
-16 5 -3 10 3 10 14 0 10 3 27 6 35 5 12 2 15 -10 10 -9 -3 -16 -1 -16 5 0 6
9 11 19 11 19 0 19 2 5 35 -8 21 -10 35 -4 35 5 0 10 -6 10 -14 0 -8 7 -16 15
-20 8 -3 15 -1 15 3 0 5 -6 11 -12 14 -10 3 -10 7 -1 19 7 8 10 18 6 22 -4 4
-1 11 7 16 10 6 11 12 2 22 -8 11 -9 17 0 26 6 6 11 49 12 101 1 55 5 91 11
91 9 0 10 15 6 64 -1 4 -10 6 -21 3 -13 -3 -20 0 -20 8 0 8 -5 17 -12 21 -7 4
-8 3 -4 -4 4 -7 2 -12 -3 -12 -24 0 -9 32 19 43 17 6 30 15 30 19 0 15 -67 68
-85 68 -2 0 -9 -9 -14 -19z m49 -61 c0 -16 -26 -29 -40 -20 -11 7 -11 11 -1
24 12 14 41 12 41 -4z m-15 -60 c3 -5 1 -10 -4 -10 -6 0 -11 5 -11 10 0 6 2
10 4 10 3 0 8 -4 11 -10z m35 -69 c-14 -26 -26 -27 -26 -2 0 11 4 17 8 15 5
-3 11 3 15 12 4 10 8 13 10 7 3 -7 -1 -21 -7 -32z m10 -31 c0 -5 -5 -10 -11
-10 -5 0 -7 5 -4 10 3 6 8 10 11 10 2 0 4 -4 4 -10z m-37 -15 c-3 -9 -8 -14
-10 -11 -3 3 -2 9 2 15 9 16 15 13 8 -4z m21 -21 c3 -8 2 -12 -4 -9 -6 3 -10
10 -10 16 0 14 7 11 14 -7z m-53 -66 c0 -10 2 -10 6 0 5 13 23 7 23 -9 0 -15
-43 -7 -48 9 -2 6 1 12 7 12 6 0 11 -6 12 -12z m-43 -27 c5 -31 -16 -55 -35
-39 -12 10 -12 13 0 20 10 5 13 16 10 29 -4 16 -2 20 8 17 8 -2 15 -15 17 -27z
m88 -32 c3 -5 1 -9 -5 -9 -17 0 -41 12 -41 20 0 10 38 1 46 -11z m-51 -329 c3
-5 2 -10 -4 -10 -5 0 -13 5 -16 10 -3 6 -2 10 4 10 5 0 13 -4 16 -10z m-55
-122 c0 -12 -28 -10 -35 2 -4 6 -4 19 0 28 6 16 8 15 21 -2 8 -11 14 -23 14
-28z m-62 -119 c-3 -8 -7 -3 -11 10 -4 17 -3 21 5 13 5 -5 8 -16 6 -23z m34
-7 c-7 -2 -12 -11 -12 -19 0 -9 -3 -14 -6 -10 -10 10 7 48 19 40 8 -5 8 -8 -1
-11z m3 -272 c3 -5 -1 -10 -9 -10 -9 0 -16 5 -16 10 0 6 4 10 9 10 6 0 13 -4
16 -10z m-80 -90 c-3 -5 -13 -10 -21 -10 -8 0 -14 5 -14 10 0 6 9 10 21 10 11
0 17 -4 14 -10z"/>
<path d="M8845 2960 c3 -6 -1 -10 -11 -10 -12 0 -15 -6 -12 -25 6 -29 -7 -43
-16 -19 -11 28 -25 5 -16 -26 8 -28 7 -30 -14 -24 -20 5 -26 0 -37 -28 -7 -18
-15 -37 -17 -42 -3 -5 0 -6 7 -2 19 12 13 -49 -8 -72 -10 -12 -21 -19 -25 -15
-3 3 -6 1 -6 -4 0 -6 6 -14 13 -16 8 -3 1 -15 -19 -31 -30 -24 -81 -106 -67
-106 4 0 2 -5 -5 -12 -18 -18 -15 -33 3 -18 13 11 12 6 -2 -21 -10 -19 -24
-38 -30 -42 -7 -4 -13 -16 -13 -25 0 -10 -5 -23 -12 -30 -9 -9 -5 -14 18 -24
30 -14 34 -28 19 -81 -6 -21 -10 -25 -16 -15 -14 21 -10 38 9 38 16 1 16 1 0
11 -22 12 -58 -8 -58 -33 0 -10 -7 -18 -15 -18 -23 0 -18 -24 9 -49 14 -13 22
-29 20 -36 -6 -15 -44 -27 -44 -14 0 5 -4 9 -10 9 -9 0 -7 -42 5 -71 3 -9 -1
-21 -10 -29 -12 -10 -18 -10 -32 1 -14 12 -16 12 -11 -1 3 -9 16 -14 34 -13
28 1 28 1 7 -9 -13 -6 -23 -15 -23 -20 0 -4 -11 -18 -24 -29 -22 -19 -23 -23
-10 -47 8 -15 14 -33 14 -39 0 -7 7 -13 15 -13 10 0 15 10 15 26 0 22 -2 25
-15 14 -12 -10 -15 -10 -15 4 0 24 41 20 47 -4 3 -11 9 -17 14 -14 18 10 8
-12 -17 -41 -16 -19 -27 -26 -30 -18 -8 19 -45 63 -52 63 -4 0 -12 -16 -18
-35 -7 -23 -8 -35 -1 -32 24 8 53 -39 53 -87 1 -30 -2 -44 -8 -38 -6 6 -8 18
-6 28 2 12 -5 24 -20 32 -32 16 -45 15 -38 -3 3 -9 -1 -18 -9 -21 -8 -4 -15
-15 -15 -26 0 -11 -5 -28 -11 -39 -7 -15 -7 -24 1 -34 6 -7 9 -19 8 -26 -2 -7
8 -16 22 -20 l25 -7 -24 -1 c-18 -1 -21 -4 -13 -14 8 -9 6 -21 -8 -42 l-20
-30 5 33 c2 19 0 43 -4 55 -8 21 -8 21 -14 2 -4 -11 -5 -37 -2 -58 3 -21 1
-36 -4 -33 -11 7 -21 -28 -12 -41 3 -6 13 -12 21 -15 16 -6 13 -8 -36 -23 -9
-3 -12 -10 -7 -17 12 -21 14 -46 2 -53 -6 -5 -4 -16 7 -32 13 -21 14 -27 3
-34 -8 -5 -9 -9 -4 -9 6 0 3 -4 -5 -10 -18 -11 -10 -21 19 -23 11 -1 21 -7 21
-15 0 -9 -7 -11 -20 -7 -14 4 -20 2 -20 -8 0 -8 -7 -18 -16 -21 -12 -5 -14
-14 -9 -38 8 -39 20 -54 29 -39 4 6 12 11 17 11 6 0 7 -5 3 -12 -4 -7 -10 -28
-13 -47 -5 -28 -14 -39 -47 -56 -35 -18 -40 -25 -32 -40 7 -12 7 -20 -2 -25
-9 -5 -9 -9 -1 -14 6 -4 11 -2 11 5 0 10 3 10 11 2 9 -9 7 -19 -6 -40 l-19
-28 -7 25 c-4 18 -8 21 -12 10 -15 -41 -15 -68 -1 -89 15 -21 15 -23 -5 -28
-26 -7 -27 -19 -1 -35 22 -14 28 -72 10 -83 -6 -4 -10 -3 -9 2 4 22 -3 33 -18
33 -15 0 -16 -2 -3 -10 10 -6 11 -10 3 -10 -7 0 -13 -7 -13 -16 0 -8 5 -12 10
-9 6 3 10 -1 10 -9 0 -9 -4 -16 -9 -16 -5 0 -9 -15 -8 -34 0 -19 5 -33 9 -30
4 3 8 0 8 -6 0 -6 5 -8 11 -5 6 4 9 22 7 40 -3 41 5 51 23 29 11 -13 11 -18 2
-21 -19 -7 -16 -33 4 -33 12 0 7 -9 -17 -30 -24 -21 -29 -30 -17 -30 10 0 17
-8 17 -19 0 -10 7 -22 16 -25 11 -4 14 0 12 15 -2 16 3 23 20 25 22 4 22 3 6
-21 -10 -15 -12 -25 -5 -25 6 0 11 4 11 9 0 5 9 11 20 14 15 4 22 -1 26 -19
l6 -25 16 23 c8 13 17 25 18 27 2 2 10 -2 18 -8 10 -8 16 -9 21 -1 3 5 -1 10
-9 10 -9 0 -16 5 -16 10 0 6 21 10 46 10 41 0 45 -2 39 -20 -4 -11 -2 -20 4
-20 6 0 11 8 11 18 0 11 10 27 22 38 19 16 20 16 9 1 -8 -9 -11 -21 -7 -24 9
-9 41 10 42 26 1 6 3 14 4 19 1 4 2 10 1 15 0 4 8 8 19 8 33 2 38 4 46 12 14
13 24 7 24 -15 0 -19 2 -20 10 -8 7 10 10 11 10 2 0 -9 8 -10 28 -6 24 7 26 6
13 -9 -12 -15 -11 -17 3 -17 9 0 16 6 16 14 0 19 32 30 42 14 4 -7 8 -9 8 -4
0 6 6 4 12 -2 10 -10 16 -8 30 10 13 17 18 19 18 8 0 -19 42 -19 64 -1 12 10
20 10 29 3 14 -12 35 -11 55 1 6 5 17 5 24 1 8 -5 9 -2 5 10 -4 11 -3 15 4 11
15 -10 59 -13 59 -6 0 4 -13 17 -29 28 -20 15 -32 18 -39 11 -7 -7 -14 -3 -22
12 -10 18 -18 20 -55 16 -32 -3 -45 -1 -49 10 -6 16 -68 17 -100 1 -12 -6 -26
-5 -40 1 -40 19 -55 21 -66 7 -7 -8 -16 -12 -21 -9 -5 3 -9 0 -9 -6 0 -7 -15
-10 -42 -7 -49 4 -100 -17 -91 -38 4 -13 1 -13 -23 0 -36 19 -44 19 -44 0 0
-18 -65 -21 -75 -5 -5 8 -11 8 -20 0 -10 -8 -15 -8 -20 1 -5 7 -21 9 -41 6
-19 -3 -34 -5 -34 -4 0 1 4 17 9 34 6 20 6 35 0 39 -5 3 -7 10 -3 15 3 6 11 5
21 -2 10 -9 17 -9 21 -2 10 15 41 12 35 -4 -3 -7 2 -13 11 -13 15 0 21 22 18
60 -1 8 7 44 17 80 33 114 39 150 27 150 -7 0 -8 3 -1 8 14 9 36 82 25 82 -16
0 -21 39 -9 61 9 19 9 25 -5 35 -16 11 -15 13 5 27 24 17 34 77 16 89 -9 6 -8
8 1 8 7 0 10 5 7 10 -4 6 -11 8 -16 5 -5 -3 -24 -2 -43 4 -25 6 -37 6 -40 -2
-3 -7 -3 -2 -1 9 4 14 0 24 -10 28 -9 3 -15 18 -14 38 0 31 1 31 10 10 5 -13
13 -20 19 -17 6 3 10 -4 10 -18 0 -35 43 -34 61 2 17 32 30 42 47 36 6 -2 12
0 12 4 0 14 -27 20 -38 9 -7 -7 -14 -3 -22 12 -11 20 -10 22 4 17 9 -4 15 -3
15 1 -3 20 3 32 16 32 10 0 15 7 13 18 -2 10 3 17 12 17 19 0 39 33 33 55 -3
10 2 20 11 23 25 10 19 61 -10 97 -15 17 -24 34 -20 37 3 4 6 1 6 -6 0 -7 5
-9 10 -6 6 3 10 1 10 -4 0 -12 29 -15 31 -3 5 27 5 69 0 77 -3 6 -6 19 -8 30
-1 11 1 14 3 8 3 -7 15 -13 26 -13 16 0 19 5 14 24 -4 18 -1 28 11 35 14 7 15
12 4 24 -7 9 -20 13 -29 10 -9 -3 -14 -2 -9 2 4 5 0 18 -8 31 -12 19 -12 23 0
27 14 6 28 -6 39 -37 5 -15 9 -16 21 -6 8 7 12 17 8 23 -3 6 -1 7 5 3 19 -11
34 42 26 92 -4 28 -3 43 3 39 5 -4 15 10 21 29 9 30 8 35 -3 30 -25 -9 -29 16
-6 35 14 12 18 20 10 25 -8 5 -7 10 5 16 9 5 16 16 16 23 0 8 5 15 10 15 6 0
10 7 10 15 0 8 7 15 16 15 14 0 14 3 4 15 -11 14 -7 19 13 16 4 0 7 3 7 9 0 6
-6 10 -12 10 -9 0 -8 3 2 9 8 6 18 7 22 5 5 -3 6 7 2 23 -9 36 -13 41 -23 25
-4 -7 -15 -10 -24 -6 -20 7 -23 25 -4 22 6 -2 12 4 12 12 0 8 -6 14 -14 12 -7
-2 -22 5 -32 14 -14 12 -15 19 -6 29 9 10 15 10 26 2 11 -10 13 -8 7 11 -5 14
-3 22 4 22 6 0 9 -3 7 -7 -3 -5 1 -14 9 -21 12 -11 14 -10 14 3 0 8 5 15 11
15 5 0 8 3 5 8 -2 4 3 16 11 27 15 20 15 20 10 -2 -3 -13 -2 -25 2 -28 14 -8
40 19 47 48 6 26 5 27 -22 23 -16 -3 -36 -1 -44 4 -13 8 -12 10 3 10 9 0 17 6
17 13 0 10 13 14 44 13 26 -1 42 -5 39 -11 -2 -5 2 -1 11 9 8 10 13 23 9 29
-3 5 1 13 8 18 10 6 7 9 -11 9 -19 0 -22 2 -10 9 8 6 17 8 21 5 4 -2 13 3 20
12 11 14 10 18 -6 30 -27 20 -35 17 -35 -10 0 -13 -7 -27 -16 -30 -24 -9 -26
-8 -19 14 5 14 2 20 -9 20 -9 0 -16 4 -16 10 0 5 -7 7 -15 4 -10 -4 -15 0 -15
11 0 11 5 15 15 11 9 -3 15 0 15 8 0 16 50 32 59 19 9 -12 43 -13 64 -2 14 8
16 14 7 24 -7 9 -7 14 -1 17 6 2 8 18 5 40 -5 28 -10 35 -23 31 -9 -4 -13 -3
-9 2 4 4 2 13 -5 19 -16 16 -50 29 -42 16z m33 -72 c-2 -6 -10 -14 -16 -16 -7
-2 -10 2 -6 12 7 18 28 22 22 4z m19 -30 c-3 -7 -5 -2 -5 12 0 14 2 19 5 13 2
-7 2 -19 0 -25z m-266 -451 c-10 -9 -11 -8 -5 6 3 10 9 15 12 12 3 -3 0 -11
-7 -18z m27 -142 c-3 -3 -9 2 -12 12 -6 14 -5 15 5 6 7 -7 10 -15 7 -18z m-70
-243 c-13 -53 -23 -54 -23 -2 0 27 4 40 15 43 21 5 20 6 8 -41z m-42 11 c-10
-10 -19 5 -10 18 6 11 8 11 12 0 2 -7 1 -15 -2 -18z m-50 -221 c2 -30 -13 -28
-19 3 -3 16 0 24 7 22 6 -2 12 -13 12 -25z m-91 -270 c-8 -9 -25 20 -18 31 3
5 10 2 15 -7 6 -10 7 -20 3 -24z m-40 -52 c-4 -6 -11 -7 -17 -4 -7 5 -9 1 -5
-9 3 -10 2 -17 -3 -17 -11 0 -13 23 -3 33 10 11 35 8 28 -3z m-35 -388 c0 -7
-4 -10 -10 -7 -5 3 -10 16 -10 28 0 18 2 19 10 7 5 -8 10 -21 10 -28z m-33
-48 c-3 -3 -12 -4 -19 -1 -8 3 -5 6 6 6 11 1 17 -2 13 -5z m-40 -203 c-10 -12
-9 -13 8 -7 44 18 55 18 55 3 0 -10 -11 -17 -27 -19 -19 -2 -29 -10 -34 -28
-4 -14 -8 -22 -9 -17 -1 4 -3 10 -5 15 -7 27 -19 40 -31 35 -8 -3 -14 0 -14 6
0 6 3 10 8 10 19 -3 33 2 27 10 -3 6 3 9 14 8 16 -1 18 -4 8 -16z m-27 -61 c0
-5 -4 -10 -10 -10 -5 0 -10 5 -10 10 0 6 5 10 10 10 6 0 10 -4 10 -10z m397
-122 c-3 -8 -6 -5 -6 6 -1 11 2 17 5 13 3 -3 4 -12 1 -19z"/>
<path d="M2792 2924 c0 -19 -3 -38 -6 -41 -3 -4 -6 3 -6 15 0 29 -11 28 -45
-3 -21 -20 -26 -31 -20 -52 4 -19 0 -32 -16 -49 -12 -13 -17 -24 -11 -24 18 0
14 -51 -5 -67 -17 -14 -17 -14 3 -10 17 4 20 1 17 -14 -3 -11 -9 -22 -14 -24
-4 -3 -5 -13 -2 -23 5 -14 3 -14 -17 3 -13 11 -20 15 -17 8 4 -6 3 -14 -3 -18
-5 -3 -10 -15 -10 -26 0 -11 5 -17 10 -14 12 8 13 -10 1 -33 -11 -22 -21 -113
-11 -107 12 7 63 -42 56 -54 -4 -6 -1 -11 6 -11 9 -1 9 -4 -3 -13 -11 -8 -14
-26 -12 -59 2 -37 -1 -48 -12 -48 -8 0 -15 -8 -16 -17 0 -16 -2 -15 -10 2 -8
17 -9 16 -6 -7 4 -30 -13 -43 -33 -25 -10 9 -12 9 -7 -4 3 -9 -3 -20 -13 -26
-19 -12 -33 -60 -19 -68 4 -3 15 5 24 17 12 19 17 20 24 9 7 -11 10 -10 14 5
4 17 5 17 6 -2 1 -13 -6 -24 -18 -27 -19 -5 -39 -62 -26 -75 9 -9 40 13 41 29
2 33 6 32 19 -6 19 -51 19 -60 1 -45 -10 8 -21 8 -32 2 -9 -5 -24 -8 -33 -6
-31 7 -77 -58 -65 -91 4 -8 2 -21 -4 -28 -6 -6 -10 -15 -10 -20 0 -4 -4 -21
-7 -39 -14 -62 -12 -88 6 -88 17 0 34 -28 24 -38 -3 -3 -5 -1 -5 5 0 17 -50
-9 -52 -27 0 -8 -1 -23 0 -32 1 -10 -3 -18 -9 -18 -5 0 -8 -3 -6 -7 3 -5 1
-17 -3 -28 -4 -11 -4 -30 1 -42 5 -13 5 -23 1 -23 -4 0 -13 -4 -20 -9 -11 -6
-8 -14 11 -35 13 -14 30 -26 36 -26 15 0 11 -32 -5 -37 -6 -2 -17 8 -24 22
-14 26 -40 30 -48 7 -2 -8 2 -10 15 -5 15 5 15 3 -4 -18 l-22 -25 20 -12 c12
-8 18 -19 15 -28 -3 -8 -2 -14 3 -14 5 0 11 -9 14 -21 4 -14 -1 -22 -15 -28
-19 -7 -19 -8 -4 -14 10 -4 14 -12 11 -18 -4 -6 -13 -8 -21 -5 -7 3 -16 1 -19
-5 -4 -5 -11 -7 -16 -4 -5 4 -9 -3 -9 -14 0 -12 5 -21 12 -21 6 0 9 -2 6 -5
-10 -11 -38 8 -38 25 0 28 11 51 21 44 5 -3 9 2 9 10 0 9 8 16 18 17 11 0 12
2 4 6 -7 3 -19 -1 -27 -7 -12 -10 -15 -10 -16 1 0 8 -7 -8 -15 -36 -8 -27 -18
-57 -21 -65 -3 -8 -5 -18 -5 -23 1 -4 -4 -7 -10 -7 -9 0 -8 -4 2 -10 22 -14
26 -13 39 13 6 12 9 14 7 5 -3 -10 -1 -18 4 -18 6 0 10 -3 10 -7 0 -5 -14 -9
-31 -10 -38 -3 -43 -7 -35 -29 5 -13 9 -15 18 -6 17 17 23 15 36 -13 17 -36
15 -50 -3 -35 -8 6 -18 9 -24 6 -5 -3 -11 1 -15 9 -11 31 -29 16 -23 -20 4
-23 1 -40 -9 -49 -8 -8 -14 -21 -14 -30 0 -8 -4 -18 -10 -21 -16 -10 -12 -52
6 -59 8 -3 12 -11 8 -17 -4 -8 -9 -7 -14 2 -7 10 -11 10 -24 0 -23 -19 -19
-33 7 -25 l22 6 -22 -24 c-28 -29 -29 -38 -5 -38 10 0 21 -3 24 -6 9 -8 -3
-44 -14 -44 -6 0 -8 7 -4 15 3 8 -3 19 -13 25 -14 7 -23 5 -36 -10 -11 -13
-14 -20 -6 -20 7 0 9 -5 6 -10 -4 -6 -10 -8 -15 -5 -12 8 -20 -36 -9 -56 14
-27 12 -46 -3 -31 -20 20 -41 15 -35 -8 3 -14 -1 -25 -13 -33 -14 -8 -16 -15
-8 -24 7 -9 7 -13 0 -13 -18 0 -64 -48 -57 -59 3 -6 15 -11 26 -11 10 0 19 -7
19 -15 0 -8 9 -15 20 -15 24 0 27 -15 5 -24 -9 -3 -18 1 -22 10 -3 8 -11 13
-18 10 -8 -3 -16 2 -19 10 -4 10 -16 14 -33 12 -22 -2 -28 -8 -26 -24 2 -20
-23 -37 -90 -58 -11 -4 -15 -11 -11 -18 5 -7 2 -9 -7 -6 -8 3 -23 0 -34 -8
-27 -20 -88 -17 -113 5 -12 10 -19 21 -15 24 3 4 -6 11 -20 16 -27 10 -28 28
-5 58 12 15 2 33 -17 33 -11 0 -13 11 -8 46 4 32 1 49 -8 54 -10 7 -10 11 0
24 7 9 9 21 5 28 -5 7 -9 25 -10 41 -1 15 -14 40 -29 54 -15 15 -22 29 -16 31
6 2 11 14 11 26 0 12 7 32 16 44 14 21 14 26 -1 58 -9 19 -13 39 -10 44 3 6 1
10 -4 10 -14 0 -14 37 0 42 6 2 11 23 12 46 1 23 7 42 12 42 6 0 3 5 -5 11
-11 8 -12 12 -2 16 21 8 13 31 -18 49 -32 20 -51 51 -24 40 12 -4 14 -1 9 13
-4 13 0 23 11 29 16 9 15 11 -5 21 -17 10 -20 15 -11 26 6 8 17 12 25 9 7 -3
16 -1 20 5 3 6 3 11 -2 11 -4 0 -9 25 -11 55 -2 34 1 55 7 55 6 0 11 5 11 12
0 6 -10 2 -22 -9 -13 -11 -29 -18 -37 -15 -9 3 -11 0 -6 -8 5 -9 -4 -11 -36
-9 -38 3 -44 1 -44 -16 0 -11 -4 -24 -10 -28 -6 -6 -6 -10 3 -14 17 -7 15 -23
-4 -23 -14 0 -14 -2 0 -15 20 -20 26 -19 26 4 0 11 4 22 9 26 16 9 24 -15 11
-30 -9 -11 -9 -15 -1 -15 6 0 11 -7 11 -16 0 -13 -8 -15 -35 -12 -19 2 -35 0
-35 -4 0 -4 5 -8 10 -8 6 0 10 -4 10 -10 0 -5 -7 -10 -15 -10 -10 0 -15 -10
-14 -32 1 -18 -1 -43 -4 -55 -3 -13 -2 -23 3 -23 11 0 9 -42 -2 -50 -9 -7 6
-66 15 -62 4 1 15 -2 25 -7 16 -9 16 -11 -3 -25 -20 -15 -20 -15 0 -16 18 0
18 -1 -3 -16 -24 -17 -29 -53 -10 -72 9 -9 8 -12 -4 -12 -21 0 -28 -42 -12
-65 8 -11 10 -24 5 -34 -14 -25 -1 -70 21 -77 19 -6 19 -6 -2 -29 -12 -13 -17
-25 -12 -29 6 -3 8 -14 5 -24 -2 -10 1 -31 8 -47 7 -17 14 -43 15 -60 1 -16 3
-36 3 -42 1 -7 8 -13 16 -13 8 0 15 -4 15 -10 0 -5 -4 -10 -9 -10 -5 0 -7 -9
-4 -20 3 -10 10 -18 17 -17 6 1 10 -6 10 -15 -1 -9 4 -14 11 -12 8 3 15 -8 19
-31 5 -25 12 -35 21 -31 7 2 15 -1 18 -8 3 -7 23 -19 46 -28 23 -9 39 -13 36
-8 -3 5 3 8 14 7 11 0 18 -4 15 -8 -5 -9 35 -19 52 -12 8 3 14 8 14 12 0 4 14
6 30 3 17 -2 30 -8 30 -13 0 -5 4 -9 8 -9 5 0 9 7 9 15 0 8 -9 15 -21 15 -14
0 -17 3 -10 10 7 7 19 6 37 -3 34 -18 78 -11 70 10 -5 12 -1 14 15 9 11 -4 23
-2 27 4 3 5 17 10 30 10 16 0 27 9 36 29 7 16 16 28 20 25 16 -9 40 9 36 27
-3 11 0 19 7 19 14 0 46 36 46 51 0 7 16 34 36 62 20 28 37 61 37 74 0 12 6
28 13 34 8 6 14 17 14 24 0 7 7 15 15 19 8 3 15 12 15 21 0 8 9 15 19 15 14 0
19 6 17 23 -2 13 -6 29 -10 36 -4 6 -4 11 1 10 23 -4 30 4 31 32 1 25 -3 29
-16 25 -10 -4 -7 2 7 13 13 10 25 31 27 47 2 16 8 30 14 32 14 5 13 32 -2 32
-9 0 -8 3 2 9 8 6 18 7 22 5 9 -6 10 -2 12 37 1 15 -3 25 -9 23 -6 -3 -10 12
-10 37 0 50 29 75 44 37 6 -13 10 -18 10 -11 2 21 -11 43 -25 43 -8 0 -11 6
-8 15 4 8 13 15 21 15 9 0 13 6 10 15 -4 8 -2 17 3 20 4 3 11 -1 13 -7 3 -7 6
-2 6 13 1 14 6 30 12 36 8 8 2 14 -20 24 -22 10 -27 16 -19 26 6 7 16 13 24
13 16 0 51 36 57 60 3 13 0 16 -14 13 -27 -8 -23 8 12 47 28 30 31 39 27 81
-4 36 -1 49 9 53 12 5 12 8 -1 22 -18 17 -21 44 -6 44 5 0 13 -7 18 -16 7 -13
10 -13 20 -1 13 15 6 47 -9 47 -5 0 -9 6 -9 13 0 13 -10 16 -55 18 -11 1 -14
3 -7 6 6 3 12 14 12 26 0 16 3 18 12 9 7 -7 20 -12 30 -12 10 0 18 -8 19 -17
0 -13 2 -14 6 -4 3 8 -2 20 -13 28 -16 11 -16 13 -1 13 10 0 14 5 11 15 -4 10
0 15 11 15 10 0 13 -5 9 -12 -4 -7 -3 -8 4 -4 15 9 16 36 2 36 -5 0 -10 7 -10
16 0 11 6 14 23 9 19 -5 20 -5 4 5 -10 7 -24 9 -32 7 -20 -8 -25 2 -15 29 6
15 6 24 0 24 -6 0 -10 7 -10 15 0 8 6 15 14 15 8 0 23 11 34 25 11 14 27 25
35 25 8 0 17 7 21 15 3 10 -1 15 -11 15 -13 0 -14 3 -5 12 21 21 14 39 -13 34
-14 -3 -23 -1 -20 5 4 5 16 9 28 10 l22 0 -22 9 c-22 9 -32 30 -14 30 5 0 7 9
4 20 -7 27 14 26 22 -1 6 -17 9 -18 16 -8 4 7 3 19 -2 25 -7 9 -3 20 13 39 23
27 30 65 14 76 -11 9 2 79 15 79 6 0 7 4 4 10 -3 5 1 20 9 32 9 14 12 29 7 36
-5 8 -10 13 -12 11 -2 -1 -15 1 -29 5 -14 5 -28 9 -32 10 -5 0 -8 6 -9 11 -1
6 -5 18 -10 28 -6 11 -6 17 1 17 5 0 1 9 -10 20 -13 13 -17 26 -12 37 6 16 7
16 10 -3 2 -16 8 -20 26 -17 18 4 25 -1 30 -21 3 -14 16 -31 29 -37 20 -11 21
-11 9 4 -11 13 -10 17 5 26 15 9 15 12 4 20 -10 7 -8 12 10 25 13 9 20 16 16
16 -4 0 -3 9 3 19 7 13 7 22 0 26 -16 10 -12 33 8 38 13 4 12 5 -4 6 -25 1
-35 20 -27 49 5 21 43 38 43 19 0 -6 2 -8 5 -5 3 3 2 24 -4 47 -6 28 -6 41 2
41 6 0 7 3 4 7 -4 3 -2 12 3 19 8 9 4 18 -15 33 -29 22 -26 42 5 34 11 -3 20
0 20 6 0 6 -6 11 -14 11 -7 0 -19 7 -26 15 -20 24 -28 18 -28 -21z m8 -118 c0
-5 -9 -1 -20 9 -11 10 -20 22 -20 26 0 5 9 1 20 -8 11 -10 20 -22 20 -27z
m-50 -6 c0 -5 -9 -14 -20 -20 -19 -10 -20 -10 -8 9 13 22 28 28 28 11z m60
-40 c0 -5 -5 -10 -11 -10 -5 0 -7 5 -4 10 3 6 8 10 11 10 2 0 4 -4 4 -10z
m-29 -56 c8 -23 3 -34 -17 -34 -11 0 -13 6 -9 20 4 11 3 20 -2 19 -16 -3 -24
1 -19 10 10 15 39 6 47 -15z m-98 -190 c-7 -3 -9 -12 -6 -20 6 -16 -13 -19
-23 -3 -7 11 13 29 31 28 6 0 5 -3 -2 -5z m81 -133 c-2 -2 -11 -1 -20 3 -14 5
-14 9 -3 22 12 14 14 14 20 -3 3 -10 5 -20 3 -22z m-34 -76 c0 -8 -7 -15 -15
-15 -16 0 -20 12 -8 23 11 12 23 8 23 -8z m-15 -55 c3 -5 1 -10 -4 -10 -6 0
-11 5 -11 10 0 6 2 10 4 10 3 0 8 -4 11 -10z m-145 -410 c0 -5 -4 -10 -10 -10
-5 0 -10 5 -10 10 0 6 5 10 10 10 6 0 10 -4 10 -10z m-52 -171 c-2 -6 -8 -10
-13 -10 -5 0 -11 4 -13 10 -2 6 4 11 13 11 9 0 15 -5 13 -11z m3 -52 c-5 -5
-7 -16 -4 -23 3 -9 -2 -14 -12 -14 -12 0 -15 5 -11 16 3 9 6 22 6 30 0 8 6 11
16 7 10 -4 12 -9 5 -16z m42 -42 c-5 -13 -23 -22 -23 -11 0 15 14 35 21 31 4
-3 6 -12 2 -20z m-938 -225 c3 -5 1 -10 -4 -10 -6 0 -11 5 -11 10 0 6 2 10 4
10 3 0 8 -4 11 -10z m835 -90 c0 -5 -4 -10 -10 -10 -5 0 -10 5 -10 10 0 6 5
10 10 10 6 0 10 -4 10 -10z m-40 -54 c0 -3 -4 -8 -10 -11 -5 -3 -10 -1 -10 4
0 6 5 11 10 11 6 0 10 -2 10 -4z m20 -176 c0 -5 -5 -10 -11 -10 -5 0 -7 5 -4
10 3 6 8 10 11 10 2 0 4 -4 4 -10z m-833 -265 c9 -24 -1 -27 -15 -5 -8 13 -8
20 -2 20 6 0 13 -7 17 -15z m-7 -125 c8 -5 12 -11 10 -14 -3 -2 -14 2 -24 10
-22 15 -10 19 14 4z m-30 -50 c0 -5 -5 -10 -11 -10 -5 0 -7 5 -4 10 3 6 8 10
11 10 2 0 4 -4 4 -10z m107 4 c-3 -3 -12 -4 -19 -1 -8 3 -5 6 6 6 11 1 17 -2
13 -5z m550 -36 c-3 -8 -6 -5 -6 6 -1 11 2 17 5 13 3 -3 4 -12 1 -19z m-17 2
c0 -5 -2 -10 -4 -10 -3 0 -8 5 -11 10 -3 6 -1 10 4 10 6 0 11 -4 11 -10z
m-505 -41 c10 -15 -1 -23 -20 -15 -9 3 -13 10 -10 16 8 13 22 13 30 -1z m-10
-89 c3 -5 2 -10 -4 -10 -5 0 -13 5 -16 10 -3 6 -2 10 4 10 5 0 13 -4 16 -10z
m335 -80 c0 -5 -2 -10 -4 -10 -3 0 -8 5 -11 10 -3 6 -1 10 4 10 6 0 11 -4 11
-10z"/>
<path d="M6768 2948 c-5 -15 22 -49 34 -42 4 3 8 -2 8 -10 0 -8 -4 -18 -10
-21 -15 -9 -12 -25 4 -19 7 3 16 -2 19 -10 5 -12 -3 -14 -49 -12 -30 2 -57 -1
-60 -5 -3 -5 4 -9 15 -9 28 0 32 -22 7 -43 l-20 -18 22 -6 c12 -3 22 -9 22
-14 0 -14 -49 -58 -54 -48 -2 5 -3 4 -2 -3 1 -7 15 -14 29 -16 15 -2 27 -6 27
-10 0 -11 -17 -34 -24 -33 -23 3 -30 0 -18 -7 17 -11 4 -45 -14 -38 -17 6 -19
-10 -3 -20 6 -3 16 -1 22 5 14 14 54 14 62 1 3 -5 19 -10 36 -10 16 0 29 5 29
10 0 6 -4 10 -10 10 -5 0 -10 8 -10 18 0 10 -7 27 -15 39 -14 20 -14 24 2 40
10 10 26 17 36 15 18 -4 22 17 8 52 -7 18 -8 18 -14 3 -8 -22 -77 -24 -77 -3
0 8 7 16 15 20 8 3 15 12 15 19 0 10 8 13 28 9 15 -2 24 -1 20 3 -4 4 0 21 8
37 18 35 12 67 -10 49 -10 -8 -15 -5 -24 14 -6 14 -17 25 -23 25 -6 0 -9 9 -6
20 6 22 -18 29 -25 8z"/>
<path d="M1937 2942 c-10 -2 -22 -15 -28 -28 -5 -14 -13 -22 -19 -19 -5 3 -10
2 -10 -3 0 -16 48 -21 54 -6 3 8 13 11 23 8 15 -5 16 -4 3 5 -13 10 -13 13 3
25 20 15 6 25 -26 18z"/>
<path d="M6830 2936 c0 -8 4 -17 9 -20 5 -4 7 3 4 14 -6 23 -13 26 -13 6z"/>
<path d="M11287 2943 c-3 -4 3 -19 14 -32 18 -22 19 -22 19 -3 0 21 -25 48
-33 35z"/>
<path d="M475 2930 c-4 -6 -2 -17 4 -23 15 -15 25 -2 13 19 -7 12 -11 13 -17
4z"/>
<path d="M1990 2920 c0 -5 5 -10 11 -10 5 0 7 5 4 10 -3 6 -8 10 -11 10 -2 0
-4 -4 -4 -10z"/>
<path d="M10880 2920 c0 -7 -7 -9 -16 -6 -24 9 -34 -2 -24 -29 6 -17 5 -27 -5
-35 -10 -8 -14 -8 -18 2 -4 10 -6 10 -6 0 -1 -20 26 -43 43 -36 9 3 13 11 10
16 -4 6 3 5 15 -1 17 -10 21 -9 21 4 0 8 -6 15 -13 15 -8 0 -14 7 -14 15 0 11
3 12 14 3 11 -9 18 -7 31 5 15 16 15 17 -7 17 -16 0 -21 4 -18 15 4 8 2 17 -3
20 -6 4 -10 1 -10 -5z"/>
<path d="M1560 2860 c0 -5 5 -10 10 -10 6 0 10 5 10 10 0 6 -4 10 -10 10 -5 0
-10 -4 -10 -10z"/>
<path d="M2005 2860 c3 -5 8 -10 11 -10 2 0 4 5 4 10 0 6 -5 10 -11 10 -5 0
-7 -4 -4 -10z"/>
<path d="M11635 2850 c-7 -12 18 -24 37 -18 8 3 5 9 -9 16 -14 8 -24 9 -28 2z"/>
<path d="M1847 2826 c-4 -9 3 -25 16 -37 12 -11 18 -20 12 -19 -23 5 -34 -1
-29 -15 4 -10 0 -15 -10 -15 -12 0 -15 -6 -10 -24 3 -14 0 -29 -9 -38 -11 -11
-12 -19 -4 -33 7 -14 7 -20 -1 -23 -7 -2 -12 -12 -12 -23 0 -10 -7 -19 -15
-19 -18 0 -19 -12 -4 -27 13 -13 2 -36 -12 -27 -6 3 -9 0 -8 -7 1 -8 -1 -22
-6 -32 -4 -9 -5 -26 -2 -37 3 -13 0 -20 -9 -20 -8 0 -14 -3 -15 -7 0 -5 -2
-16 -5 -25 -2 -10 -5 -25 -7 -33 -2 -8 -6 -18 -10 -21 -12 -13 -8 -36 6 -28 8
5 8 3 -2 -9 -7 -9 -11 -28 -8 -43 3 -18 1 -24 -9 -20 -8 3 -14 1 -14 -4 0 -6
8 -10 17 -10 15 0 14 -2 -3 -15 -19 -14 -19 -15 3 -21 12 -3 22 -13 22 -22 0
-10 2 -36 4 -60 3 -32 0 -45 -12 -52 -14 -8 -13 -11 7 -16 21 -6 22 -8 7 -30
-12 -18 -13 -29 -5 -44 9 -17 8 -20 -12 -20 -18 0 -20 -2 -8 -10 19 -12 42 8
35 31 -3 9 0 21 6 25 8 4 9 3 5 -4 -13 -21 4 -33 22 -16 18 19 25 44 11 44 -5
0 -9 5 -9 11 0 6 7 8 16 5 10 -4 14 -1 12 6 -3 7 -11 13 -19 13 -7 0 -15 8
-17 18 -2 9 1 17 7 17 13 0 41 29 41 42 0 5 -7 8 -15 4 -8 -3 -15 0 -15 7 0 7
10 13 21 14 31 3 48 21 30 33 -12 7 -12 11 -2 24 8 9 10 16 5 17 -5 1 1 4 14
7 30 9 31 24 2 38 -14 8 -18 14 -10 19 8 5 8 11 -1 22 -11 12 -8 13 15 7 25
-6 28 -5 21 15 -5 16 -3 20 9 15 9 -3 16 -1 16 5 0 6 -8 11 -17 11 -15 0 -16
2 -3 10 9 6 10 10 3 10 -6 0 -15 -4 -18 -10 -3 -5 -21 -10 -39 -10 -17 0 -36
-4 -42 -10 -6 -6 -15 -6 -24 0 -11 7 -12 10 -2 10 19 0 39 23 34 39 -3 9 2 11
16 7 11 -4 29 -3 39 3 10 5 33 15 51 21 38 15 42 40 10 64 -13 9 -17 14 -10
11 6 -3 12 -1 12 5 0 7 6 8 19 1 17 -9 20 -5 30 35 6 25 9 50 5 56 -4 5 0 14
7 19 10 6 11 11 3 17 -15 10 -14 44 2 38 8 -3 11 5 10 26 -1 18 3 32 11 35 8
3 11 13 8 24 -4 13 -1 19 9 19 9 0 16 5 16 10 0 12 -33 13 -45 1 -6 -5 -25
-12 -44 -16 -31 -7 -33 -5 -28 14 3 11 0 24 -5 28 -6 3 -8 1 -4 -5 13 -21 -13
-22 -32 -2 -17 18 -20 19 -25 6z m3 -346 c0 -5 -2 -10 -4 -10 -3 0 -8 5 -11
10 -3 6 -1 10 4 10 6 0 11 -4 11 -10z m-13 -136 c-3 -3 -12 -4 -19 -1 -8 3 -5
6 6 6 11 1 17 -2 13 -5z m-27 -88 c0 -8 -7 -16 -15 -20 -10 -4 -15 1 -15 14 0
11 7 20 15 20 8 0 15 -6 15 -14z m-72 -45 c-1 -26 -3 -28 -19 -18 -17 10 -17
13 -2 29 21 23 22 23 21 -11z m62 -25 c0 -3 -4 -8 -10 -11 -5 -3 -10 -1 -10 4
0 6 5 11 10 11 6 0 10 -2 10 -4z m-34 -55 c1 -20 -1 -28 -3 -18 -3 9 -9 17
-14 17 -5 0 -9 8 -9 18 0 10 6 19 13 19 8 0 13 -13 13 -36z"/>
<path d="M1956 2826 c7 -19 38 -22 32 -3 -3 6 -12 13 -21 15 -12 2 -15 -1 -11
-12z"/>
<path d="M9692 2759 c-12 -19 -11 -19 8 -9 11 6 20 15 20 20 0 17 -15 11 -28
-11z"/>
<path d="M11527 2769 c-15 -9 -15 -11 3 -29 12 -12 17 -26 13 -36 -6 -15 -7
-15 -20 2 -7 10 -14 14 -14 8 -6 -38 -3 -64 5 -64 5 0 2 -6 -9 -13 -10 -8 -15
-19 -11 -26 16 -26 -38 -51 -56 -26 -4 6 -8 0 -8 -12 0 -12 -5 -25 -10 -28 -6
-4 -8 -15 -5 -25 4 -12 -1 -22 -12 -29 -14 -8 -8 -10 29 -8 46 2 62 11 36 19
-8 3 -9 6 -1 11 6 4 21 -3 34 -15 16 -14 18 -19 7 -15 -25 9 -34 -14 -13 -30
18 -12 18 -13 -2 -13 -12 0 -24 -6 -27 -12 -4 -7 -4 -3 -2 10 5 24 -11 31 -20
7 -5 -11 -11 -12 -25 -4 -15 8 -19 6 -19 -7 0 -10 -5 -14 -15 -10 -22 8 -18
-5 10 -38 20 -24 27 -27 39 -16 13 10 12 4 -2 -28 -12 -30 -20 -38 -29 -30 -7
5 -18 8 -25 5 -7 -2 -20 -1 -29 4 -13 6 -19 3 -24 -14 -4 -12 -6 -28 -6 -34 1
-7 -2 -13 -7 -13 -9 0 -18 -26 -28 -76 -4 -22 19 -40 37 -29 5 4 6 -1 3 -9 -7
-17 4 -23 56 -29 19 -3 43 -8 53 -12 10 -4 17 -3 17 4 0 10 -16 15 -47 14 -14
-1 -16 7 -7 30 4 11 15 14 40 10 36 -6 49 12 17 24 -14 5 -13 8 5 14 12 5 22
13 22 18 0 13 -34 24 -38 12 -4 -12 -42 9 -42 23 0 4 6 3 14 -3 18 -15 46 -4
46 19 0 10 7 23 15 30 16 13 21 45 6 36 -5 -3 -11 6 -14 21 -5 26 -5 26 12 7
9 -11 25 -26 35 -34 17 -13 19 -13 11 0 -15 25 -15 60 1 60 8 0 12 5 9 10 -3
6 -1 10 4 10 15 0 14 37 -1 42 -7 3 -8 9 -3 18 6 10 11 9 22 -6 13 -18 14 -17
8 6 -7 31 12 91 24 72 6 -9 12 -8 25 7 18 20 7 39 -15 25 -8 -5 -8 -1 0 14 7
13 8 29 2 44 -6 13 -10 17 -10 11 -1 -7 -5 -13 -10 -13 -15 0 1 44 23 62 13
11 16 17 8 18 -20 0 -43 27 -40 46 3 19 -21 26 -45 13z m25 -114 c0 -5 -5 -11
-11 -13 -6 -2 -11 4 -11 13 0 9 5 15 11 13 6 -2 11 -8 11 -13z m11 -88 c4 3 7
1 7 -5 0 -7 -4 -12 -10 -12 -5 0 -7 -8 -3 -17 5 -15 3 -14 -10 2 -21 25 -23
53 -4 36 8 -6 17 -8 20 -4z m-52 -24 c6 -18 4 -21 -12 -20 -10 1 -19 5 -19 10
0 4 -4 5 -10 2 -14 -9 -12 9 2 23 16 16 29 11 39 -15z m-61 -23 c0 -5 -5 -10
-11 -10 -5 0 -7 5 -4 10 3 6 8 10 11 10 2 0 4 -4 4 -10z"/>
<path d="M1482 2728 c-16 -16 -15 -38 1 -38 6 0 13 11 13 25 2 29 2 29 -14 13z"/>
<path d="M2820 2721 c0 -5 -3 -17 -6 -25 -5 -12 -2 -15 10 -10 18 7 21 29 6
39 -5 3 -10 2 -10 -4z"/>
<path d="M6830 2655 c-10 -12 -10 -15 4 -15 9 0 16 7 16 15 0 8 -2 15 -4 15
-2 0 -9 -7 -16 -15z"/>
<path d="M9930 2616 c0 -2 7 -9 15 -16 13 -11 14 -10 9 4 -5 14 -24 23 -24 12z"/>
<path d="M9881 2587 c-1 -15 -5 -16 -21 -7 -12 6 -20 7 -20 1 0 -5 -3 -16 -6
-24 -3 -9 0 -15 8 -14 43 1 59 -5 67 -26 8 -20 15 -23 40 -19 31 4 34 7 34 37
0 33 -5 50 -10 38 -2 -7 -11 -13 -19 -13 -9 0 -13 -4 -9 -9 3 -5 1 -12 -4 -15
-5 -4 -12 -2 -15 3 -4 5 -2 12 4 16 18 11 10 25 -14 25 -13 0 -27 6 -29 13 -3
7 -6 5 -6 -6z"/>
<path d="M6741 2545 l-24 -13 24 -7 c22 -7 23 -8 4 -15 -13 -5 -24 -1 -35 12
-17 22 -40 17 -58 -13 -10 -16 -10 -24 -1 -35 6 -8 8 -14 3 -14 -5 0 -3 -4 5
-9 16 -10 6 -31 -14 -31 -26 0 -9 -35 19 -38 21 -3 26 0 20 10 -6 11 -5 11 8
0 13 -10 17 -10 21 0 3 7 6 3 6 -8 1 -23 40 -77 41 -56 0 6 7 12 15 12 8 0 15
9 15 21 0 11 -4 17 -10 14 -5 -3 -10 -2 -10 3 0 5 11 14 24 20 19 8 23 16 19
34 -3 13 -10 28 -14 34 -5 5 -6 20 -2 32 4 17 2 21 -10 16 -12 -4 -14 -1 -10
14 7 26 -7 33 -36 17z m39 -60 c0 -8 -4 -15 -10 -15 -5 0 -10 7 -10 15 0 8 5
15 10 15 6 0 10 -7 10 -15z m-69 -38 c-8 -8 -14 -8 -23 1 -9 9 -8 12 5 12 9 0
17 6 18 13 0 9 2 8 6 -1 3 -8 0 -19 -6 -25z"/>
<path d="M8731 2490 c-15 -35 -3 -60 29 -60 14 0 17 8 16 45 -1 54 -24 61 -45
15z"/>
<path d="M9858 2487 c-12 -9 -14 -17 -7 -30 7 -11 6 -17 -1 -17 -6 0 -13 6
-16 14 -10 25 -32 27 -31 3 1 -31 -6 -50 -23 -65 -13 -12 -13 -13 3 -8 18 6
25 -18 7 -29 -5 -3 -10 -1 -10 4 0 6 -4 11 -10 11 -5 0 -10 -13 -10 -29 0 -16
-5 -31 -11 -33 -8 -3 -6 -10 5 -21 10 -9 22 -15 27 -12 9 6 10 5 14 -32 2 -18
-3 -23 -21 -23 -13 0 -24 5 -24 11 0 8 -5 7 -15 -1 -9 -7 -14 -18 -12 -24 2
-6 -4 -32 -14 -58 -10 -28 -13 -50 -8 -54 9 -5 -17 -62 -36 -77 -5 -4 4 -5 20
-1 17 4 31 10 33 14 4 11 42 0 42 -12 0 -21 -22 -48 -40 -48 -10 0 -25 -6 -32
-13 -7 -7 -21 -16 -30 -20 -21 -7 -24 -27 -5 -27 8 -1 7 -5 -4 -13 -8 -7 -15
-21 -16 -32 0 -11 -3 -27 -7 -36 -7 -17 27 -60 57 -72 11 -4 17 -17 17 -38 0
-28 -2 -30 -16 -18 -13 11 -15 11 -14 -2 1 -7 2 -23 1 -34 -1 -15 -3 -17 -10
-6 -7 11 -11 10 -20 -5 -10 -18 -10 -18 -11 1 -1 19 -1 19 -11 2 -7 -12 -17
-16 -30 -12 -11 4 -19 2 -19 -4 0 -6 5 -11 10 -11 16 0 12 -22 -7 -36 -15 -11
-16 -15 -4 -26 11 -10 14 -10 18 0 7 17 23 15 23 -4 0 -8 -4 -13 -9 -10 -13 8
-32 -19 -26 -36 3 -8 -1 -21 -10 -28 -8 -7 -15 -20 -15 -29 0 -9 -7 -28 -15
-44 -18 -35 -26 -107 -11 -107 6 0 4 -5 -4 -10 -13 -8 -12 -11 7 -16 22 -6 38
-40 22 -50 -5 -3 -9 2 -9 10 0 16 -25 22 -33 9 -3 -5 -1 -17 3 -28 4 -12 2
-28 -6 -40 -16 -24 -26 -118 -13 -109 6 3 7 -8 4 -25 -6 -34 -3 -36 26 -21 17
9 19 7 19 -16 0 -21 4 -25 20 -21 11 3 23 1 26 -4 3 -5 -1 -9 -8 -9 -7 0 -26
-7 -42 -15 -16 -8 -36 -14 -44 -13 -8 2 -17 -3 -19 -9 -3 -7 0 -13 6 -13 6 0
11 -9 11 -21 0 -15 -4 -19 -16 -15 -14 5 -16 1 -10 -34 3 -22 2 -40 -3 -40
-10 0 -9 -19 2 -37 4 -7 4 -21 -1 -30 -5 -10 -7 -24 -5 -31 4 -10 11 -8 27 7
l22 21 2 -30 c2 -32 -30 -61 -44 -39 -19 32 -26 -73 -12 -186 4 -29 20 -36 35
-17 11 16 12 16 13 -2 0 -14 6 -17 25 -14 14 3 30 -1 36 -8 9 -11 7 -14 -12
-15 -22 0 -23 -1 -4 -9 11 -5 31 -9 44 -9 24 -1 24 -1 -5 21 l-28 22 24 6 c15
4 27 17 35 40 9 26 17 34 31 32 10 -2 21 -8 22 -13 9 -22 30 -6 37 28 l7 37
17 -22 c17 -23 17 -23 35 -3 10 11 24 17 31 14 8 -2 20 5 27 16 7 12 18 21 25
21 7 0 13 3 13 8 0 4 19 8 43 9 76 2 169 21 178 35 5 7 9 21 9 31 0 9 5 17 10
17 6 0 10 -6 9 -12 -4 -37 3 -40 22 -10 23 35 44 43 36 13 -3 -14 -1 -18 9
-14 8 3 14 0 14 -6 0 -6 19 -10 45 -9 26 0 45 5 45 12 0 7 3 7 8 -1 6 -10 28
-10 92 -3 79 9 194 38 160 39 -13 1 -13 2 0 11 13 9 12 12 -4 25 -11 8 -14 15
-8 15 7 0 12 9 12 20 0 11 -4 20 -10 20 -5 0 -10 -4 -10 -10 0 -14 -37 -12
-44 3 -4 9 -7 9 -12 0 -3 -8 -15 -8 -39 -2 -23 7 -41 6 -54 -1 -11 -5 -27 -7
-35 -4 -9 3 -16 1 -16 -6 0 -7 -8 -9 -19 -5 -10 3 -30 1 -44 -4 -17 -7 -28 -7
-32 -1 -9 14 -55 12 -55 -1 0 -7 -12 -9 -34 -5 -20 4 -37 2 -41 -4 -3 -5 -17
-10 -30 -10 -13 0 -27 -4 -30 -10 -3 -5 -16 -10 -28 -10 -18 0 -19 2 -7 10 12
7 12 12 2 22 -10 10 -18 6 -43 -22 -18 -19 -34 -29 -37 -23 -8 11 -64 24 -57
13 3 -4 -5 -18 -17 -31 -12 -14 -22 -19 -25 -13 -2 7 -13 10 -24 7 -12 -3 -18
-11 -15 -19 3 -7 1 -16 -4 -19 -6 -4 -10 3 -10 15 0 18 -5 20 -45 18 -28 -2
-45 -8 -45 -15 0 -7 -4 -13 -10 -13 -5 0 -10 -8 -10 -17 -1 -17 -1 -17 -14 0
-7 9 -18 17 -24 17 -18 0 -26 22 -11 30 7 5 14 26 15 47 2 21 6 50 10 65 5 24
2 29 -22 38 -19 8 -36 8 -57 0 -39 -13 -44 -13 -29 2 7 7 12 20 12 31 0 10 4
16 9 12 11 -6 21 6 26 36 6 28 7 29 45 34 40 5 47 12 31 28 -9 9 -14 9 -21 -3
-7 -11 -9 -9 -7 8 1 13 10 28 20 34 14 7 17 7 13 -1 -4 -6 -2 -11 3 -11 6 0
11 7 11 15 0 8 -9 15 -20 15 -13 0 -20 7 -20 20 0 11 5 20 11 20 5 0 9 8 8 18
-3 32 1 41 16 36 11 -5 14 2 13 28 -1 19 2 40 6 46 4 7 2 12 -3 12 -6 0 -11 5
-11 10 0 6 7 10 16 10 12 0 15 6 11 21 -3 12 -2 32 3 45 6 15 6 24 0 24 -6 0
-10 7 -10 15 0 8 7 15 15 15 8 0 15 5 15 11 0 5 -4 7 -10 4 -7 -4 -7 3 0 19 6
18 6 26 -1 26 -6 0 -7 5 -4 10 4 6 11 8 16 4 6 -3 9 0 8 7 -2 8 2 24 9 35 12
22 9 63 -6 73 -5 3 -11 18 -14 33 -4 19 -1 25 9 21 7 -3 13 -11 13 -19 0 -8
10 -4 26 11 28 26 44 32 44 17 0 -14 87 -4 112 12 22 14 66 15 88 1 6 -4 29
-3 52 0 39 7 40 8 23 21 -26 19 -10 18 20 -2 21 -13 25 -14 25 -2 0 29 21 37
51 19 16 -9 29 -19 29 -23 0 -5 5 -8 10 -8 6 0 10 7 10 16 0 14 3 14 15 4 17
-14 17 -14 32 13 9 17 12 17 24 4 18 -18 141 -16 163 2 8 7 21 9 28 5 7 -4 45
-7 85 -5 51 1 73 -2 73 -10 0 -7 8 -5 20 6 10 9 26 15 33 12 9 -3 19 4 26 19
6 15 7 24 1 24 -6 0 -10 -5 -10 -11 0 -6 -13 2 -29 17 -17 15 -27 32 -24 37 4
6 -3 8 -15 5 -12 -4 -22 -2 -22 2 0 18 -42 22 -60 5 -16 -14 -19 -15 -33 0
-14 13 -20 14 -37 3 -17 -11 -22 -11 -30 1 -7 12 -13 13 -35 3 -14 -7 -33 -12
-41 -12 -8 0 -38 -10 -65 -21 -35 -16 -47 -25 -40 -32 15 -15 14 -24 -5 -24
-12 0 -14 7 -11 27 5 22 1 28 -23 37 -16 6 -34 7 -41 2 -8 -5 -27 -9 -42 -9
-15 0 -30 -7 -33 -15 -4 -8 -10 -12 -15 -9 -6 3 -17 0 -25 -7 -12 -10 -20 -10
-43 4 -32 18 -68 19 -75 0 -4 -9 -12 -10 -31 -3 -18 7 -25 6 -26 -3 -1 -6 -2
-23 -2 -36 -2 -26 -27 -43 -27 -18 0 20 -31 31 -42 15 -11 -18 -10 -28 4 -28
7 0 3 -7 -9 -15 -12 -8 -29 -12 -38 -9 -14 6 -13 8 5 21 21 15 28 43 10 43 -5
0 -10 -5 -10 -12 0 -6 -10 1 -23 16 -16 18 -29 25 -40 20 -13 -4 -17 -1 -17
14 0 12 -4 23 -10 27 -12 8 0 37 14 32 6 -2 12 -10 12 -18 1 -8 2 -20 3 -26 2
-21 17 -15 19 7 4 46 6 51 18 46 8 -3 16 -1 19 4 4 6 -1 11 -9 11 -25 2 -30 4
-43 12 -7 5 -17 6 -21 3 -5 -3 -14 10 -19 29 -12 38 -5 49 23 38 12 -4 15 -3
10 5 -4 7 -1 12 6 12 20 0 20 -41 0 -56 -16 -12 -15 -13 4 -14 15 0 24 8 28
25 4 14 11 25 17 25 6 0 8 4 5 9 -4 5 3 7 15 4 18 -5 20 -2 16 23 -3 16 -6 34
-8 39 -5 16 12 56 20 50 5 -2 8 6 7 18 -1 12 -7 21 -13 20 -6 -1 -9 6 -6 16 3
13 -1 21 -14 24 -16 4 -16 5 0 6 19 1 21 9 7 31 -8 12 -11 13 -19 1 -5 -8 -11
-9 -15 -3 -3 6 2 18 11 28 10 10 19 21 19 26 1 4 2 12 3 17 0 6 17 7 38 4 24
-4 34 -3 29 5 -3 5 -2 12 4 14 16 5 21 51 7 60 -6 4 -12 11 -12 15 0 16 -40
60 -52 56 -6 -2 -13 4 -16 14 -4 16 -5 16 -6 -2 -1 -15 -4 -17 -10 -7 -10 16
-2 62 10 62 5 0 9 -7 9 -16 0 -10 6 -14 15 -10 8 3 14 1 12 -3 -2 -10 2 -11
39 -11 14 0 23 4 19 10 -7 12 19 42 29 33 3 -3 8 2 12 11 4 10 2 22 -5 29 -8
8 -11 8 -11 -2 0 -11 -3 -11 -15 -1 -8 7 -15 9 -15 4 0 -4 -5 -3 -12 4 -15 15
-19 15 -40 -1z m2 -157 c0 -5 -2 -10 -4 -10 -3 0 -8 5 -11 10 -3 6 -1 10 4 10
6 0 11 -4 11 -10z m-26 -26 c4 -9 4 -19 1 -22 -6 -6 -35 18 -35 29 0 16 28 10
34 -7z m39 -60 c-3 -8 -9 -14 -13 -14 -14 0 -21 17 -14 34 5 12 10 14 20 6 7
-7 10 -18 7 -26z m-57 -46 c5 -8 2 -9 -9 -5 -11 4 -17 1 -17 -8 0 -7 -9 -13
-20 -12 -18 1 -18 2 -2 18 20 21 38 24 48 7z m-33 -208 c-6 -23 7 -26 26 -7
10 10 12 7 9 -12 -2 -14 -11 -25 -21 -27 -9 -1 -15 2 -12 6 3 5 -2 13 -12 18
-14 9 -15 13 -4 26 18 21 20 20 14 -4z m-73 -124 c0 -2 -7 -9 -15 -16 -12 -10
-15 -10 -15 4 0 9 7 16 15 16 8 0 15 -2 15 -4z m-16 -95 c-9 -11 -21 13 -16
32 6 22 6 22 12 -3 4 -14 6 -27 4 -29z m559 -38 c-7 -2 -13 -11 -13 -19 0 -8
-10 -14 -25 -14 -32 0 -34 27 -2 33 32 6 55 7 40 0z m217 -23 c0 -5 -7 -10
-15 -10 -8 0 -15 5 -15 10 0 6 7 10 15 10 8 0 15 -4 15 -10z m-825 -210 c4 -6
1 -9 -7 -8 -7 2 -12 -2 -11 -9 2 -7 -4 -10 -12 -6 -13 5 -13 7 2 19 22 16 20
16 28 4z m-75 -140 c0 -5 8 -10 17 -10 13 0 14 -3 5 -12 -8 -8 -15 -8 -27 2
-17 14 -20 30 -5 30 6 0 10 -4 10 -10z m79 -113 c1 -5 -6 -1 -15 7 -8 9 -12
21 -8 28 5 8 10 6 15 -8 4 -10 8 -23 8 -27z m-36 -14 c-6 -16 -25 -13 -31 5
-2 6 6 10 16 9 12 -1 18 -6 15 -14z m-3 -33 c0 -5 -5 -10 -11 -10 -5 0 -7 5
-4 10 3 6 8 10 11 10 2 0 4 -4 4 -10z m20 -30 c0 -5 -4 -10 -10 -10 -5 0 -10
5 -10 10 0 6 5 10 10 10 6 0 10 -4 10 -10z m-39 -53 c-1 -12 -15 -9 -19 4 -3
6 1 10 8 8 6 -3 11 -8 11 -12z m-31 -178 c0 -6 -8 -13 -19 -16 -10 -3 -23 -14
-29 -26 -10 -21 -11 -21 -11 4 -1 17 6 29 22 37 29 14 37 14 37 1z m-70 -69
c0 -5 -2 -10 -4 -10 -3 0 -8 5 -11 10 -3 6 -1 10 4 10 6 0 11 -4 11 -10z m10
-49 c0 -5 -7 -11 -15 -15 -15 -5 -20 5 -8 17 9 10 23 9 23 -2z m46 -88 c-7 -7
-26 7 -26 19 0 6 6 6 15 -2 9 -7 13 -15 11 -17z m419 -12 c3 -5 1 -12 -5 -16
-5 -3 -10 1 -10 9 0 18 6 21 15 7z m-435 -37 c0 -8 -5 -12 -10 -9 -6 4 -8 11
-5 16 9 14 15 11 15 -7z"/>
<path d="M1301 2485 c-1 -14 -49 -21 -96 -13 -16 2 -21 -3 -23 -27 -2 -16 -13
-38 -25 -48 -12 -10 -16 -15 -8 -11 9 4 12 2 9 -7 -2 -7 -14 -16 -26 -19 -37
-9 -85 -110 -52 -110 6 0 10 7 10 15 0 12 7 14 26 9 25 -6 27 -5 22 20 -4 22
-1 29 18 36 13 5 29 18 35 28 15 24 55 17 63 -11 5 -22 5 -22 20 -2 9 11 16
16 16 11 0 -5 8 0 18 11 9 11 24 23 32 26 8 4 3 5 -12 2 -34 -6 -45 11 -22 36
14 15 15 24 6 41 -6 13 -11 18 -11 13z m-67 -60 c11 -8 17 -17 14 -21 -8 -8
-48 14 -48 26 0 14 12 12 34 -5z"/>
<path d="M3685 2442 c-3 -3 -5 -12 -5 -21 0 -14 2 -14 10 -1 8 12 10 11 10 -7
0 -12 -5 -25 -11 -28 -7 -5 -5 -12 4 -23 8 -10 19 -33 25 -53 9 -34 9 -36 -15
-33 -30 3 -41 -21 -24 -49 11 -17 11 -19 -3 -14 -13 5 -14 2 -5 -21 6 -14 15
-33 22 -42 6 -8 2 -6 -11 4 -12 11 -25 16 -30 12 -4 -4 5 -18 20 -31 16 -14
23 -27 18 -30 -6 -4 -7 -13 -2 -22 13 -23 2 -65 -15 -59 -11 5 -13 0 -8 -23 5
-23 2 -29 -14 -34 -17 -4 -21 -13 -21 -43 0 -37 0 -37 21 -18 l21 19 -7 -38
c-6 -30 -4 -37 9 -37 9 0 16 -4 16 -10 0 -10 -13 -14 -41 -11 -12 1 -15 -4
-12 -24 3 -14 12 -25 22 -26 9 0 11 -3 4 -5 -7 -3 -9 -12 -6 -20 3 -8 1 -14
-5 -14 -6 0 -12 5 -14 12 -3 7 -7 6 -11 -5 -3 -9 -2 -17 3 -17 6 0 10 -7 10
-15 0 -8 -4 -15 -10 -15 -5 0 -10 -6 -10 -14 0 -9 11 -13 32 -12 17 0 33 -5
35 -11 3 -7 -2 -13 -11 -13 -9 0 -16 -4 -16 -10 0 -5 5 -10 10 -10 6 0 10 -4
10 -10 0 -5 -7 -10 -15 -10 -8 0 -15 -9 -15 -20 0 -14 -7 -20 -22 -20 -23 -1
-23 -1 -3 -16 17 -12 17 -16 6 -24 -12 -7 -12 -11 -2 -24 10 -12 9 -16 -6 -25
-14 -7 -19 -19 -17 -42 1 -18 -4 -42 -12 -53 -9 -13 -10 -23 -3 -32 6 -8 5
-14 -6 -18 -13 -5 -15 -16 -11 -56 3 -27 1 -50 -4 -50 -10 0 -23 -35 -25 -70
-1 -14 -3 -28 -5 -32 -5 -15 -8 -28 -9 -49 0 -11 -6 -17 -11 -14 -6 4 -17 -11
-26 -32 -8 -21 -20 -48 -26 -60 -8 -17 -8 -26 1 -37 10 -11 9 -16 -1 -23 -7
-4 -13 -15 -13 -23 0 -8 -9 -15 -20 -15 -12 0 -22 -9 -26 -25 -4 -14 -8 -18
-8 -10 -1 11 -7 8 -21 -10 -11 -14 -18 -33 -16 -42 3 -11 -5 -20 -25 -27 -16
-5 -29 -14 -29 -19 0 -5 -11 -21 -25 -36 -24 -26 -24 -27 -4 -21 17 6 21 4 16
-8 -3 -9 0 -14 11 -13 9 0 16 -5 14 -12 -1 -7 5 -15 13 -19 12 -4 10 -9 -11
-20 -15 -7 -32 -12 -38 -9 -7 3 -6 5 2 5 22 2 13 19 -14 24 -19 3 -24 1 -20
-10 4 -8 1 -11 -5 -7 -6 4 -15 0 -20 -7 -5 -8 -3 -16 4 -21 9 -5 8 -12 -5 -24
-17 -17 -43 -10 -32 8 5 8 1 9 -10 5 -10 -4 -23 -7 -28 -7 -6 0 -8 -3 -4 -7 4
-4 -8 -13 -26 -19 -27 -9 -33 -16 -32 -37 1 -15 -2 -24 -7 -22 -4 3 -9 1 -11
-4 -3 -9 -50 -18 -100 -20 -10 -1 -18 -8 -18 -17 0 -8 4 -13 9 -10 5 3 14 -1
21 -10 10 -11 10 -18 2 -26 -9 -9 -12 -9 -12 0 0 7 -4 12 -10 12 -19 0 -10
-39 11 -45 27 -9 105 -9 119 0 6 4 9 13 6 21 -3 8 1 14 8 14 8 0 17 -6 19 -12
3 -8 6 -5 6 5 1 10 5 16 10 13 15 -10 89 26 94 46 3 11 15 22 26 25 12 3 21 9
21 15 0 5 -8 4 -19 -2 -23 -12 -31 -13 -31 -2 0 4 18 15 40 25 26 11 42 25 46
42 6 24 24 35 24 15 0 -6 10 -2 22 10 12 11 27 20 34 20 23 0 44 31 44 66 0
30 3 34 28 35 26 0 26 1 5 9 -30 12 -30 24 -1 14 20 -6 21 -5 9 10 -8 9 -9 16
-3 16 6 0 14 -4 17 -10 10 -17 25 -11 25 10 0 11 7 20 15 20 8 0 21 13 30 29
8 17 26 42 40 57 13 14 24 29 23 33 -1 3 6 20 15 38 19 36 22 63 7 63 -5 0 -7
-7 -3 -16 4 -12 0 -14 -23 -8 -16 4 -30 8 -32 9 -6 5 22 45 31 45 4 0 6 -4 3
-9 -4 -5 7 -4 24 2 30 11 41 27 18 27 -6 0 -1 11 11 24 14 15 23 38 24 59 1
22 5 33 13 30 14 -5 25 35 17 65 -3 12 0 29 7 37 9 11 10 18 1 28 -6 8 -7 17
-3 21 4 4 8 20 9 34 1 15 5 42 9 61 5 23 3 36 -7 41 -11 7 -10 12 3 27 25 29
12 43 -24 25 -29 -14 -32 -14 -45 3 -16 22 -16 35 -2 55 9 13 10 13 8 0 -1 -8
3 -26 9 -40 11 -25 11 -25 11 -2 1 13 5 21 10 18 18 -11 41 7 41 31 0 14 8 32
18 40 12 10 13 16 5 19 -7 3 -9 12 -6 19 3 8 -2 22 -12 31 -18 19 -12 68 11
92 17 16 18 32 3 32 -7 0 -17 8 -24 17 -11 15 -15 16 -31 3 -16 -13 -17 -13
-12 1 4 9 1 22 -5 28 -8 8 -8 11 1 11 8 0 10 8 7 23 -5 18 -2 22 20 23 31 2
32 -12 3 -36 -27 -21 -16 -40 12 -22 11 7 26 12 34 12 11 0 14 9 11 36 -3 22
-1 33 5 29 5 -3 10 1 10 9 0 9 -7 16 -16 16 -8 0 -13 4 -10 9 4 5 0 12 -6 14
-8 4 -7 6 4 6 9 1 20 6 23 11 8 13 -25 90 -39 90 -5 0 -7 3 -4 6 4 3 17 0 29
-7 23 -12 23 -12 6 14 -16 25 -16 27 5 41 12 9 18 19 14 23 -4 4 -11 2 -15 -5
-6 -10 -10 -10 -20 2 -10 12 -10 20 0 38 7 13 14 29 15 37 2 8 10 21 18 30 15
14 16 13 17 -4 0 -20 1 -20 8 -1 4 11 5 31 3 45 -5 24 -6 24 -14 6 -6 -16 -7
-13 -4 10 5 33 -10 69 -24 60 -5 -3 -16 10 -26 30 -9 19 -20 38 -24 40 -13 8
-69 13 -75 7z m86 -57 c0 -5 -5 -11 -13 -13 -10 -3 -10 -1 1 6 11 8 10 11 -5
15 -16 5 -16 6 -1 4 10 -1 18 -6 18 -12z m-31 -45 c0 -5 -4 -10 -10 -10 -5 0
-10 5 -10 10 0 6 5 10 10 10 6 0 10 -4 10 -10z m70 -37 c0 -7 -6 -13 -14 -13
-7 0 -18 6 -24 13 -8 9 -4 12 14 12 13 0 24 -6 24 -12z m-75 -81 c-8 -8 -25
10 -25 26 0 13 2 13 14 -4 8 -10 13 -21 11 -22z m43 -7 c-6 -14 -18 -23 -29
-22 -23 2 -25 15 -4 23 8 4 13 9 11 13 -3 4 4 7 14 8 16 1 17 -2 8 -22z m-8
-97 c0 -26 -25 -17 -26 9 -1 14 3 20 12 16 8 -3 14 -14 14 -25z m-63 -90 c-3
-8 -6 -5 -6 6 -1 11 2 17 5 13 3 -3 4 -12 1 -19z m83 12 c0 -5 -5 -10 -11 -10
-5 0 -7 5 -4 10 3 6 8 10 11 10 2 0 4 -4 4 -10z m-80 -165 c0 -8 -2 -15 -4
-15 -2 0 -6 7 -10 15 -3 8 -1 15 4 15 6 0 10 -7 10 -15z m25 -265 c7 -21 0
-40 -15 -40 -5 0 -8 13 -7 30 2 34 13 39 22 10z m5 -180 c0 -5 -5 -10 -11 -10
-5 0 -7 5 -4 10 3 6 8 10 11 10 2 0 4 -4 4 -10z m-30 -35 c0 -8 -2 -15 -4 -15
-2 0 -6 7 -10 15 -3 8 -1 15 4 15 6 0 10 -7 10 -15z m-48 -66 c16 -9 18 -13 7
-20 -14 -8 -39 6 -39 22 0 12 7 11 32 -2z m58 -13 c0 -3 -4 -8 -10 -11 -5 -3
-10 -1 -10 4 0 6 5 11 10 11 6 0 10 -2 10 -4z m-110 -56 c0 -5 -4 -10 -10 -10
-5 0 -10 5 -10 10 0 6 5 10 10 10 6 0 10 -4 10 -10z m82 -15 c-2 -14 -6 -25
-8 -25 -2 0 -4 11 -4 25 0 14 4 25 9 25 4 0 6 -11 3 -25z m-52 0 c0 -8 5 -15
10 -15 6 0 10 -10 10 -22 0 -22 0 -22 -13 -3 -20 29 -28 55 -17 55 6 0 10 -7
10 -15z m-35 -85 c3 -5 1 -10 -4 -10 -6 0 -11 5 -11 10 0 6 2 10 4 10 3 0 8
-4 11 -10z m66 -73 c-16 -16 -26 0 -10 19 9 11 15 12 17 4 2 -6 -1 -17 -7 -23z
m-64 -73 c-3 -3 -12 -4 -19 -1 -8 3 -5 6 6 6 11 1 17 -2 13 -5z m-64 -57 c3
-8 -1 -14 -8 -14 -7 0 -11 6 -8 14 3 7 6 13 8 13 2 0 5 -6 8 -13z m2 -47 c-5
-9 -55 -1 -55 9 0 4 13 6 30 3 16 -2 28 -8 25 -12z m-25 -25 c0 -8 -2 -15 -4
-15 -2 0 -6 7 -10 15 -3 8 -1 15 4 15 6 0 10 -7 10 -15z m-30 -45 c0 -5 -4
-10 -10 -10 -5 0 -10 5 -10 10 0 6 5 10 10 10 6 0 10 -4 10 -10z m-133 -96
c-3 -3 -12 -4 -19 -1 -8 3 -5 6 6 6 11 1 17 -2 13 -5z m48 -14 c3 -5 -1 -10
-10 -10 -9 0 -13 5 -10 10 3 6 8 10 10 10 2 0 7 -4 10 -10z m35 -28 c0 -4 -9
-13 -20 -20 -22 -13 -23 -12 -14 12 6 16 34 23 34 8z m-196 -167 c-4 -8 -8
-15 -10 -15 -2 0 -4 7 -4 15 0 8 4 15 10 15 5 0 7 -7 4 -15z m-27 -37 c-3 -7
-5 -2 -5 12 0 14 2 19 5 13 2 -7 2 -19 0 -25z m-124 -88 c-5 -20 -21 -36 -28
-28 -5 4 23 48 30 48 2 0 1 -9 -2 -20z"/>
<path d="M2615 2400 c-3 -5 1 -10 10 -10 9 0 13 5 10 10 -3 6 -8 10 -10 10 -2
0 -7 -4 -10 -10z"/>
<path d="M9931 2388 c-1 -16 4 -28 9 -28 12 0 12 8 0 35 -8 18 -9 17 -9 -7z"/>
<path d="M9901 2376 c-16 -19 -6 -37 16 -29 10 4 14 2 9 -5 -3 -6 -2 -13 3
-16 5 -4 12 -2 15 3 4 5 1 13 -5 16 -6 4 -14 16 -18 27 -6 18 -9 18 -20 4z"/>
<path d="M11350 2365 c0 -9 6 -12 15 -9 8 4 15 10 15 15 0 5 -7 9 -15 9 -8 0
-15 -7 -15 -15z"/>
<path d="M2622 2365 c4 -5 3 -14 -3 -21 -14 -17 8 -29 26 -14 11 9 15 9 15 1
0 -6 5 -11 11 -11 15 0 -8 28 -35 42 -12 6 -18 7 -14 3z"/>
<path d="M6647 2344 c-11 -14 -16 -28 -12 -32 4 -4 13 1 20 11 13 18 14 18 24
-2 13 -24 14 -34 2 -26 -6 3 -15 -3 -21 -12 -11 -17 -11 -17 -6 0 4 12 2 17
-5 15 -7 -2 -13 -18 -14 -36 -2 -29 1 -34 21 -31 8 1 24 -22 24 -34 0 -4 -17
2 -37 13 -41 22 -58 25 -48 11 3 -5 0 -21 -6 -35 -15 -33 -4 -46 17 -20 11 13
17 15 20 6 3 -6 10 -10 15 -6 15 9 10 -13 -6 -26 -8 -6 -19 -9 -25 -5 -5 3
-10 -1 -10 -9 0 -9 7 -16 16 -16 23 0 10 -68 -18 -95 l-20 -20 6 30 c7 34 -8
66 -22 50 -14 -15 -25 -98 -12 -90 5 3 10 3 10 -2 0 -12 -20 -39 -20 -28 0 6
-4 4 -9 -4 -5 -8 -3 -27 6 -49 11 -26 12 -37 3 -42 -9 -6 -9 -9 0 -15 7 -4 13
1 17 14 5 21 23 30 23 11 0 -20 19 -10 22 12 4 29 24 34 31 6 6 -21 7 -21 26
-4 10 10 28 19 38 20 12 2 18 12 19 28 1 14 4 31 9 38 4 7 2 16 -6 21 -8 4
-16 4 -19 -2 -4 -5 -21 -6 -40 -3 -30 7 -32 8 -15 21 11 7 26 13 36 13 13 0
16 9 15 40 0 22 -4 40 -8 40 -15 0 -8 30 13 51 14 14 19 29 16 49 -5 31 20 51
34 28 13 -20 21 -2 14 31 -9 40 -22 47 -47 24 -21 -18 -21 -18 -13 2 8 21 8
75 -1 84 -3 3 -9 -1 -14 -9 -7 -10 -10 -11 -10 -2 0 19 -13 14 -33 -14z m31
-203 c-7 -12 -16 -21 -21 -21 -4 0 0 11 9 25 20 30 31 26 12 -4z m-11 -70 c11
-17 10 -20 -7 -18 -12 1 -20 9 -20 19 0 24 12 23 27 -1z m-87 -135 c0 -3 -4
-8 -10 -11 -5 -3 -10 -1 -10 4 0 6 5 11 10 11 6 0 10 -2 10 -4z"/>
<path d="M1213 2330 c7 -8 16 -18 21 -21 14 -10 -3 -29 -26 -29 -14 0 -18 5
-14 15 3 8 1 15 -4 15 -16 0 -21 -19 -10 -39 8 -16 6 -21 -10 -26 -11 -4 -18
-10 -15 -15 3 -5 -1 -15 -9 -23 -8 -8 -12 -17 -9 -21 4 -3 1 -6 -5 -6 -16 0
-24 17 -12 25 14 9 13 48 -2 43 -12 -4 -18 -25 -21 -78 -2 -40 -20 -44 -25 -5
-3 21 -8 25 -37 25 -37 0 -56 -23 -69 -87 -4 -17 -14 -34 -22 -37 -8 -3 -14
-12 -14 -20 0 -8 -8 -19 -17 -25 -15 -8 -16 -13 -5 -30 10 -18 10 -21 -4 -21
-9 0 -12 5 -8 11 4 7 1 10 -7 7 -8 -2 -18 -14 -24 -26 -5 -12 -14 -22 -20 -22
-5 0 -3 -5 5 -10 13 -8 13 -10 -2 -10 -21 0 -58 -59 -58 -94 0 -19 -5 -26 -18
-26 -10 0 -25 -11 -32 -25 -8 -14 -20 -23 -27 -21 -7 3 -15 1 -18 -4 -6 -9
-31 -8 -41 3 -13 13 -41 7 -59 -13 -18 -19 -17 -20 7 -20 37 0 49 -19 33 -50
-7 -14 -11 -37 -8 -51 3 -16 -1 -30 -11 -38 -12 -10 -13 -17 -4 -34 10 -20 11
-20 26 -1 14 18 14 18 8 -6 -3 -14 -6 -29 -6 -33 0 -5 -5 -5 -10 -2 -27 17
-47 -59 -25 -94 10 -17 33 -13 44 7 6 9 11 12 11 7 0 -6 -7 -20 -15 -31 -8
-12 -11 -24 -8 -28 3 -3 1 -6 -5 -6 -7 0 -12 5 -12 10 0 6 -7 10 -15 10 -8 0
-15 -9 -15 -19 0 -11 -7 -26 -15 -35 -18 -17 -14 -93 4 -89 6 2 11 -2 11 -8 0
-8 5 -8 15 1 9 8 15 9 15 2 0 -6 -5 -14 -10 -17 -6 -4 -8 -11 -5 -16 8 -11 3
-11 -29 1 -21 7 -26 6 -26 -5 0 -8 -5 -15 -11 -15 -5 0 -7 -4 -4 -10 3 -5 1
-10 -6 -10 -7 0 -9 -3 -6 -6 4 -4 13 -2 21 5 10 9 15 8 19 -3 5 -13 -16 -65
-32 -76 -22 -15 -41 -86 -45 -160 -2 -48 -8 -85 -15 -89 -6 -4 -14 -24 -18
-45 -5 -31 -2 -40 16 -52 29 -21 27 -36 -4 -22 -30 14 -43 5 -24 -18 11 -14
11 -18 -4 -29 -9 -7 -17 -21 -17 -32 0 -10 -5 -24 -12 -31 -9 -9 -9 -12 1 -12
10 0 12 -9 8 -30 -4 -16 -2 -32 3 -35 6 -3 10 -11 10 -16 0 -6 -4 -8 -10 -4
-5 3 -14 -12 -21 -34 -7 -22 -16 -38 -20 -35 -13 7 -11 -28 2 -46 9 -13 10
-12 5 2 -3 12 -1 15 11 11 8 -3 19 0 24 8 8 11 9 9 7 -6 -2 -16 3 -20 25 -20
15 1 27 -5 27 -12 0 -8 -12 -11 -36 -9 -29 2 -38 -2 -46 -20 -13 -28 -3 -74
16 -74 8 0 16 -6 19 -12 3 -10 7 -10 20 0 13 11 16 10 19 -4 3 -15 5 -15 26 2
18 15 24 31 26 74 3 44 8 57 25 65 13 6 19 16 16 30 -2 11 -4 30 -4 43 -1 13
-13 34 -27 49 -14 14 -22 28 -19 31 3 4 10 0 15 -8 7 -12 12 -11 29 4 26 24
26 33 1 41 -28 9 -14 28 15 21 24 -6 25 -4 39 104 2 14 11 43 20 65 9 22 15
48 12 57 -2 10 0 20 5 24 5 3 0 15 -12 27 -16 17 -17 23 -6 25 9 2 18 21 22
49 5 33 9 42 16 32 7 -11 9 -9 9 9 0 16 -6 22 -22 22 -13 0 -30 5 -38 11 -12
9 -11 10 4 5 19 -7 19 -6 3 12 -24 27 -21 32 18 32 26 0 35 4 36 18 1 45 9 76
22 91 8 9 18 27 22 40 6 20 4 23 -10 17 -14 -5 -17 -2 -12 19 3 21 -1 29 -23
40 -32 16 -45 51 -23 59 8 3 12 9 9 14 -2 4 0 14 5 22 7 11 9 1 7 -32 -1 -26
1 -50 5 -54 4 -4 7 -2 7 4 0 7 7 12 16 12 14 0 15 7 10 43 -5 37 -4 40 8 25
18 -24 25 -23 18 4 -3 14 -2 19 6 14 15 -9 15 6 1 38 -12 25 -32 28 -72 11
-10 -4 -21 -5 -24 -1 -4 3 1 6 11 6 10 0 14 5 10 11 -5 8 2 10 22 6 27 -5 27
-4 9 9 -18 14 -18 14 2 14 12 0 23 -5 25 -11 2 -7 13 -9 28 -4 20 6 21 9 7 17
-10 5 -17 14 -17 19 0 11 25 39 34 39 12 0 86 80 86 94 0 7 7 16 15 20 11 4
14 13 9 32 -6 23 -4 25 14 20 12 -4 23 -2 28 5 5 8 2 10 -8 6 -12 -4 -14 -1
-11 14 4 12 15 19 32 20 26 1 25 2 -4 9 -16 4 -24 8 -17 9 6 0 12 8 12 16 0 8
8 15 17 15 14 0 13 3 -5 23 -12 13 -22 28 -22 35 0 6 -7 9 -17 5 -10 -4 -14
-2 -10 4 3 5 20 10 37 11 23 0 30 -4 30 -19 0 -22 22 -34 45 -25 13 4 14 10 5
26 -9 16 -8 20 5 20 9 0 14 4 11 9 -10 15 25 73 40 67 9 -4 14 2 14 15 0 12 8
23 20 26 20 5 34 37 28 63 -2 8 2 14 9 15 18 0 28 15 10 15 -10 0 -17 7 -17
15 0 18 12 19 27 4 9 -9 11 -2 9 25 -3 33 -1 38 25 43 18 3 26 10 22 19 -3 8
0 14 6 14 6 0 11 12 11 26 0 20 4 24 19 19 20 -6 39 11 26 23 -4 4 -10 1 -12
-6 -4 -9 -10 -6 -21 10 -9 13 -16 26 -15 30 2 4 -6 6 -17 5 -16 -1 -17 -4 -7
-17z m-163 -160 c0 -5 -2 -10 -4 -10 -3 0 -8 5 -11 10 -3 6 -1 10 4 10 6 0 11
-4 11 -10z m10 -146 c0 -8 -9 -14 -20 -14 -22 0 -26 10 -8 28 13 13 28 7 28
-14z m-40 -54 c0 -17 -3 -19 -19 -10 -13 7 -22 7 -26 0 -10 -17 -35 -11 -35 8
0 14 2 15 10 2 6 -9 10 -10 10 -3 0 11 18 19 48 22 6 0 12 -8 12 -19z m-65
-40 c3 -5 1 -10 -4 -10 -6 0 -11 5 -11 10 0 6 2 10 4 10 3 0 8 -4 11 -10z
m-95 -223 c0 -5 -4 -5 -10 -2 -5 3 -10 14 -10 23 0 15 2 15 10 2 5 -8 10 -19
10 -23z m-120 -156 c0 -6 -4 -13 -10 -16 -5 -3 -10 1 -10 9 0 9 5 16 10 16 6
0 10 -4 10 -9z m-43 -203 c-3 -8 -6 -5 -6 6 -1 11 2 17 5 13 3 -3 4 -12 1 -19z
m-63 -13 c-4 -8 -10 -15 -15 -15 -4 0 -6 7 -3 15 4 8 10 15 15 15 4 0 6 -7 3
-15z m50 -89 c-6 -17 -25 -21 -38 -9 -3 4 4 12 16 19 27 14 31 13 22 -10z
m-124 -191 c0 -12 -19 -12 -23 0 -4 9 -1 12 9 8 7 -3 14 -7 14 -8z m40 -1 c0
-2 -7 -4 -15 -4 -8 0 -15 4 -15 10 0 5 7 7 15 4 8 -4 15 -8 15 -10z m25 -124
c3 -5 1 -10 -4 -10 -6 0 -11 5 -11 10 0 6 2 10 4 10 3 0 8 -4 11 -10z m-90
-30 c3 -5 -1 -10 -10 -10 -9 0 -13 5 -10 10 3 6 8 10 10 10 2 0 7 -4 10 -10z
m69 -51 c-7 -11 -34 -12 -34 -1 0 14 11 21 26 15 8 -3 11 -9 8 -14z m-4 -159
c0 -5 -4 -10 -10 -10 -5 0 -10 5 -10 10 0 6 5 10 10 10 6 0 10 -4 10 -10z
m-140 -201 c0 -6 -4 -7 -10 -4 -5 3 -10 11 -10 16 0 6 5 7 10 4 6 -3 10 -11
10 -16z m50 -143 c0 -8 -4 -17 -9 -21 -12 -7 -24 12 -16 25 9 15 25 12 25 -4z
m0 -46 c0 -11 -14 -11 -50 0 -22 7 -21 8 13 9 20 1 37 -3 37 -9z"/>
<path d="M11485 2271 c-3 -5 -1 -12 5 -16 5 -3 10 1 10 9 0 18 -6 21 -15 7z"/>
<path d="M1145 2260 c-3 -5 -1 -10 4 -10 6 0 11 5 11 10 0 6 -2 10 -4 10 -3 0
-8 -4 -11 -10z"/>
<path d="M9770 2250 c0 -5 5 -10 11 -10 5 0 7 5 4 10 -3 6 -8 10 -11 10 -2 0
-4 -4 -4 -10z"/>
<path d="M4555 2240 c-3 -5 -1 -10 4 -10 6 0 11 5 11 10 0 6 -2 10 -4 10 -3 0
-8 -4 -11 -10z"/>
<path d="M4680 2201 c0 -14 18 -23 31 -15 8 4 7 9 -2 15 -18 11 -29 11 -29 0z"/>
<path d="M600 2190 c0 -5 4 -10 9 -10 6 0 13 5 16 10 3 6 -1 10 -9 10 -9 0
-16 -4 -16 -10z"/>
<path d="M9870 2190 c0 -5 4 -10 9 -10 6 0 13 5 16 10 3 6 -1 10 -9 10 -9 0
-16 -4 -16 -10z"/>
<path d="M9840 2171 c0 -5 5 -13 10 -16 6 -3 10 -2 10 4 0 5 -4 13 -10 16 -5
3 -10 2 -10 -4z"/>
<path d="M8461 2140 c0 -33 1 -34 10 -11 6 16 6 28 -1 35 -7 7 -10 -1 -9 -24z"/>
<path d="M9876 2161 c-4 -7 -5 -15 -2 -18 9 -9 19 4 14 18 -4 11 -6 11 -12 0z"/>
<path d="M6710 2126 c0 -15 18 -31 26 -23 7 7 -7 37 -17 37 -5 0 -9 -6 -9 -14z"/>
<path d="M11270 2129 c0 -5 5 -7 10 -4 6 3 10 8 10 11 0 2 -4 4 -10 4 -5 0
-10 -5 -10 -11z"/>
<path d="M1661 2121 c-8 -5 -11 -16 -8 -24 4 -10 -2 -17 -16 -21 l-21 -5 24
-21 c31 -27 36 -26 49 11 21 60 10 84 -28 60z"/>
<path d="M3657 2123 c-4 -3 -7 -11 -7 -17 0 -6 5 -5 12 2 6 6 9 14 7 17 -3 3
-9 2 -12 -2z"/>
<path d="M11380 2079 c0 -10 5 -21 10 -24 6 -3 10 -2 10 3 0 5 10 13 22 19 22
10 21 10 -10 15 -26 4 -32 1 -32 -13z"/>
<path d="M4675 2080 c3 -5 10 -10 16 -10 5 0 9 5 9 10 0 6 -7 10 -16 10 -8 0
-12 -4 -9 -10z"/>
<path d="M11258 2079 c-20 -11 -25 -39 -7 -39 5 0 8 -3 6 -7 -3 -5 4 -17 14
-27 11 -11 19 -14 19 -8 0 7 5 12 10 12 16 0 12 -14 -10 -38 -26 -27 -44 -28
-37 -2 3 11 1 20 -4 20 -16 0 -22 -29 -9 -45 8 -9 8 -15 2 -15 -6 0 -12 5 -14
12 -2 6 -9 8 -15 5 -15 -10 -4 -47 12 -41 19 8 27 -12 10 -26 -7 -6 -11 -18
-8 -26 3 -8 0 -14 -6 -14 -6 0 -11 5 -11 12 0 6 -6 3 -14 -7 -10 -13 -11 -25
-5 -37 12 -23 11 -28 -5 -28 -17 0 -27 -23 -16 -39 5 -9 10 -10 14 -2 12 19
26 12 26 -15 0 -19 -5 -24 -18 -22 -19 3 -24 -6 -15 -29 3 -7 3 -18 0 -25 -3
-7 -6 -3 -6 10 -1 27 -17 29 -26 3 -3 -11 3 -34 15 -54 12 -21 17 -38 11 -41
-5 -4 -12 -2 -16 4 -3 5 -11 10 -17 10 -7 0 -6 -5 1 -14 17 -20 18 -95 2 -105
-10 -7 -10 -9 2 -14 8 -3 23 0 33 8 16 11 17 15 4 31 -14 16 -13 17 3 11 11
-4 20 -1 24 8 3 10 12 13 24 10 20 -7 28 18 9 30 -13 8 -13 35 0 35 5 0 12
-11 16 -25 3 -14 12 -25 20 -25 19 0 18 -19 -3 -42 -22 -25 -7 -37 16 -12 20
20 25 39 21 89 -1 18 -4 23 -7 13 -7 -29 -23 -21 -23 11 0 16 -6 32 -12 34 -8
3 -6 6 5 6 10 1 17 -6 17 -16 1 -16 2 -16 16 2 8 11 12 26 9 33 -8 21 6 62 21
62 8 0 14 4 14 10 0 5 12 13 26 16 16 4 23 12 20 20 -3 8 1 14 10 14 11 0 13
-6 9 -19 -4 -15 -2 -19 12 -16 10 1 17 8 15 15 -1 6 3 10 10 7 7 -2 12 -13 10
-23 -2 -18 -2 -18 13 0 8 11 15 23 15 28 0 4 14 8 31 8 16 0 28 -4 25 -9 -10
-16 45 -19 76 -3 24 11 35 12 49 4 12 -8 20 -8 24 -1 4 6 12 6 18 2 14 -10
141 -8 158 3 8 5 9 3 4 -6 -5 -8 6 -4 23 9 33 23 55 21 45 -5 -4 -12 2 -13 37
-8 27 4 44 3 49 -4 5 -8 14 -7 33 2 18 10 29 11 37 3 7 -7 17 -7 33 1 21 10
21 11 3 11 -23 1 -10 16 22 25 16 5 23 2 28 -14 3 -11 10 -20 15 -20 5 0 7 7
3 16 -5 13 -1 15 18 9 18 -5 21 -4 9 4 -8 6 -23 11 -32 11 -18 0 -22 9 -19 42
1 9 -3 19 -9 23 -5 3 -10 1 -10 -4 0 -15 -20 -14 -54 4 -37 19 -67 20 -60 1 4
-11 0 -13 -18 -9 -13 3 -28 10 -35 15 -7 6 -21 0 -38 -17 -31 -28 -87 -37 -65
-10 14 17 15 16 -63 20 -26 2 -53 8 -61 14 -10 8 -16 8 -26 -4 -7 -8 -16 -12
-21 -9 -5 3 -28 7 -50 9 -35 3 -39 2 -28 -11 9 -11 9 -18 1 -26 -9 -9 -17 -6
-32 12 -17 20 -22 21 -37 9 -15 -12 -16 -12 -11 2 6 14 1 16 -28 14 -20 -2
-42 -9 -49 -15 -8 -7 -19 -9 -25 -5 -5 3 -13 -1 -16 -9 -8 -22 -19 -20 -50 9
-17 16 -25 31 -21 44 3 14 1 18 -10 14 -22 -9 -7 38 18 56 10 7 19 20 19 28 0
12 -3 13 -13 4 -21 -17 -29 0 -10 21 15 17 15 18 -11 18 -16 0 -25 4 -21 10 3
6 -1 10 -10 10 -8 0 -18 7 -21 15 -7 17 -31 19 -56 4z m37 -219 c3 -5 2 -10
-4 -10 -5 0 -12 -8 -14 -17 -3 -10 -4 -6 -4 10 1 27 11 35 22 17z m689 -31
c-3 -5 -10 -7 -15 -3 -5 3 -7 10 -3 15 3 5 10 7 15 3 5 -3 7 -10 3 -15z m-210
-13 c-3 -9 -10 -16 -15 -16 -6 0 -5 9 1 21 13 24 24 20 14 -5z m347 1 c-6 -8
-8 -17 -4 -20 3 -4 2 -7 -4 -7 -15 0 -22 11 -16 26 3 8 12 14 20 14 12 0 13
-3 4 -13z m-456 -7 c-3 -5 -12 -10 -18 -10 -7 0 -6 4 3 10 19 12 23 12 15 0z
m-428 -195 c0 -8 -4 -12 -9 -9 -5 3 -6 10 -3 15 9 13 12 11 12 -6z m-21 -26
c8 -13 -26 -79 -42 -79 -8 0 -7 14 5 45 16 46 25 54 37 34z"/>
<path d="M2560 2059 c0 -5 5 -7 10 -4 6 3 10 8 10 11 0 2 -4 4 -10 4 -5 0 -10
-5 -10 -11z"/>
<path d="M6710 2060 c0 -5 5 -10 10 -10 6 0 10 5 10 10 0 6 -4 10 -10 10 -5 0
-10 -4 -10 -10z"/>
<path d="M4650 2056 c0 -2 7 -7 16 -10 8 -3 12 -2 9 4 -6 10 -25 14 -25 6z"/>
<path d="M646 2024 c-9 -35 -2 -40 12 -9 6 13 7 27 3 30 -5 2 -12 -7 -15 -21z"/>
<path d="M1617 2010 c-3 -11 -4 -20 -3 -20 1 0 9 9 19 20 13 15 14 20 3 20 -7
0 -16 -9 -19 -20z"/>
<path d="M492 1970 c0 -14 2 -19 5 -12 2 6 2 18 0 25 -3 6 -5 1 -5 -13z"/>
<path d="M2677 1959 c-19 -11 -23 -39 -6 -39 17 0 38 26 30 38 -4 7 -12 7 -24
1z"/>
<path d="M1620 1925 c7 -9 15 -13 17 -11 7 7 -7 26 -19 26 -6 0 -6 -6 2 -15z"/>
<path d="M1674 1896 c-3 -9 -10 -13 -15 -10 -5 2 -18 0 -29 -6 -15 -8 -20 -8
-20 2 0 9 -3 9 -12 0 -10 -10 -10 -15 1 -21 7 -5 11 -13 7 -19 -3 -6 6 -20 20
-31 15 -12 24 -24 21 -28 -4 -3 -15 1 -25 10 -16 15 -19 15 -30 -3 -14 -23
-15 -33 -3 -26 5 3 14 -1 21 -8 9 -12 7 -17 -9 -25 -11 -6 -21 -21 -23 -33 -2
-16 -9 -22 -21 -20 -16 3 -18 -3 -14 -38 2 -23 11 -50 20 -61 9 -10 12 -19 7
-19 -6 0 -10 -17 -10 -39 0 -50 18 -55 87 -25 38 17 51 28 47 39 -4 8 -2 15 4
15 5 0 12 7 16 15 4 13 2 14 -14 5 -11 -6 -20 -15 -20 -20 0 -6 -4 -10 -10
-10 -5 0 -10 7 -10 15 0 9 -6 12 -15 9 -8 -4 -13 -10 -10 -14 3 -5 1 -11 -5
-15 -6 -4 -10 6 -10 24 0 29 -20 46 -20 19 0 -7 -5 -5 -11 5 -5 9 -18 17 -27
17 -15 0 -15 2 -2 10 9 5 16 6 18 0 5 -15 32 1 32 19 0 12 7 17 22 16 23 -2
35 -35 12 -35 -8 0 -14 6 -14 13 0 8 -3 7 -10 -3 -12 -19 -1 -29 38 -34 30 -3
33 -1 43 36 5 22 12 45 15 53 4 10 -2 13 -20 11 -14 -1 -29 -6 -33 -9 -9 -9
-43 -9 -43 1 0 15 16 31 30 30 43 -3 50 2 46 28 -4 19 -1 24 9 20 19 -7 31 14
15 24 -11 7 -11 14 0 40 8 20 16 27 20 20 5 -8 10 -9 14 -2 4 6 0 14 -8 19 -7
4 -15 17 -17 28 -5 25 -47 33 -55 11z m30 -12 c9 -3 16 -15 16 -26 0 -22 -15
-16 -30 13 -12 21 -10 22 14 13z m-28 -51 c-10 -10 -19 5 -10 18 6 11 8 11 12
0 2 -7 1 -15 -2 -18z m-76 -324 c0 -5 -8 -9 -17 -8 -11 0 -13 3 -5 6 6 2 9 10
6 15 -4 7 -2 8 4 4 7 -4 12 -11 12 -17z"/>
<path d="M4642 1899 c2 -6 8 -10 13 -10 5 0 11 4 13 10 2 6 -4 11 -13 11 -9 0
-15 -5 -13 -11z"/>
<path d="M9800 1891 c0 -6 5 -13 10 -16 6 -3 10 1 10 9 0 9 -4 16 -10 16 -5 0
-10 -4 -10 -9z"/>
<path d="M675 1850 c-3 -5 -2 -10 4 -10 5 0 13 5 16 10 3 6 2 10 -4 10 -5 0
-13 -4 -16 -10z"/>
<path d="M6666 1845 c-5 -15 9 -65 19 -65 3 0 4 18 3 40 -3 41 -12 51 -22 25z"/>
<path d="M6567 1809 c8 -8 16 -8 30 0 16 9 14 10 -11 11 -22 0 -27 -3 -19 -11z"/>
<path d="M616 1794 c-8 -21 -4 -25 14 -14 11 7 12 12 4 20 -8 8 -13 7 -18 -6z"/>
<path d="M10310 1779 c0 -5 5 -7 10 -4 6 3 10 8 10 11 0 2 -4 4 -10 4 -5 0
-10 -5 -10 -11z"/>
<path d="M2660 1765 c-11 -13 -10 -14 4 -9 9 3 16 10 16 15 0 13 -6 11 -20 -6z"/>
<path d="M10705 1770 c-11 -17 5 -32 21 -19 7 6 11 15 8 20 -7 12 -21 11 -29
-1z"/>
<path d="M4480 1756 c0 -8 5 -18 10 -21 6 -3 10 1 10 9 0 8 -4 18 -10 21 -5 3
-10 -1 -10 -9z"/>
<path d="M9597 1754 c-4 -4 -7 -16 -7 -26 0 -14 8 -18 32 -18 26 0 29 2 17 13
-8 6 -19 18 -25 25 -6 7 -13 9 -17 6z"/>
<path d="M9655 1730 c3 -5 8 -10 11 -10 2 0 4 5 4 10 0 6 -5 10 -11 10 -5 0
-7 -4 -4 -10z"/>
<path d="M5173 1653 c-15 -5 -17 -23 -4 -23 5 0 11 7 15 15 3 8 4 15 3 14 -1
0 -8 -3 -14 -6z"/>
<path d="M5254 1641 c4 -5 0 -12 -6 -14 -8 -4 -7 -6 3 -6 9 -1 19 6 23 14 3 9
0 15 -10 15 -8 0 -13 -4 -10 -9z"/>
<path d="M5290 1639 c0 -5 5 -7 10 -4 6 3 10 8 10 11 0 2 -4 4 -10 4 -5 0 -10
-5 -10 -11z"/>
<path d="M9970 1640 c-9 -6 -10 -10 -3 -10 6 0 15 5 18 10 8 12 4 12 -15 0z"/>
<path d="M5285 1610 c3 -5 10 -10 16 -10 5 0 9 5 9 10 0 6 -7 10 -16 10 -8 0
-12 -4 -9 -10z"/>
<path d="M5155 1600 c-3 -5 1 -10 9 -10 9 0 16 -4 16 -10 0 -5 -6 -7 -13 -4
-8 3 -19 -1 -26 -9 -9 -12 -6 -15 16 -15 16 0 31 5 35 12 12 18 9 -20 -4 -48
-6 -14 -19 -28 -30 -31 -10 -3 -27 -8 -39 -11 -19 -5 -20 -4 -9 16 10 18 14
20 21 9 6 -10 9 -10 9 -2 0 7 7 10 15 7 9 -4 15 0 15 9 0 10 -10 14 -31 13
-29 -1 -33 -6 -45 -46 -8 -25 -14 -46 -14 -47 0 -2 6 -3 14 -3 23 0 31 -22 13
-35 -9 -7 -14 -15 -10 -18 3 -4 -1 -7 -11 -7 -13 0 -15 -6 -10 -27 9 -35 8
-35 27 -28 8 4 18 16 21 29 6 24 36 29 55 9 9 -10 8 -13 -4 -13 -9 0 -13 -4
-10 -10 3 -6 -1 -7 -9 -4 -23 9 -40 -34 -27 -69 9 -24 20 -31 43 -29 3 1 9 -5
12 -13 3 -8 2 -15 -2 -15 -11 0 -67 39 -68 47 -3 25 -19 43 -39 43 -17 0 -24
-7 -29 -31 -8 -40 17 -68 45 -51 26 17 38 14 15 -3 -11 -9 -16 -20 -12 -31 3
-9 1 -23 -5 -30 -9 -11 -8 -14 4 -14 8 0 17 -9 20 -20 4 -14 0 -20 -13 -20
-10 0 -20 9 -23 20 -3 11 -10 20 -16 20 -6 0 -8 -7 -5 -15 4 -8 2 -15 -3 -15
-21 0 -22 14 -3 40 18 25 18 28 2 26 -24 -2 -30 -12 -37 -77 -5 -42 -3 -62 7
-72 11 -13 16 -11 38 14 16 18 39 31 65 35 35 6 38 5 28 -8 -7 -8 -9 -19 -5
-23 4 -5 -1 -5 -10 -2 -10 4 -18 2 -18 -3 0 -6 13 -10 29 -10 25 0 29 3 25 23
-2 12 -2 16 2 9 3 -6 10 -10 15 -6 13 8 11 34 -2 32 -14 -3 -54 60 -45 69 3 4
13 -2 21 -13 15 -19 15 -19 9 1 -5 18 -4 18 6 2 6 -9 8 -22 5 -27 -3 -6 -2
-10 4 -10 16 0 26 43 11 48 -9 3 -6 10 9 21 24 18 20 51 -5 51 -22 0 -17 26 9
43 16 12 19 18 10 25 -9 6 -7 12 8 25 22 19 17 40 -6 30 -9 -3 -15 1 -15 11 0
9 -4 16 -10 16 -5 0 -10 11 -10 25 0 21 3 23 23 16 25 -9 47 -4 47 11 0 7 -5
6 -14 -1 -10 -8 -16 -9 -21 -1 -3 5 -4 10 -1 10 3 0 1 11 -4 25 -9 23 -8 24
15 15 16 -6 25 -6 25 0 0 6 0 12 0 15 0 3 9 14 20 25 40 40 16 99 -35 86 -14
-4 -25 -2 -25 4 0 13 -57 13 -65 0z m75 -91 c0 -5 -4 -9 -8 -9 -5 0 -9 7 -9
15 0 8 4 12 9 9 4 -3 8 -9 8 -15z m-61 -60 c15 24 24 -8 11 -40 -15 -35 -30
-38 -30 -5 0 13 -3 33 -6 43 -5 15 -4 16 5 3 9 -12 12 -13 20 -1z m3 -181 c-7
-7 -12 -8 -12 -2 0 14 12 26 19 19 2 -3 -1 -11 -7 -17z m-123 -201 c8 -10 7
-14 -4 -14 -8 0 -15 6 -15 14 0 7 2 13 4 13 2 0 9 -6 15 -13z"/>
<path d="M4473 1559 c-22 -7 -33 -16 -33 -28 0 -11 -4 -21 -8 -23 -14 -5 -22
-52 -12 -68 9 -13 11 -13 20 0 8 12 10 11 10 -6 0 -13 -8 -24 -20 -27 -11 -3
-20 -12 -20 -21 0 -9 -4 -16 -10 -16 -5 0 -10 -15 -10 -34 0 -19 5 -38 10 -41
15 -9 12 -25 -6 -25 -8 0 -12 -4 -9 -10 8 -14 46 12 40 27 -2 7 2 13 10 13 8
0 15 -5 15 -12 0 -16 13 -1 16 18 2 10 -3 14 -12 10 -8 -3 -14 -1 -14 4 0 6 7
10 15 10 8 0 15 7 15 15 0 12 3 12 18 -2 15 -15 16 -22 5 -42 -9 -18 -9 -28
-1 -38 15 -19 3 -27 -21 -13 -14 7 -21 7 -21 0 0 -5 -12 -10 -26 -10 -22 0
-24 -3 -18 -22 6 -21 6 -21 -10 -5 -21 20 -43 12 -26 -8 7 -8 9 -19 5 -24 -4
-7 1 -8 12 -4 10 3 15 3 11 -1 -9 -11 33 -57 45 -49 6 3 7 1 3 -5 -7 -12 -36
-5 -36 8 0 4 -16 2 -34 -4 -38 -12 -51 -38 -40 -82 5 -18 1 -31 -15 -48 -17
-18 -20 -30 -15 -51 5 -19 2 -32 -7 -39 -33 -27 -45 -100 -25 -151 6 -14 5
-16 -2 -6 -8 11 -11 11 -18 0 -4 -7 -3 -14 4 -17 7 -2 12 -8 12 -13 0 -6 -4
-8 -9 -5 -5 3 -14 -23 -21 -59 -11 -56 -10 -70 4 -105 20 -50 20 -51 -1 -43
-16 6 -16 5 -4 -10 12 -15 9 -21 -11 -18 -5 0 -8 -6 -8 -15 0 -11 6 -15 20
-11 11 3 20 1 20 -5 0 -5 5 -6 11 -2 6 3 9 18 6 32 -3 14 0 33 6 43 9 14 13
15 24 4 7 -8 13 -20 13 -27 0 -11 -2 -11 -9 0 -7 11 -9 11 -13 0 -7 -17 1 -38
13 -38 6 0 7 5 4 10 -3 6 -1 10 4 10 6 0 11 -9 11 -20 0 -11 6 -20 14 -20 16
0 30 27 27 51 -1 9 7 19 19 22 13 3 18 10 14 21 -3 9 -1 22 5 30 14 16 4 26
-27 26 -19 0 -23 4 -19 19 3 15 0 17 -16 13 -14 -4 -18 -2 -12 7 4 7 17 10 30
7 31 -8 55 29 41 62 -6 12 -15 22 -21 22 -5 0 -3 4 5 10 12 8 12 10 -2 15 -15
6 -13 10 10 35 46 48 68 84 64 103 -4 20 -18 22 -29 5 -7 -13 -8 -17 -11 -47
-2 -11 -5 -12 -13 -4 -9 9 -4 24 18 60 21 35 28 54 22 68 -8 19 -8 19 -15 -2
-3 -13 -13 -23 -20 -23 -8 0 -17 0 -21 0 -5 0 -8 7 -8 15 0 8 2 14 5 13 13 -4
51 25 47 36 -3 7 4 18 15 25 15 9 17 16 9 24 -6 6 -11 18 -10 26 0 10 4 7 9
-7 10 -23 36 -39 47 -28 3 3 -4 14 -15 25 -26 22 -28 31 -7 31 8 0 15 5 15 10
0 6 -6 10 -13 10 -7 0 -19 9 -27 20 -8 11 -20 20 -27 20 -21 0 -15 20 10 29
15 6 27 4 39 -6 16 -14 18 -14 24 1 4 11 13 15 26 10 18 -5 20 -2 14 35 -4 32
-3 39 9 34 9 -3 15 1 15 11 0 15 -15 20 -50 17 -11 -1 -10 3 5 14 10 8 24 14
30 12 20 -7 34 27 28 69 -3 26 -1 44 6 48 6 4 11 15 11 24 0 12 -3 13 -8 5 -5
-8 -13 -9 -22 -3 -10 7 -11 10 -2 10 19 0 14 20 -5 20 -15 0 -16 2 -3 10 11 7
9 11 -13 19 -40 15 -44 14 -51 -14 -5 -21 -9 -23 -25 -13 -17 10 -16 14 18 45
38 35 36 37 -16 22z m68 -119 c4 0 6 -6 3 -14 -7 -18 -30 -11 -38 11 -5 11 -2
13 10 9 8 -3 20 -6 25 -6z m-99 -68 c3 -19 0 -29 -9 -29 -15 0 -15 3 -7 35 8
29 11 28 16 -6z m-63 -276 c10 -12 8 -17 -7 -25 -17 -9 -18 -7 -14 14 5 29 6
29 21 11z m61 -21 c0 -8 -4 -15 -10 -15 -5 0 -7 7 -4 15 4 8 8 15 10 15 2 0 4
-7 4 -15z m-33 -37 c-3 -8 -6 -5 -6 6 -1 11 2 17 5 13 3 -3 4 -12 1 -19z m-85
-203 c3 3 11 -1 18 -10 10 -12 10 -15 -4 -15 -10 0 -16 -9 -16 -24 0 -14 -5
-28 -12 -32 -6 -4 -8 -3 -5 2 3 6 2 16 -4 24 -7 13 -9 13 -10 0 0 -10 -3 -9
-8 5 -4 10 -3 32 3 47 9 24 12 26 22 14 6 -9 13 -13 16 -11z m38 -55 c0 -5 -4
-10 -10 -10 -5 0 -10 5 -10 10 0 6 5 10 10 10 6 0 10 -4 10 -10z m-30 -89 c0
-4 -7 -16 -15 -27 -14 -18 -14 -17 -15 13 0 25 4 31 15 27 8 -4 15 -9 15 -13z
m-12 -90 c15 13 16 12 3 -3 -7 -10 -17 -16 -21 -13 -5 3 -11 -1 -13 -7 -3 -7
-5 3 -6 22 0 32 1 33 10 11 8 -20 11 -22 27 -10z m82 -31 c0 -13 -11 -13 -30
0 -12 8 -11 10 8 10 12 0 22 -4 22 -10z"/>
<path d="M4580 1510 c0 -5 7 -7 15 -4 8 4 15 8 15 10 0 2 -7 4 -15 4 -8 0 -15
-4 -15 -10z"/>
<path d="M11218 1478 c0 -13 -2 -29 -2 -36 -1 -8 -10 -18 -21 -24 -11 -6 -23
-16 -27 -22 -14 -21 -8 -63 12 -81 15 -13 17 -21 8 -26 -12 -8 -38 31 -38 56
0 7 -7 18 -15 25 -17 14 -38 -2 -43 -35 -9 -62 -13 -81 -18 -97 -4 -13 0 -18
15 -18 11 0 23 -4 26 -10 3 -5 1 -10 -6 -10 -8 0 -7 -6 4 -17 25 -29 26 -86 1
-76 -19 7 -38 -18 -22 -28 6 -4 7 -12 3 -18 -5 -9 -10 -9 -20 -1 -9 8 -15 8
-20 0 -3 -6 -10 -8 -15 -5 -11 7 -21 -9 -31 -53 -9 -43 13 -86 42 -77 11 4 19
0 21 -10 3 -14 6 -13 25 4 12 12 26 21 31 21 5 0 15 11 22 25 10 19 19 24 34
19 17 -4 18 -3 6 5 -13 9 -13 14 -2 31 15 25 8 42 -14 33 -14 -5 -14 -3 -3 15
7 11 23 26 35 33 31 16 49 104 19 93 -9 -4 -15 0 -15 10 0 9 7 16 17 16 15 0
15 1 0 18 -23 25 -22 28 12 40 23 8 31 19 36 46 4 19 4 39 1 45 -4 5 -2 12 4
16 6 4 8 11 5 16 -11 17 -22 9 -22 -17 0 -14 -5 -30 -10 -35 -7 -7 -11 12 -12
53 -4 91 -4 98 -13 98 -4 0 -9 -10 -10 -22z m12 -98 c0 -5 -4 -10 -10 -10 -5
0 -10 5 -10 10 0 6 5 10 10 10 6 0 10 -4 10 -10z m-30 -31 c0 -5 -4 -9 -10 -9
-5 0 -10 7 -10 16 0 8 5 12 10 9 6 -3 10 -10 10 -16z m46 -46 c-10 -10 -19 5
-10 18 6 11 8 11 12 0 2 -7 1 -15 -2 -18z m-80 -214 c3 -6 -1 -18 -10 -27 -15
-15 -18 -15 -39 7 l-22 24 23 -6 c12 -3 20 -1 16 4 -3 5 2 9 10 9 8 0 18 -5
22 -11z m-41 -67 c-8 -8 -25 10 -19 20 4 6 9 5 15 -3 4 -7 6 -15 4 -17z"/>
<path d="M8420 1400 c0 -11 5 -20 10 -20 6 0 10 9 10 20 0 11 -4 20 -10 20 -5
0 -10 -9 -10 -20z"/>
<path d="M730 1343 c0 -4 5 -15 10 -23 8 -13 10 -13 10 2 0 9 -4 20 -10 23 -5
3 -10 3 -10 -2z"/>
<path d="M720 1285 c0 -8 4 -15 10 -15 5 0 7 7 4 15 -4 8 -8 15 -10 15 -2 0
-4 -7 -4 -15z"/>
<path d="M6540 1290 c0 -5 6 -10 13 -10 7 0 18 -12 24 -27 l11 -28 1 31 c1 21
-5 34 -15 38 -23 9 -34 7 -34 -4z"/>
<path d="M4456 1165 c4 -8 7 -15 9 -15 2 0 5 7 9 15 3 9 0 15 -9 15 -9 0 -12
-6 -9 -15z"/>
<path d="M6255 1160 c-3 -5 -1 -10 4 -10 6 0 11 5 11 10 0 6 -2 10 -4 10 -3 0
-8 -4 -11 -10z"/>
<path d="M11066 1144 c-4 -11 0 -15 16 -12 12 2 23 9 26 16 6 18 -35 15 -42
-4z"/>
<path d="M6530 1106 c0 -9 5 -16 10 -16 6 0 10 4 10 9 0 6 -4 13 -10 16 -5 3
-10 -1 -10 -9z"/>
<path d="M11200 1080 c0 -5 5 -10 10 -10 6 0 10 5 10 10 0 6 -4 10 -10 10 -5
0 -10 -4 -10 -10z"/>
<path d="M5085 1030 c-4 -6 -11 -8 -16 -5 -14 10 -11 -15 5 -31 17 -16 46 -19
46 -4 0 6 -5 10 -11 10 -6 0 -9 7 -6 15 7 17 -9 30 -18 15z"/>
<path d="M9500 1001 c0 -5 7 -12 16 -15 14 -5 15 -4 4 9 -14 17 -20 19 -20 6z"/>
<path d="M5043 956 c-18 -6 -35 -16 -37 -22 -3 -8 1 -11 10 -7 17 6 19 -8 2
-25 -9 -9 -9 -12 1 -12 15 0 41 25 41 39 0 15 12 14 36 -3 19 -14 18 -15 -5
-37 -15 -14 -37 -23 -58 -23 -18 0 -33 -4 -33 -9 0 -4 -5 -5 -10 -2 -16 10
-24 -23 -10 -40 9 -11 10 -18 1 -29 -6 -7 -11 -24 -11 -37 1 -47 9 -142 13
-146 2 -2 16 1 31 6 21 9 26 8 26 -5 0 -11 -6 -15 -20 -11 -11 3 -20 1 -20 -4
0 -5 5 -9 11 -9 5 0 7 -5 3 -12 -5 -8 -2 -9 9 -5 13 5 17 0 17 -20 0 -32 20
-18 23 16 1 11 6 21 12 21 6 0 11 9 12 20 1 11 -4 20 -12 20 -23 0 -28 21 -9
35 11 8 15 14 9 15 -15 0 -31 -13 -38 -32 -11 -31 -27 -20 -20 14 8 39 55 87
93 95 18 3 27 10 24 18 -7 16 -66 29 -74 15 -3 -5 -6 6 -7 25 -1 24 5 38 17
45 21 11 30 4 30 -27 0 -12 3 -23 6 -23 27 0 51 85 27 95 -8 2 -11 9 -8 15 3
5 1 10 -4 10 -6 0 -10 10 -8 21 2 25 -20 30 -70 15z m-3 -126 c0 -5 -7 -7 -15
-4 -8 4 -12 10 -9 15 6 11 24 2 24 -11z m-6 -78 c3 -5 -1 -9 -9 -9 -8 0 -15 4
-15 8 0 5 -7 6 -15 3 -15 -6 -21 7 -9 19 7 7 40 -8 48 -21z"/>
<path d="M11161 952 c-14 -27 -14 -32 3 -32 18 0 30 30 17 43 -6 6 -13 1 -20
-11z"/>
<path d="M11000 921 c0 -5 5 -13 10 -16 6 -3 10 -2 10 4 0 5 -4 13 -10 16 -5
3 -10 2 -10 -4z"/>
<path d="M9593 914 c9 -3 17 -11 17 -19 0 -14 29 -29 39 -20 12 13 -18 40 -45
42 -16 1 -21 -1 -11 -3z"/>
<path d="M11041 903 c-1 -6 8 -18 19 -26 28 -19 14 -28 -17 -12 -28 15 -55 9
-32 -6 11 -7 11 -12 2 -26 -6 -10 -15 -17 -20 -16 -17 3 -6 -65 18 -109 12
-23 12 -51 -1 -43 -5 3 -7 0 -4 -9 5 -13 32 -25 74 -32 52 -10 83 -7 75 6 -3
6 1 10 10 10 10 0 13 -5 9 -12 -4 -7 -3 -8 5 -4 10 7 81 14 176 19 31 2 42 7
50 25 11 24 28 31 19 7 -5 -12 2 -15 34 -15 23 0 44 5 47 10 9 14 35 12 33 -2
-2 -7 4 -11 12 -9 59 14 77 20 93 26 12 5 17 3 15 -5 -3 -14 50 -19 70 -6 7 4
12 1 12 -8 0 -12 5 -12 33 -3 17 7 35 16 38 21 4 5 27 1 53 -9 29 -11 55 -15
73 -10 15 3 53 8 83 9 31 1 62 6 69 11 9 5 18 2 26 -8 9 -12 14 -14 23 -5 16
16 15 35 0 42 -7 3 -3 3 9 1 12 -3 24 -1 28 5 3 6 11 7 17 4 7 -4 8 -2 4 5 -5
7 -16 9 -28 5 -14 -4 -18 -2 -14 5 4 6 3 11 -3 11 -6 0 -8 8 -4 18 5 14 3 15
-8 5 -20 -20 -50 -15 -56 7 -5 19 -33 29 -33 12 0 -15 -133 -17 -138 -2 -6 16
-22 12 -22 -5 0 -8 -7 -15 -15 -15 -8 0 -15 5 -15 10 0 14 -26 13 -49 -2 -15
-9 -25 -9 -46 0 -14 7 -38 9 -52 6 -16 -4 -28 -2 -34 7 -6 10 -9 11 -9 2 0 -7
-9 -13 -21 -13 -14 0 -19 -5 -16 -14 3 -8 -1 -17 -9 -20 -8 -3 -13 -2 -10 2 2
4 0 14 -5 22 -7 13 -10 13 -18 1 -7 -10 -9 -11 -13 0 -4 12 -19 12 -124 5 -11
0 -28 -7 -37 -14 -11 -10 -27 -11 -49 -6 -18 4 -70 7 -115 6 -88 -2 -99 6 -81
55 12 35 1 55 -22 40 -14 -8 -16 -14 -7 -20 8 -6 6 -7 -6 -3 -10 3 -23 6 -28
6 -5 0 -9 11 -9 25 0 20 -5 25 -24 25 -13 0 -27 6 -29 13 -4 9 -6 9 -6 0z m84
-133 c8 -13 -5 -13 -25 0 -13 8 -13 10 2 10 9 0 20 -4 23 -10z m415 -20 c0 -6
12 -8 28 -5 26 5 26 5 3 -5 -14 -6 -21 -16 -17 -25 3 -9 0 -15 -10 -15 -8 0
-12 5 -9 10 3 6 2 10 -2 10 -5 0 -9 9 -10 20 -1 11 2 20 8 20 5 0 9 -5 9 -10z
m290 0 c0 -5 -4 -10 -10 -10 -5 0 -10 5 -10 10 0 6 5 10 10 10 6 0 10 -4 10
-10z m-343 -16 c-3 -3 -12 -4 -19 -1 -8 3 -5 6 6 6 11 1 17 -2 13 -5z m543
-24 c0 -5 -5 -10 -11 -10 -5 0 -7 5 -4 10 3 6 8 10 11 10 2 0 4 -4 4 -10z
m-440 -20 c0 -5 -2 -10 -4 -10 -3 0 -8 5 -11 10 -3 6 -1 10 4 10 6 0 11 -4 11
-10z m-95 -10 c-3 -5 -11 -10 -16 -10 -6 0 -7 5 -4 10 3 6 11 10 16 10 6 0 7
-4 4 -10z"/>
<path d="M11110 870 c0 -5 7 -7 15 -4 8 4 15 8 15 10 0 2 -7 4 -15 4 -8 0 -15
-4 -15 -10z"/>
<path d="M1660 840 c0 -5 5 -10 10 -10 6 0 10 5 10 10 0 6 -4 10 -10 10 -5 0
-10 -4 -10 -10z"/>
<path d="M10565 820 c3 -5 1 -10 -4 -10 -6 0 -11 -7 -11 -15 0 -19 14 -19 30
0 12 15 6 35 -11 35 -6 0 -7 -4 -4 -10z"/>
<path d="M4437 793 c-4 -3 -7 -11 -7 -17 0 -6 5 -5 12 2 6 6 9 14 7 17 -3 3
-9 2 -12 -2z"/>
<path d="M12160 771 c0 -13 12 -20 26 -14 20 8 17 19 -6 20 -11 1 -20 -2 -20
-6z"/>
<path d="M4412 748 c2 -6 11 -12 20 -14 11 -1 15 3 11 12 -6 17 -36 19 -31 2z"/>
<path d="M8255 720 c-3 -5 -1 -10 4 -10 6 0 11 -8 11 -17 0 -15 2 -16 10 -3 5
8 10 21 10 28 0 14 -26 16 -35 2z"/>
<path d="M5090 708 c0 -12 7 -18 23 -17 15 0 17 2 7 6 -8 3 -18 11 -22 17 -5
7 -8 4 -8 -6z"/>
<path d="M12170 679 c0 -15 18 -19 23 -6 3 8 -1 14 -9 14 -8 0 -14 -4 -14 -8z"/>
<path d="M385 500 c-4 -12 -5 -24 -2 -27 3 -2 8 5 12 17 4 12 5 24 2 27 -3 2
-8 -5 -12 -17z"/>
<path d="M1731 484 c0 -11 3 -14 6 -6 3 7 2 16 -1 19 -3 4 -6 -2 -5 -13z"/>
<path d="M4296 423 c-11 -11 -6 -23 8 -23 8 0 17 4 20 9 7 10 -19 23 -28 14z"/>
</g>
</svg>
